<ttFont>
          <CharString index="0">
            442 157 rmoveto
            -54 callgsubr
            -134 12 -19 -12 -5 -20 -72 20 rlineto
            -123 -131 -169 -158 -99 56 -58 95 hvcurveto
            42 29 37 47 54 94 rrcurveto
            10 hlineto
            -20 -83 -5 -25 -14 vvcurveto
            -32 17 -16 34 57 45 33 122 110 -61 callsubr
            -32 -34 -12 -9 -6 hhcurveto
            -240 -11 35 callsubr
            -9 -17 27 hvcurveto
            -96 -27 -52 -102 -22 hhcurveto
            return
          </CharString>
          <CharString index="1">
            593 153 rmoveto
            -14 108 -48 385 0 vvcurveto
            -14 12 -267 -16 -211 -502 -13 -31 -19 -18 -23 -6 rlinecurve
            -17 -87 rlineto
            0 69 1 61 59 91 -3 0 vhcurveto
            18 83 -7 10 rlineto
            -27 hlineto
            -16 -7 4 11 6 2 8 4 13 hvcurveto
            13 44 rlineto
            0 59 5 18 8 65 -2 0 vhcurveto
            -57 vlineto
            -23 -10 -5 -56 -6 vhcurveto
            -16 -84 rlineto
            return
          </CharString>
          <CharString index="2">
            rmoveto
            23 -7 40 27 48 27 27 15 rlinecurve
            23 -15 43 -27 34 -27 24 7 rcurveline
            53 62 rlineto
            -68 69 -76 87 0 vvcurveto
            -27 hlineto
            0 -96 -87 -86 -69 vhcurveto
            endchar
          </CharString>
          <CharString index="3">
            434 39 callgsubr
            -154 -128 -140 -170 -112 65 -73 99 93 100 65 83 34 vhcurveto
            -17 callgsubr
            -49 -28 -29 -22 -34 hhcurveto
            -32 -18 17 32 -5 hvcurveto
            179 54 70 49 93 vvcurveto
            -175 -8 rmoveto
            15 10 -9 -14 -30 -33 -29 -63 -24 hvcurveto
            69 10 25 37 36 hhcurveto
            return
          </CharString>
          <CharString index="4">
            hstem
            778 4 rmoveto
            188 502 14 36 8 11 23 8 rlinecurve
            17 87 rlineto
            0 -61 -1 -54 -56 -88 3 0 vhcurveto
            -18 -83 6 -10 rlineto
            23 hlineto
            21 4 -3 -14 -22 -75 -236 -43 -114 hvcurveto
            -21 hlineto
            0 -6 254 86 vvcurveto
            34 14 11 52 6 vhcurveto
            17 84 -7 9 rlineto
            0 -90 -5 -90 -58 -101 2 0 vhcurveto
            -19 -79 6 -10 rlineto
            44 8 -5 -26 -3 hvcurveto
            -2 -5 -2 -9 -3 -13 -19 -62 -61 -182 -32 -90 rrcurveto
            -21 hlineto
            0 -5 254 86 vvcurveto
            31 16 12 49 8 vhcurveto
            17 84 -6 9 rlineto
            0 -92 -5 -89 -51 -77 2 0 vhcurveto
            -19 -79 6 -10 23 -5 9 -15 9 -47 rlinecurve
            10 -108 38 -398 0 vvcurveto
            270 17 87 268 rlineto
            14 hlineto
            6 -285 rlineto
            return
          </CharString>
          <CharString index="5">
            310 114 rmoveto
            -43 -20 38 82 204 28 84 67 44 21 -38 -82 -205 -28 -83 -69 hvcurveto
            -27 -126 rmoveto
            229 126 153 257 173 -97 88 -169 -232 -122 -146 -257 -174 100 -94 165 hvcurveto
            return
          </CharString>
          <CharString index="6">
            hstem
            195 -12 rmoveto
            201 123 86 142 117 -111 38 -75 36 hvcurveto
            -39 19 -29 18 28 vvcurveto
            28 26 21 37 39 23 -19 -39 -5 -3 -23 0 vhcurveto
            11 -8 118 8 rlineto
            18 90 29 84 0 vvcurveto
            -10 22 rlineto
            0 -86 28 -107 -194 -127 -93 -141 -102 81 -43 71 -34 vhcurveto
            54 -25 47 -20 -35 vvcurveto
            -27 -26 -18 -39 -54 -23 39 63 6 vhcurveto
            -127 -9 rlineto
            -11 -66 -31 -99 0 vvcurveto
            10 -18 rlineto
            0 83 -43 115 vhcurveto
            return
          </CharString>
          <CharString index="7">
            323 510 rmoveto
            8 37 8 8 45 7 18 90 rcurveline
            0 -129 -5 -41 -31 callgsubr
            8 -10 callgsubr
            14 -68 callgsubr
            -6 -55 -12 -15 -54 -12 rlinecurve
            -18 -85 rlineto
            return
          </CharString>
          <CharString index="8">
            rmoveto
            -36 108 -16 5 rlineto
            0 -126 -54 -123 -46 vhcurveto
            21 -71 19 -13 rlineto
            124 31 130 24 3 callsubr
          </CharString>
          <CharString index="9">
            -67 callsubr
            11 73 22 77 0 vvcurveto
            -14 21 rlineto
            0 -134 -12 -89 vhcurveto
            -12 -82 rlineto
            28 hlineto
            27 9 -11 -32 -4 hvcurveto
            -9 -58 -43 -262 -35 callgsubr
            return
          </CharString>
          <CharString index="10">
            hstem
            53 180 rmoveto
            -26 -30 -28 -60 -6 -37 rrcurveto
            -38 13 67 -27 80 hhcurveto
            137 101 76 104 86 -81 23 -46 24 hvcurveto
            -18 9 -12 9 14 vvcurveto
            16 15 12 19 23 23 -18 -29 14 vhcurveto
            25 hlineto
            20 32 21 42 22 54 rrcurveto
            26 -34 -58 16 -58 hhcurveto
            -129 -95 -77 -106 -71 51 -28 44 -21 hvcurveto
            34 -16 31 -12 -22 vvcurveto
            -16 -14 -9 -26 -42 -36 32 40 -4 vhcurveto
            return
          </CharString>
          <CharString index="11">
            hstem
            279 -11 rmoveto
            126 100 38 0 hvcurveto
            15 16 rlineto
            11 96 26 117 0 vvcurveto
            -155 -10 rlineto
            -92 -19 -18 -24 -49 hhcurveto
            -49 -19 38 100 182 28 71 73 42 24 -20 -36 -18 -11 -57 0 hvcurveto
            156 9 rlineto
            22 122 32 92 0 vvcurveto
            -6 20 rlineto
            0 -139 26 -83 -240 -128 -139 -261 -33 callgsubr
            return
          </CharString>
          <CharString index="12">
            rmoveto
            -48 -38 23 47 -14 hvcurveto
            -28 -7 -47 -62 rlineto
            -68 12 46 -68 101 hhcurveto
            100 63 68 68 29 hvcurveto
            -32 62 -27 7 rlineto
            -47 -25 -44 -23 -48 hhcurveto
            return
          </CharString>
          <CharString index="13">
            310 174 rmoveto
            -19 -79 -11 -41 -18 vvcurveto
            -32 16 -16 35 57 45 33 122 110 -61 callsubr
            -41 -46 0 0 -6 hhcurveto
            return
          </CharString>
          <CharString index="14">
            74 hlineto
            11 -10 -25 -361 rlineto
            -1 -11 1 -24 -19 vvcurveto
            -54 -27 -27 -38 -48 -19 21 58 -5 vhcurveto
            -20 hlineto
            -23 -28 -35 -65 -12 -39 rrcurveto
            -35 13 57 -27 64 hhcurveto
            102 128 123 113 12 hvcurveto
            return
          </CharString>
          <CharString index="15">
            rmoveto
            57 -59 callgsubr
            46 hvcurveto
            -188 hmoveto
            58 38 40 59 43 -25 25 -44 -21 callsubr
            46 hvcurveto
            endchar
          </CharString>
          <CharString index="16">
            hstem
            253 363 rmoveto
            25 18 -16 -36 17 hvcurveto
            43 1 51 129 -4 18 rlineto
            15 -27 -42 9 -40 hhcurveto
            -154 -127 -142 -174 -109 63 -70 99 82 95 69 84 32 hvcurveto
            -55 callsubr
            return
          </CharString>
          <CharString index="17">
            rmoveto
            22 -7 48 19 55 21 31 11 rlinecurve
            28 -11 53 -21 41 -19 24 7 rcurveline
            43 62 -74 63 -81 81 -1 -6 rlinecurve
            -27 hlineto
            0 -101 -77 -89 -61 vhcurveto
            endchar
          </CharString>
          <CharString index="18">
            -87 rmoveto
            35 -18 42 -25 -20 vvcurveto
            -15 -12 -9 -19 -27 -16 19 37 3 vhcurveto
            -8 hlineto
            -24 -21 -37 -36 -17 vvcurveto
            -32 45 -19 37 88 73 48 57 43 -59 39 -37 19 vhcurveto
            return
          </CharString>
          <CharString index="19">
            0 -72 -6 -49 -57 -92 1 0 vhcurveto
            -32 -109 14 -15 rlineto
            0 72 1 57 vhcurveto
            136 1 32 109 rlineto
            return
          </CharString>
          <CharString index="20">
            -15 -81 10 -14 60 -7 10 -10 -6 -46 rlinecurve
            -54 -349 -6 -40 -18 -18 -39 -5 rlinecurve
            -21 -90 rlineto
            0 85 8 69 41 110 -19 callgsubr
            21 85 -8 9 rlineto
            0 -21 -4 -11 -29 -7 13 38 4 vhcurveto
            18 178 rlineto
            15 hlineto
            return
          </CharString>
          <CharString index="21">
            rmoveto
            -15 59 -9 4 rlineto
            0 -281 -59 -220 vvcurveto
            -80 47 -50 80 111 71 63 101 64 -36 37 -59 vhcurveto
            -12 -5 -10 -3 -12 -3 -3 8 rcurveline
            57 59 71 25 0 vvcurveto
            -143 -167 rmoveto
            15 6 -10 -26 -38 -6 -20 -30 -17 -8 14 28 17 3 11 3 15 hvcurveto
            5 8 11 4 15 hhcurveto
            endchar
          </CharString>
          <CharString index="22">
            72 158 -8 0 hvcurveto
            14 13 rlineto
            10 61 26 93 0 vvcurveto
            -87 -6 rlineto
            -45 -10 -15 -16 -31 hhcurveto
            -26 hlineto
            -3 6 rlineto
            108 97 35 52 62 vvcurveto
            55 -48 37 -73 -51 -60 -29 -47 -47 vhcurveto
            8 -86 rlineto
            14 hlineto
            30 29 28 14 23 hhcurveto
            19 9 -7 -18 -18 -22 -32 -43 -42 hvcurveto
            -104 -97 rlineto
            endchar
          </CharString>
          <CharString index="23">
            -20 -11 -5 -21 -72 21 rlineto
            -122 -132 -171 -158 -70 27 -51 48 -21 hvcurveto
            -1 -7 -51 -23 -74 -36 -32 -18 rlinecurve
            -4 -13 -10 -86 82 -62 123 1 rlinecurve
            121 1 196 165 13 111 rrcurveto
            return
          </CharString>
          <CharString index="24">
            rmoveto
            -87 32 -267 -426 rlineto
            -83 -132 -111 -160 0 vvcurveto
            6 -17 93 -35 rlineto
            0 99 155 90 143 vhcurveto
            91 139 179 277 0 vvcurveto
            return
          </CharString>
          <CharString index="25">
            0 -136 -12 -91 vhcurveto
            -12 -82 rlineto
            28 hlineto
            23 10 -10 -23 hvcurveto
            -27 -88 -498 -35 vvcurveto
            -69 callgsubr
            return
          </CharString>
          <CharString index="26">
            27 -12 117 494 -20 hstem
            444 511 rmoveto
            -20 81 -12 7 rlineto
            0 -404 -91 -329 vvcurveto
            -116 67 -75 113 157 102 95 146 92 -52 58 -87 vhcurveto
            -56 -21 -4 11 rlineto
            82 101 114 41 0 vvcurveto
            -207 -252 rmoveto
            27 12 -20 -40 -60 -13 -34 -47 -28 -15 25 46 26 5 17 4 23 hvcurveto
            8 13 19 9 23 hhcurveto
            endchar
          </CharString>
          <CharString index="27">
            332 533 rmoveto
            18 13 9 28 vhcurveto
            19 82 -6 11 rlineto
            0 -133 -7 -44 -32 -116 2 0 vhcurveto
            -21 -91 4 -6 39 -19 31 -28 14 -37 rlinecurve
            80 -199 16 -39 4 -22 -4 -29 rlinecurve
            -2 -16 -7 -59 -20 -14 -84 -6 rlinecurve
            return
          </CharString>
          <CharString index="28">
            hstemhm
            hintmask 10110000
            -100 callsubr
            return
          </CharString>
          <CharString index="29">
            247 -12 125 -113 113 153 97 163 127 -96 96 -6 34 callgsubr
            299 -35 callsubr
            hintmask 10100100
            0 -108 -6 -45 -40 -109 3 0 vhcurveto
            -19 -81 8 -14 rlineto
            hintmask 01101000
            0 17 2 14 18 4 -12 -42 -5 vhcurveto
            -17 -140 rlineto
            -85 hlineto
            -24 -89 9 -8 rlineto
            88 hlineto
            -12 -98 -9 -58 -16 -17 -47 -8 rlinecurve
            -20 -93 rlineto
            0 87 8 55 vhcurveto
            hintmask 10110000
            -46 callgsubr
            4 7 53 10 65 hvcurveto
            73 hlineto
            18 90 -7 10 -70 -3 10 64 9 57 3 14 rlinecurve
            21 4 5 6 14 hhcurveto
            endchar
          </CharString>
          <CharString index="30">
            -67 19 -29 callgsubr
            -21 -87 -4 -21 -14 vvcurveto
            -32 16 -16 35 57 45 33 122 110 -61 callsubr
            -44 -51 4 3 -5 37 callsubr
            26 39 74 22 85 19 36 38 -26 0 hvcurveto
            -97 -28 -51 -101 -22 hhcurveto
            return
          </CharString>
          <CharString index="31">
            0 95 5 93 54 84 -2 0 vhcurveto
            18 79 -6 10 -27 4 -14 17 -6 46 rlinecurve
            return
          </CharString>
          <CharString index="32">
            -41 20 -18 46 56 49 37 118 105 vhcurveto
            -19 48 -24 4 rlineto
            -37 -41 -6 -4 -5 hhcurveto
            return
          </CharString>
          <CharString index="33">
            0 80 7 53 37 69 -19 callgsubr
            18 64 -2 4 rlineto
            0 -13 -1 -16 -14 -6 10 22 31 28 176 8 20 vhcurveto
            return
          </CharString>
          <CharString index="34">
            -7 10 rlineto
            -43 hlineto
            27 223 -106 9 -6 -2 -194 -242 rlineto
            154 93 rmoveto
            8 hlineto
            -10 -81 rlineto
            -54 hlineto
            return
          </CharString>
          <CharString index="35">
            332 228 rmoveto
            39 -153 rlineto
            -66 17 27 -25 56 hhcurveto
            155 11 18 73 -9 16 rlineto
            -27 -30 31 57 -25 hvcurveto
            -45 104 rlineto
            93 53 47 72 88 vvcurveto
            109 -93 55 -167 vhcurveto
            return
          </CharString>
          <CharString index="36">
            rmoveto
            115 68 96 159 102 -41 52 -77 -115 -70 -97 -159 -101 41 -52 79 hvcurveto
            26 135 rmoveto
            -38 -18 16 39 59 18 21 47 40 17 -17 -39 -59 -17 -20 -49 hvcurveto
            endchar
          </CharString>
          <CharString index="37">
            192 12 74 497 6 41 15 16 42 6 rlinecurve
            16 90 rlineto
            -1 -82 -2 -55 -55 -109 4 0 vhcurveto
            -15 -81 4 -11 rlineto
            30 hlineto
            23 6 -9 -34 -3 hvcurveto
            -18 -183 rlineto
            return
          </CharString>
          <CharString index="38">
            68 46 47 71 51 -29 30 return
          </CharString>
          <CharString index="39">
            -70 -21 79 138 89 142 -67 138 89 142 20 -20 hstemhm
            hintmask 11011000
            178 428 rmoveto
            -49 -23 13 28 34 20 14 55 49 23 -12 -29 -33 -19 -15 -56 hvcurveto
            -27 -138 rmoveto
            108 78 79 147 96 -47 47 -78 -108 -80 -79 -146 -97 49 -47 78 hvcurveto
            426 -164 rmoveto
            -49 -23 13 28 hvcurveto
            hintmask 11100100
            34 20 14 55 49 23 -12 -29 -33 -19 -15 -56 vhcurveto
            -27 -138 rmoveto
            108 78 79 147 96 -47 47 -78 -108 -80 -79 -146 -97 49 -47 78 hvcurveto
            return
          </CharString>
          <CharString index="40">
            -27 callsubr
            -36 -24 -40 -61 -42 -97 -7 -1 rcurveline
            return
          </CharString>
          <CharString index="41">
            -4 8 -62 3 -5 7 7 62 rlinecurve
            8 68 rlineto
            18 126 rmoveto
            5 35 4 25 17 92 rrcurveto
            19 3 2 3 14 hhcurveto
            66 31 -22 -48 -58 -23 -38 -47 -18 hvcurveto
            return
          </CharString>
          <CharString index="42">
            rmoveto
            -84 63 -14 -5 rlineto
            0 -53 -93 -55 -90 vhcurveto
            49 -38 rlineto
            19 hlineto
            68 76 73 73 0 vvcurveto
            return
          </CharString>
          <CharString index="43">
            0 20 2 15 18 5 -11 -33 -4 vhcurveto
            -43 -347 -7 -57 -18 -20 -48 -8 rlinecurve
            -20 -92 rlineto
            0 99 9 73 41 121 -19 callgsubr
            20 84 rlineto
            return
          </CharString>
          <CharString index="44">
            rmoveto
            39 101 56 107 17 33 61 109 rlinecurve
            -36 50 rlineto
            -151 hlineto
            -41 -40 3 0 hvcurveto
            -4 -3 rlineto
            -13 -74 -21 -92 0 vvcurveto
            61 4 12 43 9 6 39 5 rlinecurve
            53 6 -155 -252 6 -19 88 -27 rlineto
            endchar
          </CharString>
          <CharString index="45">
            rmoveto
            -47 -39 23 47 -13 hvcurveto
            -28 -7 -48 -62 rlineto
            -68 12 46 -68 101 hhcurveto
            101 62 68 68 29 hvcurveto
            -32 62 -26 7 rlineto
            -47 -26 -44 -23 -48 hhcurveto
            return
          </CharString>
          <CharString index="46">
            vhcurveto
            -71 callgsubr
            return
          </CharString>
          <CharString index="47">
            131 -97 97 -97 131 24 -20 hstemhm
            return
          </CharString>
          <CharString index="48">
            -20 hstem
            9 -52 rmoveto
            4 -10 95 -55 79 117 rlineto
            -8 29 32 -4 35 hhcurveto
            229 126 153 257 81 -22 62 -40 44 hvcurveto
            66 100 -2 13 -97 54 -69 -107 rlineto
            9 -30 -35 5 -37 hhcurveto
            -232 -122 -146 -257 -85 24 -66 43 -45 hvcurveto
            225 54 rmoveto
            -43 -20 38 82 204 28 84 67 44 21 -38 -82 -205 -28 -83 -69 hvcurveto
            return
          </CharString>
          <CharString index="49">
            -7 -60 -17 -20 -49 -8 rlinecurve
            -20 -92 rlineto
            return
          </CharString>
          <CharString index="50">
            rmoveto
            -135 -10 callgsubr
            -4 -118 -17 -120 vhcurveto
            19 -6 76 25 rlineto
            39 112 29 109 3 callsubr
          </CharString>
          <CharString index="51">
            -76 callsubr
            -254 325 -72 callgsubr
            return
          </CharString>
          <CharString index="52">
            -63 callgsubr
            hvcurveto
            return
          </CharString>
          <CharString index="53">
            rmoveto
            -69 callsubr
            return
          </CharString>
          <CharString index="54">
            0 -130 -5 -41 -17 -141 1 0 vhcurveto
            -18 -76 -57 callgsubr
            182 -191 rmoveto
            89 -252 rlineto
            -61 22 23 -20 51 hhcurveto
            25 129 11 0 hvcurveto
            20 74 -9 15 -38 6 -23 25 -21 59 rlinecurve
            -65 182 60 79 47 60 39 35 58 32 rlinecurve
            18 75 rlineto
            return
          </CharString>
          <CharString index="55">
            rmoveto
            -76 -83 -96 -93 0 vvcurveto
            -3 -27 rlineto
            0 73 -93 56 -84 vhcurveto
            66 36 10 23 -20 47 -19 54 -10 30 rlinecurve
            18 30 32 57 32 45 -5 23 rcurveline
            return
          </CharString>
          <CharString index="56">
            rmoveto
            -17 19 -12 30 27 vvcurveto
            36 25 42 39 28 vhcurveto
            25 vlineto
            -58 46 rlineto
            -103 -59 -64 -81 -70 vvcurveto
            return
          </CharString>
          <CharString index="57">
            rmoveto
            18 -20 11 -30 -26 vvcurveto
            -37 -25 -42 -39 -27 vhcurveto
            -25 vlineto
            58 -46 rlineto
            102 58 65 81 71 vvcurveto
            61 -34 40 -51 -29 -38 -17 -27 -35 vhcurveto
            return
          </CharString>
          <CharString index="58">
            rmoveto
            68 46 46 74 49 -27 26 -49 -70 -46 -44 -73 -49 27 -29 51 hvcurveto
            return
          </CharString>
          <CharString index="59">
            -20 hstem
            -29 -73 rmoveto
            4 -10 95 -55 87 130 rlineto
            -2 13 13 -2 15 hhcurveto
            163 107 122 185 47 -10 39 -18 30 hvcurveto
            84 129 -2 13 -97 54 -83 -129 rlineto
            4 -16 -18 2 -19 hhcurveto
            -163 -107 -119 -181 -56 12 -45 25 -33 hvcurveto
            return
          </CharString>
          <CharString index="60">
            29 82 -34 34 hhcurveto
            17 4 93 115 2 16 -52 54 rlineto
            -16 hlineto
            0 -49 -58 -24 vhcurveto
            return
          </CharString>
          <CharString index="61">
            481 333 rmoveto
            0 -76 156 -64 162 vhcurveto
            0 -74 -4 -54 return
          </CharString>
          <CharString index="62">
            199 -38 callgsubr
            return
          </CharString>
          <CharString index="63">
            rmoveto
            0 -38 -25 -28 -20 -13 14 20 return
          </CharString>
          <CharString index="64">
            172 -12 127 444 88 return
          </CharString>
          <CharString index="65">
            0 36 1 42 46 146 -2 -1 2 vhcurveto
            17 83 -3 10 rlineto
            -41 -11 -1 13 6 4 9 5 14 hvcurveto
            19 53 77 23 73 13 -3 -57 rlineto
            -15 -2 -7 -1 -10 vhcurveto
            -3 -29 -13 -8 -54 -6 rrcurveto
            -8 237 rmoveto
            return
          </CharString>
          <CharString index="66">
            vvcurveto
            -49 43 -31 75 vhcurveto
            48 18 62 54 0 vvcurveto
            return
          </CharString>
          <CharString index="67">
            73 162 rmoveto
            -6 -56 -14 -15 -52 -11 -18 -85 rcurveline
            0 102 5 62 41 27 callsubr
            -21 -25 -4 14 55 7 vhcurveto
            50 350 3 33 11 10 51 13 rlinecurve
            18 90 rlineto
            return
          </CharString>
          <CharString index="68">
            -65 callgsubr
            125 return
          </CharString>
          <CharString index="69">
            -4 -12 138 237 120 return
          </CharString>
          <CharString index="70">
            -12 155 224 105 return
          </CharString>
          <CharString index="71">
            297 -6 rmoveto
            13 -7 162 22 4 21 rlineto
            0 -53 102 -29 65 vhcurveto
            73 54 39 61 62 vvcurveto
            69 -59 42 -99 vhcurveto
            -37 -24 -40 -63 -41 -95 25 callsubr
            return
          </CharString>
          <CharString index="72">
            -12 rmoveto
            232 154 165 249 166 -102 85 -181 hvcurveto
            return
          </CharString>
          <CharString index="73">
            15 -21 26 -21 479 -20 return
          </CharString>
          <CharString index="74">
            0 -92 -4 -55 -1 vhcurveto
            -186 hlineto
            -17 -75 -4 callsubr
            15 1 11 27 6 -11 -40 -5 vhcurveto
            -15 -119 rlineto
            -2 -17 -18 -1 -44 hhcurveto
            -77 3 20 121 6 36 10 8 41 8 rlinecurve
            return
          </CharString>
          <CharString index="75">
            0 -159 -5 -47 -31 callgsubr
            -57 callgsubr
            return
          </CharString>
          <CharString index="76">
            -29 -82 34 -34 hhcurveto
            -17 -4 -93 -115 -2 -16 52 -54 rlineto
            endchar
          </CharString>
          <CharString index="77">
            35 callsubr
            -6 -10 27 hvcurveto
            -101 -27 -52 -107 -22 hhcurveto
            310 220 -18 callgsubr
          </CharString>
          <CharString index="78">
            rlineto
            -85 -10 49 -50 93 hhcurveto
            30 63 61 92 65 hvcurveto
            -21 50 rlineto
            return
          </CharString>
          <CharString index="79">
            659 -25 callgsubr
          </CharString>
          <CharString index="80">
            41 vvcurveto
            67 -56 40 -93 vhcurveto
            return
          </CharString>
          <CharString index="81">
            17 16 rlineto
            23 109 return
          </CharString>
          <CharString index="82">
            -15 -70 rmoveto
            76 47 62 63 44 -24 41 -65 -71 -51 -53 -68 -53 30 -36 58 hvcurveto
            endchar
          </CharString>
          <CharString index="83">
            25 -12 108 387 116 hstem
            3 124 rmoveto
            -79 73 -57 108 136 110 93 121 61 -30 38 -36 26 vhcurveto
            45 23 48 42 72 vvcurveto
            76 return
          </CharString>
          <CharString index="84">
            133 -133 230 213 228 -138 138 return
          </CharString>
          <CharString index="85">
            rmoveto
            hintmask 10000000
            0 -72 -6 -49 -57 -92 1 0 vhcurveto
            -32 -109 rlineto
            hintmask 01100000
            14 -15 rlineto
            hintmask 10000000
            26 callgsubr
          </CharString>
          <CharString index="86">
            -58 -39 -40 -60 -43 24 -24 return
          </CharString>
          <CharString index="87">
            -167 -163 3 0 hvcurveto
            -19 -79 11 -10 callgsubr
            14 2 11 15 6 -7 -21 1 vhcurveto
            -201 -391 -16 -31 -20 -18 -26 -6 rlinecurve
            -8 -87 rlineto
            return
          </CharString>
          <CharString index="88">
            73 -4 83 -5 54 vhcurveto
            -8 5 rlineto
            0 -88 -3 -60 -7 vhcurveto
            -5 -56 rlineto
            21 hlineto
            9 5 -5 -14 3 hvcurveto
            10 -52 13 -99 6 -78 13 -14 rcurveline
            return
          </CharString>
          <CharString index="89">
            185 -11 141 116 108 167 138 return
          </CharString>
          <CharString index="90">
            6 callgsubr
            20 rlineto
            return
          </CharString>
          <CharString index="91">
            rmoveto
            77 47 62 63 44 -24 41 -65 -72 -50 -53 -68 -53 30 -36 57 hvcurveto
            return
          </CharString>
          <CharString index="92">
            -8 callsubr
            rlineto
            return
          </CharString>
          <CharString index="93">
            0 108 10 return
          </CharString>
          <CharString index="94">
            0 -138 -12 -90 vhcurveto
            -12 -82 rlineto
            28 hlineto
            27 9 -11 -32 -4 hvcurveto
            return
          </CharString>
          <CharString index="95">
            21 -12 157 -113 113 186 124 return
          </CharString>
          <CharString index="96">
            -12 hvcurveto
            -5 -48 -88 -13 -8 -66 return
          </CharString>
          <CharString index="97">
            -72 callgsubr
            endchar
          </CharString>
          <CharString index="98">
            103 -12 -23 callsubr
            return
          </CharString>
          <CharString index="99">
            42 -10 37 -17 20 vhcurveto
            -188 -27 return
          </CharString>
          <CharString index="100">
            rmoveto
            0 48 58 24 vhcurveto
            return
          </CharString>
          <CharString index="101">
            rmoveto
            -32 97 -15 4 rlineto
            0 -113 -48 -111 -42 vhcurveto
            19 -63 17 -12 rlineto
            112 28 117 21 3 callsubr
          </CharString>
          <CharString index="102">
            hhcurveto
            12 6 -9 -19 return
          </CharString>
          <CharString index="103">
            7 -10 callgsubr
            return
          </CharString>
          <CharString index="104">
            173 -156 -21 92 85 232 -20 hstemhm
            hintmask 01110000
            -8 return
          </CharString>
          <CharString index="105">
            680 510 rmoveto
            7 38 10 8 48 8 17 88 rcurveline
            return
          </CharString>
          <CharString index="106">
            -61 34 -40 51 28 38 16 28 36 vhcurveto
            return
          </CharString>
          <CharString index="107">
            0 69 -141 81 -186 vhcurveto
            return
          </CharString>
          <CharString index="108">
            157 rmoveto
            21 151 return
          </CharString>
          <CharString index="109">
            vvcurveto
            -69 callgsubr
            endchar
          </CharString>
          <CharString index="110">
            0 vvcurveto
            endchar
          </CharString>
          <CharString index="111">
            39 108 -34 44 hhcurveto
            22 4 120 115 2 16 -42 56 rlineto
            -16 hlineto
            0 -64 -58 -30 vhcurveto
            return
          </CharString>
          <CharString index="112">
            0 132 1 87 vhcurveto
            220 1 30 136 rlineto
            return
          </CharString>
          <CharString index="113">
            194 160 -7 0 hvcurveto
            -26 callsubr
            30 97 0 vvcurveto
            -11 15 -129 -9 rlineto
            return
          </CharString>
          <CharString index="114">
            -3 rlineto
            -10 -65 -12 -65 0 vvcurveto
            9 -12 165 12 12 11 rlineto
            0 3 53 6 61 vhcurveto
            return
          </CharString>
          <CharString index="115">
            -14 -63 rmoveto
            69 42 56 56 40 -21 37 -59 -65 -45 -48 -61 -48 27 -32 52 hvcurveto
            167 return
          </CharString>
          <CharString index="116">
            rmoveto
            -214 hlineto
            -23 -105 8 -19 rlineto
            hintmask 01100000
            127 116 1 120 hhcurveto
            27 106 return
          </CharString>
          <CharString index="117">
            139 304 142 48 -20 hstem
            return
          </CharString>
          <CharString index="118">
            hhcurveto
            23 18 -10 -30 35 hvcurveto
            18 3 rlineto
            14 22 26 80 20 vvcurveto
            12 -44 11 -50 return
          </CharString>
          <CharString index="119">
            -121 -11 rlineto
            -305 hlineto
            return
          </CharString>
          <CharString index="120">
            111 22 11 25 49 hhcurveto
            return
          </CharString>
          <CharString index="121">
            rmoveto
            -68 -46 -47 -71 -51 29 -30 53 69 46 47 72 51 -29 29 -54 hvcurveto
            return
          </CharString>
          <CharString index="122">
            -20 102 -20 32 -20 hstemhm
            hintmask 11101000
            return
          </CharString>
          <CharString index="123">
            145 14 -21 420 236 return
          </CharString>
          <CharString index="124">
            68 -242 125 484 106 return
          </CharString>
          <CharString index="125">
            -39 -108 34 -44 hhcurveto
            -22 -4 -120 -115 -2 -16 42 -56 rlineto
            return
          </CharString>
          <CharString index="126">
            283 0 87 -71 -21 270 122 return
          </CharString>
          <CharString index="127">
            312 87 rmoveto
            -16 -84 6 -9 rlineto
            0 85 5 83 1 vhcurveto
            return
          </CharString>
          <CharString index="128">
            4 0 hvcurveto
            -7 -5 rlineto
            -18 -106 -30 -133 0 vvcurveto
            83 6 return
          </CharString>
          <CharString index="129">
            139 340 131 hstem
            return
          </CharString>
          <CharString index="130">
            118 255 123 return
          </CharString>
          <CharString index="131">
            -19 callgsubr
            19 84 return
          </CharString>
          <CharString index="132">
            -7 -1 rcurveline
            30 182 51 237 42 callsubr
            return
          </CharString>
          <CharString index="133">
            vhcurveto
            -14 34 -18 3 rlineto
            -24 -26 -4 -2 -3 hhcurveto
            endchar
          </CharString>
          <CharString index="134">
            123 -28 callgsubr
            -10 -3 return
          </CharString>
          <CharString index="135">
            -31 -12 23 callsubr
            return
          </CharString>
          <CharString index="136">
            131 -4 11 rlineto
            return
          </CharString>
          <CharString index="137">
            hvcurveto
            -10 -66 -12 -69 0 vvcurveto
            8 -12 166 12 return
          </CharString>
          <CharString index="138">
            36 -20 18 -36 -51 -33 -31 -52 -35 20 -21 37 return
          </CharString>
          <CharString index="139">
            63 -21 380 -20 hstem
            return
          </CharString>
          <CharString index="140">
            1 -8 -58 11 -10 rlineto
            return
          </CharString>
          <CharString index="141">
            -129 9 -21 return
          </CharString>
          <CharString index="142">
            2 callgsubr
            39 73 22 85 19 21 26 return
          </CharString>
          <CharString index="143">
            -9 133 18 rlineto
            0 7 69 9 72 vhcurveto
            return
          </CharString>
          <CharString index="144">
            hhcurveto
            -240 -11 rmoveto
            -8 -6 return
          </CharString>
          <CharString index="145">
            -15 -52 -11 rlinecurve
            -18 -85 rlineto
            return
          </CharString>
          <CharString index="146">
            -35 -135 8 -13 rlineto
            0 return
          </CharString>
          <CharString index="147">
            -34 -135 7 -13 rlineto
            0 return
          </CharString>
          <CharString index="148">
            rlineto
            150 hlineto
            25 113 return
          </CharString>
          <CharString index="149">
            0 vvcurveto
            -15 21 rlineto
            return
          </CharString>
          <CharString index="150">
            hlineto
            9 80 rlineto
            62 8 18 22 43 hhcurveto
            return
          </CharString>
          <CharString index="151">
            vhcurveto
            20 -103 rlineto
            5 5 1 5 hhcurveto
            31 return
          </CharString>
          <CharString index="152">
            -8 rlineto
            0 -26 -154 -34 -145 vhcurveto
            return
          </CharString>
        <CharString name=".notdef">
          -296 endchar
        </CharString>
        <CharString name="A">
          -34 callsubr
          200 -20 -101 callgsubr
          -254 325 -10 callsubr
        </CharString>
        <CharString name="AE">
          12 callgsubr
          12 -20 hstemhm
          hintmask 10010000
          20 callsubr
          hintmask 01010000
          6 callsubr
          hintmask 10001100
          -42 callgsubr
          hintmask 10001010
          -11 16 rlineto
          hintmask 00110000
          -36 -5 -160 -6 -143 -1 rrcurveto
          -20 callsubr
          -42 callsubr
          hintmask 10001100
          30 callgsubr
          endchar
        </CharString>
        <CharString name="AEacute">
          12 callgsubr
          288 -20 hstemhm
          hintmask 10010010
          20 callsubr
          hintmask 01010010
          6 callsubr
          hintmask 10001110
          -42 callgsubr
          -11 16 -36 -5 -160 -6 -143 -1 rlinecurve
          -20 callsubr
          hintmask 00101110
          -42 callsubr
          30 callgsubr
          335 506 -98 callgsubr
          endchar
        </CharString>
        <CharString name="Aacute">
          -34 callsubr
          417 -20 -101 callgsubr
          -254 325 rmoveto
          22 hlineto
          10 -175 rlineto
          -1 -21 -13 -1 -15 hhcurveto
          -48 hlineto
          277 461 -99 callsubr
        </CharString>
        <CharString name="Abreve">
          -34 callsubr
          237 135 70 -20 hstemhm
          hintmask 01111000
          -106 callsubr
          hintmask 10111000
          7 -9 rlineto
          hintmask 01111000
          -76 callsubr
          -188 677 -62 callsubr
          -66 -352 -10 callsubr
        </CharString>
        <CharString name="Acircumflex">
          -34 callsubr
          hstemhm
          hintmask 01100000
          -106 callsubr
          hintmask 10100000
          7 -9 rlineto
          hintmask 01100000
          -56 callsubr
          -32 407 -90 callsubr
        </CharString>
        <CharString name="Adieresis">
          -34 callsubr
          237 167 -101 callgsubr
          -254 325 rmoveto
          22 hlineto
          10 -175 rlineto
          -1 -21 -13 -1 -15 hhcurveto
          -48 hlineto
          208 394 -92 callsubr
        </CharString>
        <CharString name="Agrave">
          -34 callsubr
          417 -20 -101 callgsubr
          -342 593 rmoveto
          0 130 -24 124 -31 vhcurveto
          19 13 21 71 rlineto
          -123 46 -126 54 6 callgsubr
          -5 -36 -108 rlineto
          95 -284 -10 callsubr
        </CharString>
        <CharString name="Amacron">
          -34 callsubr
          237 122 6 -20 -97 callgsubr
          hintmask 01101000
          -56 callsubr
          277 522 rmoveto
          hintmask 01110000
          -88 callsubr
          endchar
        </CharString>
        <CharString name="Aogonek">
          -242 87 174 -21 22 -21 479 -20 200 -20 hstemhm
          hintmask 11011000
          610 -130 -44 callsubr
          24 11 22 61 73 vhcurveto
          24 21 -1 0 hvcurveto
          18 79 -6 10 -27 4 -14 17 -6 46 rlinecurve
          -14 108 -48 385 0 vvcurveto
          -14 12 -267 -16 -211 -502 -13 -31 -19 -18 -23 -6 rlinecurve
          -17 -87 rlineto
          hintmask 10111000
          0 69 1 61 59 91 -3 0 vhcurveto
          18 83 -7 10 rlineto
          -27 hlineto
          -16 -7 4 11 6 2 8 4 13 hvcurveto
          13 44 rlineto
          0 59 5 18 8 65 -2 0 vhcurveto
          -57 vlineto
          -23 -10 -5 -56 -6 vhcurveto
          -16 -84 7 -9 rlineto
          0 95 5 93 vhcurveto
          16 hlineto
          -85 -81 20 callgsubr
          -292 648 -10 callsubr
        </CharString>
        <CharString name="Aring">
          -34 callsubr
          224 210 -72 72 -101 callgsubr
          -206 529 -16 callsubr
          -48 -204 -72 callgsubr
          129 451 rmoveto
          -14 -19 7 24 hvcurveto
          hintmask 01101000
          21 12 16 25 22 12 -11 -19 -31 -25 -7 -13 vhcurveto
          endchar
        </CharString>
        <CharString name="Aringacute">
          -34 callsubr
          202 189 -65 65 167 -20 hstemhm
          hintmask 01110100
          -106 callsubr
          hintmask 10110100
          7 -9 rlineto
          hintmask 01101100
          -56 callsubr
          123 422 15 callgsubr
          hintmask 01110100
          8 callsubr
          255 -6 callsubr
        </CharString>
        <CharString name="Atilde">
          -34 callsubr
          241 -60 callsubr
          hintmask 01110010
          -106 callsubr
          hintmask 10110010
          7 -9 rlineto
          hintmask 01101010
          -56 callsubr
          -2 374 rmoveto
          0 48 58 25 vhcurveto
          hintmask 01110010
          -47 callsubr
          hintmask 01100110
          -31 callsubr
        </CharString>
        <CharString name="B">
          214 -11 125 -93 -21 528 126 -7 42 callgsubr
          160 hmoveto
          hintmask 10100000
          30 107 -7 -4 23 hvcurveto
          204 105 75 146 58 -36 46 -68 29 hvcurveto
          80 52 34 52 68 vvcurveto
          88 -79 51 -136 vhcurveto
          hintmask 01010000
          0 -149 -7 -32 -31 -136 2 0 vhcurveto
          -21 -80 10 -12 rlineto
          0 22 2 12 16 7 -16 -30 -3 vhcurveto
          -45 -357 -6 -48 -17 -16 -51 -9 rlinecurve
          -20 -90 rlineto
          0 118 7 62 vhcurveto
          201 260 rmoveto
          33 -12 17 -23 -30 vvcurveto
          hintmask 10100000
          -52 -29 -29 -50 -49 -19 14 32 5 vhcurveto
          17 100 rlineto
          18 129 rmoveto
          0 12 81 10 44 vhcurveto
          11 2 4 3 13 hhcurveto
          56 26 -19 -39 -61 -49 -31 0 -22 -52 11 0 hvcurveto
          endchar
        </CharString>
        <CharString name="C">
          -7 callgsubr
          -96 callsubr
          endchar
        </CharString>
        <CharString name="Cacute">
          -7 callgsubr
          216 -20 -96 callsubr
          236 773 -99 callsubr
        </CharString>
        <CharString name="Ccaron">
          -7 callgsubr
          236 -20 -96 callsubr
          269 899 -93 callgsubr
        </CharString>
        <CharString name="Ccedilla">
          151 24 callgsubr
          128 140 391 138 hstem
          216 -89 callsubr
          8 27 rlineto
          112 5 85 32 0 vvcurveto
          15 16 rlineto
          11 96 26 117 0 vvcurveto
          -155 -10 rlineto
          -92 -19 -18 -24 -49 hhcurveto
          -49 -19 38 100 182 28 71 73 42 24 -20 -36 -18 -11 -57 0 hvcurveto
          156 9 rlineto
          22 122 32 92 0 vvcurveto
          -6 20 rlineto
          0 -139 26 -83 -240 -128 -139 -261 -161 81 -95 145 -12 vhcurveto
          endchar
        </CharString>
        <CharString name="Ccircumflex">
          -7 callgsubr
          275 -20 -96 callsubr
          -38 727 -105 callsubr
        </CharString>
        <CharString name="Cdotaccent">
          -7 callgsubr
          24 199 -96 callsubr
          103 694 -54 callsubr
          -53 -69 -46 -47 -72 -51 29 -29 54 hvcurveto
          endchar
        </CharString>
        <CharString name="D">
          227 -12 125 -113 113 413 127 -6 -6 callgsubr
          279 -35 callsubr
          hintmask 01010000
          -30 callgsubr
          hintmask 10100000
          -46 callgsubr
          10 46 310 7 34 hvcurveto
          21 4 5 6 14 hhcurveto
          endchar
        </CharString>
        <CharString name="Dcaron">
          227 -12 125 -113 113 413 127 -6 -20 268 34 callgsubr
          279 -35 callsubr
          hintmask 01011000
          -30 callgsubr
          hintmask 10101000
          -46 callgsubr
          10 46 310 7 34 hvcurveto
          21 4 5 6 14 hhcurveto
          207 362 -93 callgsubr
        </CharString>
        <CharString name="Dcroat">
          -78 callsubr
        </CharString>
        <CharString name="Delta">
          229 0 136 523 -20 hstem
          -5 hmoveto
          618 hlineto
          10 7 rlineto
          -51 293 -43 359 0 vvcurveto
          -10 hlineto
          -269 -17 -266 -629 rlineto
          381 484 rmoveto
          16 -361 rlineto
          -166 hlineto
          126 361 rlineto
          endchar
        </CharString>
        <CharString name="E">
          -76 callgsubr
          12 34 callgsubr
          269 151 rmoveto
          22 9 53 5 34 vhcurveto
          2 18 27 4 28 hhcurveto
          44 71 -3 0 hvcurveto
          28 115 -10 14 rlineto
          0 -78 -6 -29 vhcurveto
          -27 -33 1 -19 hhcurveto
          20 113 rlineto
          22 4 5 5 26 hhcurveto
          66 20 -8 -35 -17 -8 -32 0 hvcurveto
          140 9 rlineto
          16 94 31 105 0 vvcurveto
          hintmask 10100010
          -11 16 rlineto
          hintmask 01100100
          -7 -55 -127 -5 -120 hhcurveto
          -90 -140 3 0 hvcurveto
          -19 -79 10 -14 rlineto
          -81 callgsubr
          hintmask 10110000
          -14 callsubr
          102 153 158 -7 0 vhcurveto
          -26 callsubr
          30 97 0 vvcurveto
          -11 15 -129 -9 rlineto
          -90 -23 -19 -16 -80 hhcurveto
          -30 -10 6 30 hvcurveto
          endchar
        </CharString>
        <CharString name="Eacute">
          -76 callgsubr
          228 -20 -102 callgsubr
          hintmask 10110010
          -14 callsubr
          102 153 158 -7 0 vhcurveto
          -26 callsubr
          30 97 0 vvcurveto
          -11 15 -129 -9 rlineto
          -90 -23 -19 -16 -80 hhcurveto
          -30 -10 6 30 hvcurveto
          247 611 -99 callsubr
        </CharString>
        <CharString name="Ebreve">
          -76 callgsubr
          43 135 70 -20 hstemhm
          hintmask 10101011
          -105 callgsubr
          hintmask 01100111
          -81 callgsubr
          hintmask 10110011
          -14 callsubr
          102 153 158 -7 0 vhcurveto
          -26 callsubr
          30 97 0 vvcurveto
          -11 15 -129 -9 rlineto
          -90 -23 -19 -16 -80 hhcurveto
          -30 -10 6 30 hvcurveto
          105 674 -95 callsubr
          endchar
        </CharString>
        <CharString name="Ecaron">
          -76 callgsubr
          248 -20 -102 callgsubr
          hintmask 10110010
          -14 callsubr
          102 153 158 -7 0 vhcurveto
          -26 callsubr
          30 97 0 vvcurveto
          -11 15 -129 -9 rlineto
          -90 -23 -19 -16 -80 hhcurveto
          -30 -10 6 30 hvcurveto
          280 737 -93 callgsubr
        </CharString>
        <CharString name="Ecircumflex">
          -76 callgsubr
          hstemhm
          hintmask 10101000
          -105 callgsubr
          hintmask 01100100
          -81 callgsubr
          hintmask 10110000
          -14 callsubr
          102 153 158 -7 0 vhcurveto
          -26 callsubr
          30 97 0 vvcurveto
          -11 15 -129 -9 rlineto
          -90 -23 -19 -16 -80 hhcurveto
          -30 -10 6 30 hvcurveto
          -42 557 -90 callsubr
        </CharString>
        <CharString name="Edieresis">
          -76 callgsubr
          48 167 -102 callgsubr
          hintmask 10110010
          -14 callsubr
          102 153 158 -7 0 vhcurveto
          -26 callsubr
          30 97 0 vvcurveto
          -11 15 -129 -9 rlineto
          -90 -23 -19 -16 -80 hhcurveto
          -30 -10 6 30 hvcurveto
          198 544 -92 callsubr
        </CharString>
        <CharString name="Edotaccent">
          -76 callgsubr
          36 199 -102 callgsubr
          hintmask 10110010
          -14 callsubr
          102 153 158 -7 0 vhcurveto
          -26 callsubr
          30 97 0 vvcurveto
          -11 15 -129 -9 rlineto
          -90 -23 -19 -16 -80 hhcurveto
          -30 -10 6 30 hvcurveto
          104 532 -54 callsubr
          -53 -69 -46 -47 -72 -51 29 -29 54 hvcurveto
          endchar
        </CharString>
        <CharString name="Egrave">
          -76 callgsubr
          228 -20 -102 callgsubr
          hintmask 10110010
          -14 callsubr
          102 153 158 -7 0 vhcurveto
          -26 callsubr
          30 97 0 vvcurveto
          -11 15 -129 -9 rlineto
          -90 -23 -19 -16 -80 hhcurveto
          -30 -10 6 30 hvcurveto
          -48 595 rmoveto
          0 130 -24 124 -31 vhcurveto
          19 13 21 71 rlineto
          -123 46 -126 54 6 callgsubr
          -5 -36 -108 rlineto
          endchar
        </CharString>
        <CharString name="Emacron">
          -76 callgsubr
          48 122 6 -20 -102 callgsubr
          hintmask 10110001
          -14 callsubr
          102 153 158 -7 0 vhcurveto
          -26 callsubr
          30 97 0 vvcurveto
          -11 15 -129 -9 rlineto
          -90 -23 -19 -16 -80 hhcurveto
          -30 -10 6 30 hvcurveto
          267 672 rmoveto
          hintmask 10110010
          -88 callsubr
          endchar
        </CharString>
        <CharString name="Eng">
          282 -151 -21 172 83 564 -20 25 -20 hstemhm
          hintmask 11100000
          215 647 rmoveto
          hintmask 11010000
          -54 -90 5 0 hvcurveto
          -15 -77 10 -14 59 -7 11 -11 -5 -44 rlinecurve
          -55 -356 -6 -41 -18 -19 -39 -5 rlinecurve
          -21 -86 rlineto
          0 81 8 38 79 99 -19 callgsubr
          20 82 -7 8 rlineto
          0 -23 -3 -11 -28 -8 13 37 4 vhcurveto
          22 198 rlineto
          14 hlineto
          0 71 -143 84 -188 vhcurveto
          -20 -46 -35 -36 -51 -26 -4 -15 rcurveline
          36 -49 169 44 82 77 22 136 rlinecurve
          61 416 6 41 16 16 43 6 rlinecurve
          15 87 rlineto
          hintmask 11100000
          0 -86 -3 -45 -1 vhcurveto
          -29 -133 4 0 hvcurveto
          -14 -79 3 -10 rlineto
          0 24 1 6 24 7 -10 -33 -4 vhcurveto
          -21 -202 rlineto
          -14 hlineto
          0 -82 166 -68 167 vhcurveto
          0 -69 -4 -51 vhcurveto
          endchar
        </CharString>
        <CharString name="Eogonek">
          153 -242 87 155 115 151 120 141 120 -88 88 12 -20 hstemhm
          hintmask 11110000
          500 -130 -44 callsubr
          24 10 21 59 71 vhcurveto
          19 -1 12 -1 0 vvcurveto
          -26 callsubr
          30 97 0 vvcurveto
          -11 15 -129 -9 rlineto
          -90 -23 -19 -16 -80 hhcurveto
          -30 -10 6 30 22 9 53 5 34 hvcurveto
          2 18 27 4 28 hhcurveto
          44 71 -3 0 hvcurveto
          28 115 -10 14 rlineto
          0 -78 -6 -29 vhcurveto
          -27 -33 1 -19 hhcurveto
          20 113 rlineto
          22 4 5 5 26 hhcurveto
          66 20 -8 -35 -17 -8 -32 0 hvcurveto
          140 9 rlineto
          16 94 31 105 0 vvcurveto
          hintmask 11100100
          -11 16 rlineto
          hintmask 11101000
          -7 -55 -127 -5 -120 hhcurveto
          -90 -140 3 0 hvcurveto
          -19 -79 10 -14 rlineto
          -81 callgsubr
          -14 callsubr
          102 73 74 -1 -2 57 vhcurveto
          -83 -80 -18 -36 -43 3 callgsubr
        </CharString>
        <CharString name="Eth">
          -78 callsubr
        </CharString>
        <CharString name="Euro">
          106 -8 107 -107 202 -34 75 38 75 -40 205 -106 106 hstem
          360 237 rmoveto
          -113 -4 rlineto
          -1 hlineto
          14 1 14 1 12 vhcurveto
          118 1 15 68 -7 8 -113 -4 rlineto
          42 14 25 19 38 hhcurveto
          37 21 -16 -29 -14 -8 -43 0 hvcurveto
          122 7 rlineto
          18 94 25 70 0 vvcurveto
          -5 16 rlineto
          0 -113 21 -68 -143 -96 -58 -109 -41 vhcurveto
          -67 hlineto
          -17 -67 7 -6 rlineto
          59 hlineto
          -2 -13 -1 -14 -13 vvcurveto
          -60 hlineto
          -17 -67 7 -6 rlineto
          72 hlineto
          -109 16 76 -59 123 hhcurveto
          103 81 29 0 hvcurveto
          12 12 rlineto
          9 74 21 91 0 vvcurveto
          -122 -8 rlineto
          -72 -16 -18 -19 -42 hhcurveto
          -34 -20 17 44 -7 hvcurveto
          103 1 14 68 rlineto
          endchar
        </CharString>
        <CharString name="F">
          107 0 115 -104 -21 259 120 71 207 -120 120 -88 88 12 34 callgsubr
          281 243 rmoveto
          2 17 28 4 28 hhcurveto
          43 68 -3 0 hvcurveto
          28 115 -11 14 rlineto
          0 -74 -6 -28 vhcurveto
          -80 1 23 130 rlineto
          22 4 5 5 26 hhcurveto
          47 16 -10 -33 -17 -7 -31 0 hvcurveto
          140 8 rlineto
          15 92 26 107 0 vvcurveto
          hintmask 10100010
          -11 16 rlineto
          hintmask 01100100
          -7 -50 -115 -5 -109 hhcurveto
          -90 -140 3 0 hvcurveto
          -19 -79 10 -10 callgsubr
          15 2 10 21 4 -11 -43 -5 vhcurveto
          -43 -335 -8 -60 -16 -20 -49 -8 rlinecurve
          -20 -92 rlineto
          hintmask 10110000
          -14 callsubr
          103 45 113 -3 0 vhcurveto
          26 108 -14 18 rlineto
          0 -26 -8 -30 -33 -6 12 48 6 vhcurveto
          endchar
        </CharString>
        <CharString name="G">
          -18 callsubr
          hstem
          279 -11 rmoveto
          159 81 33 0 hvcurveto
          14 16 rlineto
          0 -1 18 20 vvcurveto
          18 11 85 9 47 vhcurveto
          6 36 13 21 29 18 -3 58 rcurveline
          -2 -68 -3 -40 vhcurveto
          -150 hlineto
          -23 -95 -4 callsubr
          15 1 16 23 5 -9 -32 -4 vhcurveto
          -7 -63 rlineto
          0 -22 -12 -33 -49 -19 38 100 182 28 71 73 42 24 -17 -36 -18 -11 -46 0 vhcurveto
          156 9 rlineto
          22 122 32 78 0 vvcurveto
          -6 20 rlineto
          0 -139 26 -83 -240 -128 -139 -261 -33 callgsubr
          endchar
        </CharString>
        <CharString name="Gbreve">
          -18 callsubr
          36 135 70 -20 hstem
          279 -11 rmoveto
          159 81 33 0 hvcurveto
          14 16 rlineto
          0 -1 18 20 vvcurveto
          18 11 85 9 47 vhcurveto
          6 36 13 21 29 18 -3 58 rcurveline
          -2 -68 -3 -40 vhcurveto
          -150 hlineto
          -23 -95 -4 callsubr
          15 1 16 23 5 -9 -32 -4 vhcurveto
          -7 -63 rlineto
          0 -22 -12 -33 -49 -19 38 100 182 28 71 73 42 24 -17 -36 -18 -11 -46 0 vhcurveto
          156 9 rlineto
          22 122 32 78 0 vvcurveto
          -6 20 rlineto
          0 -139 26 -83 -240 -128 -139 -261 -33 callgsubr
          114 841 -62 callsubr
          endchar
        </CharString>
        <CharString name="Gcircumflex">
          -18 callsubr
          275 -20 hstem
          279 -11 rmoveto
          159 81 33 0 hvcurveto
          14 16 rlineto
          0 -1 18 20 vvcurveto
          18 11 85 9 47 vhcurveto
          6 36 13 21 29 18 -3 58 rcurveline
          -2 -68 -3 -40 vhcurveto
          -150 hlineto
          -23 -95 -4 callsubr
          15 1 16 23 5 -9 -32 -4 vhcurveto
          -7 -63 rlineto
          0 -22 -12 -33 -49 -19 38 100 182 28 71 73 42 24 -17 -36 -18 -11 -46 0 vhcurveto
          156 9 rlineto
          22 122 32 78 0 vvcurveto
          -6 20 rlineto
          0 -139 26 -83 -240 -128 -139 -261 -33 callgsubr
          -31 727 -105 callsubr
        </CharString>
        <CharString name="Gcommaaccent">
          185 -324 -21 334 141 0 116 108 54 113 138 hstemhm
          hintmask 11011000
          279 -11 rmoveto
          159 81 33 0 hvcurveto
          14 16 rlineto
          0 -1 18 20 vvcurveto
          18 11 85 9 47 vhcurveto
          6 36 13 21 29 18 -3 58 rcurveline
          -2 -68 -3 -40 vhcurveto
          -150 hlineto
          -23 -95 7 -14 rlineto
          hintmask 10111000
          0 15 1 16 23 5 -9 -32 -4 vhcurveto
          -7 -63 rlineto
          0 -22 -12 -33 -49 -19 38 100 182 28 71 73 42 24 -17 -36 -18 -11 -46 0 vhcurveto
          156 9 rlineto
          22 122 32 78 0 vvcurveto
          -6 20 rlineto
          0 -139 26 -83 -240 -128 -139 -261 vhcurveto
          hintmask 11011000
          -33 callgsubr
          -100 -81 -104 callgsubr
          endchar
        </CharString>
        <CharString name="Gdotaccent">
          -18 callsubr
          24 199 hstem
          279 -11 rmoveto
          159 81 33 0 hvcurveto
          14 16 rlineto
          0 -1 18 20 vvcurveto
          18 11 85 9 47 vhcurveto
          6 36 13 21 29 18 -3 58 rcurveline
          -2 -68 -3 -40 vhcurveto
          -150 hlineto
          -23 -95 -4 callsubr
          15 1 16 23 5 -9 -32 -4 vhcurveto
          -7 -63 rlineto
          0 -22 -12 -33 -49 -19 38 100 182 28 71 73 42 24 -17 -36 -18 -11 -46 0 vhcurveto
          156 9 rlineto
          22 122 32 78 0 vvcurveto
          -6 20 rlineto
          0 -139 26 -83 -240 -128 -139 -261 -33 callgsubr
          110 694 -54 callsubr
          -53 -69 -46 -47 -72 -51 29 -29 54 hvcurveto
          endchar
        </CharString>
        <CharString name="H">
          19 callsubr
          172 88 5 34 callgsubr
          -2 callsubr
          hintmask 10110000
          -33 callsubr
          hintmask 10101000
          18 90 rlineto
          hintmask 01110000
          0 -140 -5 -58 vhcurveto
          -126 hlineto
          -17 -75 -57 callgsubr
          -43 -346 19 callgsubr
          hintmask 10110000
          -79 callgsubr
          37 39 259 16 81 vhcurveto
          endchar
        </CharString>
        <CharString name="Hbar">
          19 callsubr
          50 66 56 88 5 -20 hstemhm
          hintmask 10110100
          -2 callsubr
          hintmask 10111000
          0 -92 -4 -55 -1 vhcurveto
          -186 hlineto
          -17 -75 -4 callsubr
          15 1 11 27 6 -11 -40 -5 vhcurveto
          -1 -5 rlineto
          -50 hlineto
          -101 hlineto
          1 7 6 36 10 8 41 8 rlinecurve
          hintmask 10110100
          18 90 rlineto
          hintmask 01111000
          0 -140 -5 -58 vhcurveto
          -126 hlineto
          -17 -75 -57 callgsubr
          -1 -5 rlineto
          -53 -39 1 0 hvcurveto
          -8 -58 11 -10 rlineto
          81 hlineto
          -34 -274 19 callgsubr
          hintmask 10111000
          -79 callgsubr
          29 24 166 18 109 vhcurveto
          96 1 5 55 -15 15 rlineto
          0 -30 -1 -44 -1 vhcurveto
          1 1 2 1 vvcurveto
          -284 -73 rmoveto
          68 hlineto
          -6 -48 rlineto
          -2 -17 -18 -1 -44 hhcurveto
          -77 3 8 48 rlineto
          endchar
        </CharString>
        <CharString name="Hcircumflex">
          19 callsubr
          172 88 313 -20 hstemhm
          hintmask 01111000
          -2 callsubr
          -33 callsubr
          18 90 rlineto
          0 -140 -5 -58 vhcurveto
          -126 hlineto
          -17 -75 -57 callgsubr
          -43 -346 19 callgsubr
          hintmask 10111000
          -79 callgsubr
          37 39 259 16 81 vhcurveto
          -396 232 -105 callsubr
        </CharString>
        <CharString name="I">
          -37 callgsubr
          5 -20 hstemhm
          hintmask 10010000
          323 510 rmoveto
          8 37 8 8 45 7 18 90 rcurveline
          hintmask 10100000
          0 -129 -5 -41 -31 callgsubr
          8 -10 callgsubr
          14 -68 callgsubr
          -6 -55 -12 -15 -54 -12 rlinecurve
          -18 -85 rlineto
          hintmask 01100000
          -87 callgsubr
          endchar
        </CharString>
        <CharString name="IJ">
          255 -143 -21 185 -21 559 88 8 -20 hstemhm
          hintmask 11100000
          -100 callsubr
          -87 callgsubr
          98 -378 -51 callgsubr
          rrcurveto
          hintmask 11010000
          20 93 rlineto
          0 -92 -6 -97 -1 vhcurveto
          hintmask 11100000
          -16 callgsubr
          endchar
        </CharString>
        <CharString name="Iacute">
          -37 callgsubr
          228 -20 -91 callgsubr
          74 252 -99 callsubr
        </CharString>
        <CharString name="Ibreve">
          -37 callgsubr
          48 135 70 -20 hstemhm
          hintmask 10111000
          -100 callsubr
          hintmask 01111000
          -87 callgsubr
          -69 320 -62 callsubr
          endchar
        </CharString>
        <CharString name="Icircumflex">
          -37 callgsubr
          hstemhm
          hintmask 10100000
          -100 callsubr
          hintmask 01100000
          -87 callgsubr
          -235 198 -90 callsubr
        </CharString>
        <CharString name="Idieresis">
          -37 callgsubr
          48 167 -91 callgsubr
          5 185 -92 callsubr
        </CharString>
        <CharString name="Idotaccent">
          -37 callgsubr
          36 199 -91 callgsubr
          -89 173 -54 callsubr
          -53 -69 -46 -47 -72 -51 29 -29 54 hvcurveto
          endchar
        </CharString>
        <CharString name="Igrave">
          -37 callgsubr
          228 -20 -91 callgsubr
          -234 236 rmoveto
          0 130 -24 124 -31 vhcurveto
          19 13 21 71 rlineto
          -123 46 -126 54 6 callgsubr
          -5 -36 -108 rlineto
          endchar
        </CharString>
        <CharString name="Imacron">
          -37 callgsubr
          48 122 6 -20 -79 callsubr
          hintmask 01101000
          -87 callgsubr
          74 313 rmoveto
          hintmask 10110000
          -88 callsubr
          endchar
        </CharString>
        <CharString name="Iogonek">
          -74 -242 87 155 87 472 88 5 -14 callgsubr
          291 -130 -44 callsubr
          24 11 22 61 73 vhcurveto
          24 -1 22 -1 0 vvcurveto
          19 84 -6 10 rlineto
          0 -11 -3 -20 -18 -7 8 30 39 39 252 17 94 vhcurveto
          8 37 8 8 45 7 18 90 rcurveline
          hintmask 11100000
          0 -129 -5 -41 -31 callgsubr
          8 -10 callgsubr
          14 -68 callgsubr
          -6 -55 -12 -15 -54 -12 rlinecurve
          -18 -85 rlineto
          0 102 5 62 vhcurveto
          41 hlineto
          -86 -82 20 callgsubr
          endchar
        </CharString>
        <CharString name="Itilde">
          -37 callgsubr
          77 -60 callsubr
          hintmask 10110010
          -100 callsubr
          hintmask 01101010
          -87 callgsubr
          -205 190 -7 callsubr
          hintmask 10110010
          -75 callgsubr
          hintmask 10100110
          -60 callgsubr
          endchar
        </CharString>
        <CharString name="J">
          -104 -143 -21 723 88 8 -6 callgsubr
          62 132 -51 callgsubr
          20 93 rcurveline
          0 -92 -6 -97 -1 vhcurveto
          hintmask 11000000
          -16 callgsubr
          endchar
        </CharString>
        <CharString name="Jcircumflex">
          -104 -143 -21 723 88 287 -20 hstem
          62 132 -51 callgsubr
          20 93 rcurveline
          0 -92 -6 -97 -1 vhcurveto
          -16 callgsubr
          -4 208 -105 callsubr
        </CharString>
        <CharString name="K">
          243 0 87 -82 -21 663 -20 25 -20 hstemhm
          hintmask 10010000
          -40 callsubr
          hintmask 01100000
          -53 callsubr
          hintmask 10010000
          -7 15 rlineto
          hintmask 10100000
          -13 callgsubr
          endchar
        </CharString>
        <CharString name="Kcommaaccent">
          243 -324 -21 345 87 560 -20 25 -14 callgsubr
          -40 callsubr
          hintmask 11100000
          -53 callsubr
          hintmask 11010000
          -7 15 rlineto
          hintmask 11100000
          -13 callgsubr
          -90 -439 -104 callgsubr
          endchar
        </CharString>
        <CharString name="L">
          110 36 callgsubr
          hintmask 10010000
          189 hmoveto
          -82 callgsubr
          23 98 rcurveline
          hintmask 01100000
          -32 callsubr
          -42 -338 -58 callsubr
          hintmask 10100000
          -14 callsubr
          101 vhcurveto
          endchar
        </CharString>
        <CharString name="Lacute">
          110 0 115 -104 -21 569 88 228 -20 hstemhm
          hintmask 10110000
          189 hmoveto
          -82 callgsubr
          23 98 rcurveline
          -32 callsubr
          -42 -338 -7 -60 -17 -20 -49 -8 rlinecurve
          hintmask 01110000
          -20 -92 rlineto
          hintmask 10110000
          -14 callsubr
          101 vhcurveto
          212 762 -99 callsubr
        </CharString>
        <CharString name="Lcaron">
          148 36 callgsubr
          hintmask 10100000
          603 647 rmoveto
          -134 -10 callgsubr
          11 -118 -2 -120 vhcurveto
          19 -6 73 25 rlineto
          26 112 16 109 0 vvcurveto
          -423 -635 rmoveto
          -82 callgsubr
          rrcurveto
          hintmask 10010000
          23 98 rlineto
          hintmask 01100000
          -32 callsubr
          -42 -338 -58 callsubr
          hintmask 10100000
          -14 callsubr
          101 vhcurveto
          endchar
        </CharString>
        <CharString name="Lcommaaccent">
          110 -324 -21 345 115 444 88 5 -14 callgsubr
          189 hmoveto
          -82 callgsubr
          23 98 rcurveline
          hintmask 11100000
          -32 callsubr
          -42 -338 -58 callsubr
          -14 callsubr
          101 vhcurveto
          -57 -92 -104 callgsubr
          endchar
        </CharString>
        <CharString name="Ldot">
          170 0 115 -104 -21 388 199 -18 88 5 34 callgsubr
          189 hmoveto
          -82 callgsubr
          23 98 rcurveline
          hintmask 01010000
          -32 callsubr
          -42 -338 -58 callsubr
          hintmask 10101000
          -14 callsubr
          101 vhcurveto
          308 378 rmoveto
          -80 callgsubr
          endchar
        </CharString>
        <CharString name="Lslash">
          110 36 callgsubr
          hintmask 10010000
          189 hmoveto
          142 144 18 callgsubr
          26 139 30 128 0 vvcurveto
          -10 15 -130 -13 rlineto
          -134 -23 -21 -29 -66 hhcurveto
          -20 -9 9 23 20 9 69 11 74 hvcurveto
          136 68 -31 93 -9 4 -75 -38 11 65 6 35 19 10 68 7 rlinecurve
          23 98 rlineto
          hintmask 01100000
          -32 callsubr
          -20 -156 -92 -46 31 -94 10 -2 36 18 -7 -58 -58 callsubr
          hintmask 10100000
          -14 callsubr
          101 vhcurveto
          endchar
        </CharString>
        <CharString name="M">
          375 0 89 -80 -21 573 87 -1 -20 26 -6 callgsubr
          421 -2 rmoveto
          75 197 68 160 3 8 rrcurveto
          13 hlineto
          0 -20 -186 -6 -45 vhcurveto
          -4 -32 -15 -13 -36 -4 -23 -91 rcurveline
          4 14 160 4 18 hhcurveto
          46 -1 61 -2 0 vvcurveto
          19 86 -6 8 rlineto
          0 -14 -2 -15 -29 -8 22 65 3 vhcurveto
          3 93 7 180 7 61 5 40 11 9 53 2 19 88 rcurveline
          hintmask 10001000
          -7 4 rlineto
          hintmask 10100000
          0 -43 -3 -48 -2 vhcurveto
          hintmask 10010000
          -4 -62 -60 3 -63 hhcurveto
          -49 -145 -67 -169 0 vvcurveto
          -13 hlineto
          0 -21 169 -7 149 vhcurveto
          0 -99 -4 -55 -41 -103 5 0 vhcurveto
          -20 -86 7 -8 rlineto
          50 -5 5 -7 -17 vvcurveto
          -26 -70 -324 -7 -31 vhcurveto
          -10 -44 -17 -18 -36 -4 -19 -90 rcurveline
          1 77 7 39 32 108 -19 callgsubr
          23 86 -8 8 rlineto
          0 -18 -2 -7 -20 -8 9 18 13 33 235 0 vhcurveto
          13 hlineto
          hintmask 01100000
          7 -55 18 -108 29 -212 rrcurveto
          endchar
        </CharString>
        <CharString name="N">
          11 callgsubr
          5 -6 callgsubr
          -46 callsubr
          vhcurveto
          hintmask 10010000
          -73 -73 5 0 hvcurveto
          -87 callsubr
          hintmask 01100000
          0 callsubr
          hintmask 10100000
          -70 callsubr
          endchar
        </CharString>
        <CharString name="Nacute">
          11 callgsubr
          228 -73 callgsubr
          58 429 -99 callsubr
        </CharString>
        <CharString name="Ncaron">
          11 callgsubr
          248 -73 callgsubr
          101 555 -93 callgsubr
        </CharString>
        <CharString name="Ncommaaccent">
          285 -324 -21 345 86 473 88 5 -20 hstemhm
          hintmask 11100000
          -46 callsubr
          vhcurveto
          hintmask 11010000
          -73 -73 5 0 hvcurveto
          -87 callsubr
          0 callsubr
          192 12 74 497 6 41 15 16 42 6 rlinecurve
          16 90 rlineto
          hintmask 11100000
          -1 -82 -2 -55 -55 -109 4 0 vhcurveto
          -15 -81 4 -11 rlineto
          30 hlineto
          23 6 -9 -34 -3 hvcurveto
          -18 -183 rlineto
          -268 -425 -104 callgsubr
          endchar
        </CharString>
        <CharString name="Ntilde">
          11 callgsubr
          52 -60 callsubr
          hintmask 10110010
          -46 callsubr
          -73 -73 5 0 vhcurveto
          -87 callsubr
          hintmask 01110010
          0 callsubr
          hintmask 10101010
          -70 callsubr
          -191 342 rmoveto
          0 48 58 25 vhcurveto
          hintmask 10110010
          -47 callsubr
          hintmask 10100110
          -31 callsubr
        </CharString>
        <CharString name="O">
          -44 callgsubr
          hstem
          -102 callsubr
          endchar
        </CharString>
        <CharString name="OE">
          452 -10 125 -112 112 324 199 -111 111 -111 123 9 -20 hstemhm
          hintmask 10010100
          571 175 rmoveto
          12 85 73 6 rlineto
          44 71 -3 0 hvcurveto
          28 115 -11 14 rlineto
          0 -78 -6 -29 vhcurveto
          -78 1 20 113 rlineto
          22 2 6 5 26 hhcurveto
          69 18 -9 -34 -17 -8 -32 0 hvcurveto
          140 9 rlineto
          16 94 30 105 0 vvcurveto
          -11 16 rlineto
          -12 -92 -135 -9 -86 hhcurveto
          hintmask 10001000
          -89 -80 12 -63 hhcurveto
          -233 -115 -137 -254 -174 102 -95 169 hvcurveto
          hintmask 01100100
          52 74 13 72 hhcurveto
          153 161 -10 0 hvcurveto
          -26 callsubr
          29 97 0 vvcurveto
          -10 15 -130 -9 rlineto
          -90 -22 -19 -16 -80 hhcurveto
          -39 -5 8 52 6 hvcurveto
          -262 -67 rmoveto
          -46 -18 36 91 193 34 100 65 51 24 -30 -59 -7 hvcurveto
          -31 -243 rlineto
          -59 -7 -24 -29 -41 hhcurveto
          endchar
        </CharString>
        <CharString name="Oacute">
          -44 callgsubr
          216 -20 hstem
          -102 callsubr
          245 774 -99 callsubr
        </CharString>
        <CharString name="Obreve">
          -44 callgsubr
          31 135 70 -20 hstem
          -102 callsubr
          89 837 -95 callsubr
          endchar
        </CharString>
        <CharString name="Ocircumflex">
          -44 callgsubr
          hstem
          -102 callsubr
          -58 720 -90 callsubr
        </CharString>
        <CharString name="Odieresis">
          -44 callgsubr
          36 167 hstem
          -102 callsubr
          182 707 -92 callsubr
        </CharString>
        <CharString name="Ograve">
          -44 callgsubr
          216 -20 hstem
          -102 callsubr
          -48 758 rmoveto
          0 130 -24 124 -31 vhcurveto
          19 13 21 71 rlineto
          -123 46 -126 54 6 callgsubr
          -5 -36 -108 rlineto
          endchar
        </CharString>
        <CharString name="Ohungarumlaut">
          -44 callgsubr
          221 -20 hstem
          -102 callsubr
          111 811 -64 callgsubr
          198 15 -64 callgsubr
          endchar
        </CharString>
        <CharString name="Omacron">
          -44 callgsubr
          36 37 callgsubr
          -102 callsubr
          251 835 rmoveto
          hintmask 11100000
          -88 callsubr
          endchar
        </CharString>
        <CharString name="Omega">
          407 14 -21 529 137 hstem
          808 19 rmoveto
          12 92 19 144 0 vvcurveto
          -107 -9 -20 -90 -26 -38 -44 -6 rlinecurve
          -55 -10 rlineto
          110 96 52 103 125 vvcurveto
          141 -109 92 -165 -199 -143 -139 -193 -87 28 -76 55 -61 vhcurveto
          -49 9 -47 6 -16 41 7 96 rlinecurve
          -107 -9 rlineto
          0 -14 -135 -12 -92 vhcurveto
          18 -22 290 6 70 -10 36 81 rlineto
          -25 35 -13 59 75 vvcurveto
          197 28 82 68 47 19 -41 -101 -128 -38 -113 -65 -65 vhcurveto
          17 -81 73 10 282 -6 rlineto
          endchar
        </CharString>
        <CharString name="Oslash">
          200 -96 -21 105 126 408 137 93 -59 callsubr
          endchar
        </CharString>
        <CharString name="Oslashacute">
          200 -96 -21 105 126 408 137 226 -59 callsubr
          193 658 -99 callsubr
        </CharString>
        <CharString name="Otilde">
          -44 callgsubr
          40 -60 callsubr
          hintmask 11010100
          -102 callsubr
          -28 687 rmoveto
          0 48 58 25 vhcurveto
          hintmask 11100100
          -47 callsubr
          hintmask 11001100
          -31 callsubr
        </CharString>
        <CharString name="P">
          158 0 88 -76 -21 537 125 -94 94 -6 -20 hstemhm
          hintmask 01010000
          55 569 rmoveto
          8 -12 rlineto
          0 20 2 15 18 5 -13 -41 -5 vhcurveto
          -42 -337 -7 -56 -18 -21 -48 -8 rlinecurve
          -20 -92 rlineto
          hintmask 10100000
          0 139 9 44 42 120 -19 callgsubr
          20 86 -4 8 rlineto
          0 -18 -2 -13 -40 -7 18 54 7 vhcurveto
          6 48 rlineto
          83 hlineto
          140 135 122 143 75 -47 105 -205 hvcurveto
          hintmask 10001000
          0 -124 -6 -45 vhcurveto
          -140 hlineto
          220 -316 rmoveto
          9 63 11 61 9 51 rrcurveto
          hintmask 10100000
          19 3 2 3 13 hhcurveto
          59 27 -23 -53 -64 -20 -49 -50 -18 hvcurveto
          endchar
        </CharString>
        <CharString name="Q">
          204 -242 170 60 126 408 137 hstem
          273 -12 rmoveto
          -195 174 46 -35 79 hhcurveto
          37 150 101 0 hvcurveto
          -9 68 -10 11 rlineto
          0 -47 -10 -43 -63 -80 35 55 -59 vhcurveto
          3 vlineto
          124 59 66 132 186 vvcurveto
          173 -97 88 -169 -232 -122 -146 -257 -171 96 -93 159 -4 vhcurveto
          37 126 rmoveto
          -43 -20 38 82 204 28 84 67 44 21 -38 -82 -205 -28 -83 -69 hvcurveto
          endchar
        </CharString>
        <CharString name="R">
          -2 callgsubr
          hstemhm
          hintmask 01001000
          -72 callsubr
          hintmask 10000100
          -24 callgsubr
          hintmask 00101000
          -64 callsubr
          hintmask 10010000
          -66 callsubr
          endchar
        </CharString>
        <CharString name="Racute">
          -2 callgsubr
          248 -20 hstemhm
          hintmask 01001010
          -72 callsubr
          hintmask 10000110
          -24 callgsubr
          hintmask 00101010
          -64 callsubr
          hintmask 10010010
          -66 callsubr
          143 418 -99 callsubr
        </CharString>
        <CharString name="Rcaron">
          -2 callgsubr
          268 -20 hstemhm
          hintmask 01001010
          -72 callsubr
          hintmask 10000110
          -24 callgsubr
          hintmask 00101010
          -64 callsubr
          hintmask 10010010
          -66 callsubr
          186 544 -93 callgsubr
        </CharString>
        <CharString name="Rcommaaccent">
          -324 -21 335 98 -67 -21 559 94 -6 -14 callgsubr
          -72 callsubr
          hintmask 11001000
          -24 callgsubr
          hintmask 10110000
          -64 callsubr
          hintmask 11010000
          -66 callsubr
          -176 -436 -104 callgsubr
          endchar
        </CharString>
        <CharString name="S">
          -9 callsubr
          -101 callsubr
          endchar
        </CharString>
        <CharString name="Sacute">
          -9 callsubr
          216 -20 -101 callsubr
          292 774 -99 callsubr
        </CharString>
        <CharString name="Scaron">
          -9 callsubr
          236 -20 -101 callsubr
          325 900 -93 callgsubr
        </CharString>
        <CharString name="Scedilla">
          103 24 callgsubr
          126 -23 callsubr
          hstem
          155 -89 callsubr
          8 27 rlineto
          170 14 102 83 129 vvcurveto
          117 -111 38 -75 36 vhcurveto
          -39 19 -29 18 28 vvcurveto
          28 26 21 37 39 23 -19 -39 -5 -3 -23 0 vhcurveto
          11 -8 118 8 rlineto
          18 90 29 84 0 vvcurveto
          -10 22 rlineto
          0 -86 28 -107 -194 -127 -93 -141 -102 81 -43 71 -34 vhcurveto
          54 -25 47 -20 -35 vvcurveto
          -27 -26 -18 -39 -54 -23 39 63 6 vhcurveto
          -127 -9 rlineto
          -11 -66 -31 -99 0 vvcurveto
          10 -18 rlineto
          0 77 -40 108 -3 vhcurveto
          endchar
        </CharString>
        <CharString name="Scircumflex">
          -9 callsubr
          275 -20 -101 callsubr
          8 728 -105 callsubr
        </CharString>
        <CharString name="Scommaaccent">
          103 -324 -21 333 133 -133 230 303 138 -101 callsubr
          -87 -80 -104 callgsubr
          endchar
        </CharString>
        <CharString name="T">
          145 0 91 -79 -21 535 121 11 42 callgsubr
          -23 callgsubr
          hintmask 10100000
          0 137 9 63 56 143 -6 0 vhcurveto
          -66 callgsubr
          hintmask 10010000
          -11 14 rlineto
          hintmask 10100000
          12 callsubr
          hintmask 10010000
          -49 callgsubr
          hintmask 10100000
          13 callsubr
          endchar
        </CharString>
        <CharString name="Tbar">
          145 0 91 -79 -21 251 66 218 121 11 -20 hstemhm
          hintmask 01110000
          -23 callgsubr
          hintmask 10110000
          0 137 9 63 56 143 -21 callgsubr
          -26 -3 -24 -30 -13 14 36 12 4 39 6 50 vhcurveto
          92 hlineto
          5 55 -15 15 -73 -2 11 79 13 87 8 50 rlinecurve
          48 2 -20 -124 -6 hvcurveto
          125 8 rlineto
          0 13 137 14 117 vhcurveto
          hintmask 10101000
          -11 14 rlineto
          hintmask 10110000
          12 callsubr
          hintmask 10101000
          -49 callgsubr
          hintmask 10110000
          13 callsubr
          -27 -218 -89 33 callsubr
          78 hlineto
          endchar
        </CharString>
        <CharString name="Tcaron">
          145 0 91 -79 -21 535 121 248 -20 hstemhm
          hintmask 01110000
          -23 callgsubr
          hintmask 10110000
          0 137 9 63 56 143 -6 0 vhcurveto
          -66 callgsubr
          -11 14 12 callsubr
          -49 callgsubr
          13 callsubr
          298 362 -93 callgsubr
        </CharString>
        <CharString name="Tcedilla">
          145 24 callgsubr
          138 91 435 121 11 -20 hstemhm
          hintmask 11110000
          194 -89 callsubr
          11 37 rlineto
          66 -2 99 -4 0 vvcurveto
          -66 callgsubr
          hintmask 11101000
          -11 14 rlineto
          hintmask 11110000
          12 callsubr
          hintmask 11101000
          -49 callgsubr
          hintmask 11110000
          13 callsubr
          -44 -358 -8 -62 -19 -16 -80 -7 rlinecurve
          -19 -92 rlineto
          0 102 7 68 2 vhcurveto
          endchar
        </CharString>
        <CharString name="Thorn">
          157 0 87 -71 -21 412 115 37 88 5 34 callgsubr
          325 527 rmoveto
          4 22 7 3 48 10 18 90 rcurveline
          hintmask 01110000
          0 -129 -5 -41 -31 callgsubr
          8 -10 callgsubr
          14 -68 callgsubr
          -6 -56 -14 38 callsubr
          hintmask 10110000
          0 103 5 61 44 130 -28 callgsubr
          -13 -3 -28 -24 -6 5 24 3 vhcurveto
          3 23 rlineto
          69 hlineto
          155 113 87 134 109 -69 53 -146 hvcurveto
          -66 hlineto
          -23 -137 rmoveto
          16 2 7 6 13 hhcurveto
          51 24 -19 -44 -49 -17 -38 -39 -11 hvcurveto
          -9 -24 4 6 -25 hvcurveto
          4 34 10 68 3 27 rrcurveto
          endchar
        </CharString>
        <CharString name="U">
          -43 callsubr
          4 -6 callgsubr
          292 509 rmoveto
          4 32 14 13 34 4 21 93 rcurveline
          hintmask 11000000
          0 -94 -4 -38 -78 -96 3 0 vhcurveto
          -21 -89 2 -4 rlineto
          0 18 2 10 22 3 -9 -45 -5 vhcurveto
          -38 -306 rlineto
          -2 -14 -1 -13 -13 vvcurveto
          -116 73 -55 154 168 90 80 166 22 vhcurveto
          35 282 3 24 6 6 42 14 rlinecurve
          19 90 rlineto
          0 -82 -3 -61 -35 -81 3 0 vhcurveto
          -22 -89 3 -4 rlineto
          0 12 2 9 19 4 -12 -42 -5 vhcurveto
          0 -28 -240 -8 -62 vhcurveto
          -64 -9 -21 -24 -46 hhcurveto
          -40 -20 26 51 1 hvcurveto
          6 1 13 1 9 vhcurveto
          endchar
        </CharString>
        <CharString name="Uacute">
          -43 callsubr
          228 -20 hstem
          -107 callgsubr
          271 542 -99 callsubr
        </CharString>
        <CharString name="Ubreve">
          -43 callsubr
          53 135 70 -20 hstem
          -107 callgsubr
          129 615 -95 callsubr
          endchar
        </CharString>
        <CharString name="Ucircumflex">
          -43 callsubr
          hstem
          -107 callgsubr
          -18 488 -90 callsubr
        </CharString>
        <CharString name="Udieresis">
          -43 callsubr
          48 167 hstem
          -107 callgsubr
          222 475 -92 callsubr
        </CharString>
        <CharString name="Ugrave">
          -43 callsubr
          228 -20 hstem
          -107 callgsubr
          -24 526 rmoveto
          0 130 -24 124 -31 vhcurveto
          19 13 21 71 rlineto
          -123 46 -126 54 6 callgsubr
          -5 -36 -108 rlineto
          endchar
        </CharString>
        <CharString name="Uhungarumlaut">
          -43 callsubr
          233 -20 hstem
          -107 callgsubr
          151 579 -64 callgsubr
          198 15 -64 callgsubr
          endchar
        </CharString>
        <CharString name="Umacron">
          -43 callsubr
          48 37 callgsubr
          -107 callgsubr
          291 603 rmoveto
          hintmask 11100000
          -88 callsubr
          endchar
        </CharString>
        <CharString name="Uogonek">
          172 -242 87 143 127 444 88 4 -20 hstemhm
          hintmask 11100000
          461 -130 -44 callsubr
          30 31 49 68 77 vhcurveto
          54 61 29 62 10 76 35 282 rcurveline
          3 24 6 6 42 14 19 90 rcurveline
          0 -82 -3 -61 -35 -81 3 0 vhcurveto
          -22 -89 3 -4 rlineto
          0 12 2 9 19 4 -12 -42 -5 vhcurveto
          0 -28 -240 -8 -62 vhcurveto
          -64 -9 -21 -24 -46 hhcurveto
          -40 -20 26 51 1 hvcurveto
          5 1 13 1 10 vhcurveto
          41 289 4 32 14 13 34 4 rlinecurve
          hintmask 11010000
          21 93 rlineto
          hintmask 11100000
          0 -94 -4 -38 -78 -96 3 0 vhcurveto
          -21 -89 2 -4 rlineto
          0 18 2 10 22 3 -9 -45 -5 vhcurveto
          -38 -306 rlineto
          -2 -14 -1 -13 -13 vvcurveto
          -116 73 -55 154 25 24 2 4 21 vhcurveto
          -68 -71 -22 -38 -47 10 callgsubr
          endchar
        </CharString>
        <CharString name="Uring">
          -43 callsubr
          35 210 -72 72 hstemhm
          hintmask 11010000
          -107 callgsubr
          143 532 14 callgsubr
          hintmask 11100000
          -16 -70 -16 callsubr
          endchar
        </CharString>
        <CharString name="Utilde">
          -43 callsubr
          77 -60 callsubr
          hintmask 11010100
          -107 callgsubr
          12 480 -61 callgsubr
        </CharString>
        <CharString name="V">
          190 8 -21 660 -20 25 -4 callgsubr
          85 493 rmoveto
          12 -108 41 -398 0 vvcurveto
          280 17 199 502 16 39 8 9 22 7 rlinecurve
          17 87 rlineto
          0 -64 -1 -56 -59 -91 3 0 vhcurveto
          -18 -83 7 -10 rlineto
          24 hlineto
          20 6 -7 -13 -33 -101 -281 -20 -55 hvcurveto
          -22 hlineto
          0 -6 255 84 vvcurveto
          34 12 11 54 7 vhcurveto
          16 84 rlineto
          hintmask 10100000
          -6 9 rlineto
          hintmask 11000000
          0 -94 -5 -94 -53 -81 2 0 vhcurveto
          -18 -79 6 -10 26 -4 11 -18 6 -45 rlinecurve
          endchar
        </CharString>
        <CharString name="W">
          13 callgsubr
          5 -4 callgsubr
          778 4 rmoveto
          188 502 14 36 8 11 23 8 rlinecurve
          17 87 rlineto
          0 -61 -1 -54 -56 -88 3 0 vhcurveto
          -18 -83 6 -10 rlineto
          23 hlineto
          21 4 -3 -14 -22 -75 -236 -43 -114 hvcurveto
          -21 hlineto
          0 -6 254 86 vvcurveto
          34 14 11 52 6 vhcurveto
          17 84 rlineto
          hintmask 10100000
          -7 9 rlineto
          hintmask 11000000
          0 -90 -5 -90 -58 -101 2 0 vhcurveto
          -19 -79 6 -10 rlineto
          44 8 -5 -26 -3 hvcurveto
          -2 -5 -2 -9 -3 -13 -19 -62 -61 -182 -32 -90 rrcurveto
          -21 hlineto
          0 -5 254 86 vvcurveto
          31 16 12 49 8 vhcurveto
          17 84 rlineto
          hintmask 10100000
          -6 9 rlineto
          hintmask 11000000
          0 -92 -5 -89 -51 -77 2 0 vhcurveto
          -19 -79 6 -10 23 -5 9 -15 9 -47 rlinecurve
          10 -108 38 -398 0 vvcurveto
          270 17 87 268 rlineto
          14 hlineto
          6 -285 rlineto
          endchar
        </CharString>
        <CharString name="Wacute">
          13 callgsubr
          228 -20 -103 callsubr
          210 775 -99 callsubr
        </CharString>
        <CharString name="Wcircumflex">
          13 callgsubr
          -103 callsubr
          -89 721 -90 callsubr
        </CharString>
        <CharString name="Wdieresis">
          13 callgsubr
          38 167 -103 callsubr
          151 698 -92 callsubr
        </CharString>
        <CharString name="Wgrave">
          13 callgsubr
          228 -20 -103 callsubr
          -95 759 rmoveto
          0 130 -24 124 -31 vhcurveto
          19 13 21 71 rlineto
          -123 46 -126 54 6 callgsubr
          -5 -36 -108 rlineto
          endchar
        </CharString>
        <CharString name="X">
          260 16 -21 565 87 6 -4 callgsubr
          124 219 rmoveto
          -41 -53 -66 -62 -29 -14 -15 -80 rcurveline
          3 -10 callgsubr
          93 6 39 31 117 -6 0 vhcurveto
          15 81 -5 11 rlineto
          -23 -10 8 17 12 9 16 11 17 hvcurveto
          41 63 46 -88 rlineto
          5 -9 3 -8 -7 vvcurveto
          -15 -10 -7 -19 -1 vhcurveto
          -17 -84 6 -7 rlineto
          0 159 7 45 37 95 -3 0 vhcurveto
          16 94 -46 1 -30 26 -34 59 rlinecurve
          -66 122 107 145 39 53 32 25 66 31 rlinecurve
          16 87 -3 8 rlineto
          0 -70 -3 -57 vhcurveto
          -153 hlineto
          -16 -80 2 -6 rlineto
          25 8 -4 -13 -18 -41 -57 -29 -45 hvcurveto
          -25 48 -20 34 26 vvcurveto
          19 12 9 27 vhcurveto
          17 82 rlineto
          hintmask 10100000
          -5 11 rlineto
          hintmask 11000000
          0 -129 -6 -41 -106 -66 1 0 vhcurveto
          -20 -91 4 -6 45 -12 26 -8 33 -64 rlinecurve
          62 -121 rlineto
          endchar
        </CharString>
        <CharString name="Y">
          -8 callgsubr
          7 -6 callgsubr
          332 533 rmoveto
          18 13 9 28 vhcurveto
          19 82 rlineto
          hintmask 10010000
          -6 11 rlineto
          hintmask 10100000
          0 -133 -7 -44 -32 -116 2 0 vhcurveto
          -21 -91 4 -6 39 -19 31 -28 14 -37 rlinecurve
          80 -199 16 -39 4 -22 -4 -29 rlinecurve
          -2 -16 -7 -59 -20 -14 -84 -6 rlinecurve
          hintmask 01100000
          -19 -92 rlineto
          hintmask 10100000
          -96 callgsubr
          endchar
        </CharString>
        <CharString name="Yacute">
          -8 callgsubr
          229 -20 hstemhm
          hintmask 10110000
          -80 callsubr
          hintmask 01110000
          -19 -92 rlineto
          hintmask 10110000
          -96 callgsubr
          222 229 -99 callsubr
        </CharString>
        <CharString name="Ycircumflex">
          -8 callgsubr
          hstemhm
          hintmask 10100000
          -80 callsubr
          hintmask 01100000
          -19 -92 rlineto
          hintmask 10100000
          -96 callgsubr
          -77 175 -90 callsubr
        </CharString>
        <CharString name="Ydieresis">
          -8 callgsubr
          39 167 hstemhm
          hintmask 10110000
          -80 callsubr
          hintmask 01110000
          -19 -92 rlineto
          hintmask 10110000
          -96 callgsubr
          163 152 -92 callsubr
        </CharString>
        <CharString name="Ygrave">
          -8 callgsubr
          229 -20 hstemhm
          hintmask 10110000
          -80 callsubr
          hintmask 01110000
          -19 -92 rlineto
          hintmask 10110000
          -96 callgsubr
          -93 213 rmoveto
          0 130 -24 124 -31 vhcurveto
          19 13 21 71 rlineto
          -123 46 -126 54 6 callgsubr
          -5 -36 -108 rlineto
          endchar
        </CharString>
        <CharString name="Z">
          16 callsubr
          11 -4 callgsubr
          531 19 rmoveto
          14 100 40 156 0 vvcurveto
          -128 -9 -19 -93 -29 -39 -63 -10 rlinecurve
          -99 -15 64 85 149 202 167 199 rlinecurve
          -18 54 rlineto
          -325 hlineto
          hintmask 10100000
          -175 11 rlineto
          hintmask 11000000
          -12 -11 rlineto
          -14 -93 -30 -147 0 vvcurveto
          128 9 13 85 11 18 77 11 rlinecurve
          71 10 -374 -491 29 -58 81 10 419 -6 rlineto
          endchar
        </CharString>
        <CharString name="Zacute">
          16 callsubr
          226 -20 -77 callgsubr
          13 765 -99 callsubr
        </CharString>
        <CharString name="Zcaron">
          16 callsubr
          246 -20 -77 callgsubr
          46 891 -93 callgsubr
        </CharString>
        <CharString name="Zdotaccent">
          16 callsubr
          34 199 -77 callgsubr
          -130 686 -54 callsubr
          -53 -69 -46 -47 -72 -51 29 -29 54 hvcurveto
          endchar
        </CharString>
        <CharString name="a">
          95 -37 callsubr
          12 -4 callgsubr
          442 157 rmoveto
          -54 callgsubr
          rlineto
          hintmask 10100000
          -134 12 rlineto
          hintmask 11000000
          -19 -12 -5 -20 -72 20 rlineto
          -123 -131 -169 -158 -99 56 -58 95 hvcurveto
          42 29 37 47 54 94 rrcurveto
          10 hlineto
          -20 -83 -5 -25 -14 vvcurveto
          -32 17 -16 34 57 45 33 122 110 -61 callsubr
          -32 -34 -12 -9 -6 hhcurveto
          -240 -11 35 callsubr
          -9 -17 27 hvcurveto
          -96 -27 -52 -102 -22 hhcurveto
          endchar
        </CharString>
        <CharString name="a.sups">
          -62 callgsubr
        </CharString>
        <CharString name="aacute">
          95 -37 callsubr
          288 -20 hstem
          -107 callsubr
          259 516 -98 callgsubr
          endchar
        </CharString>
        <CharString name="abreve">
          95 -37 callsubr
          55 135 70 -20 hstem
          -107 callsubr
          117 519 -95 callsubr
          endchar
        </CharString>
        <CharString name="acircumflex">
          95 -37 callsubr
          289 -20 hstem
          -107 callsubr
          -25 400 -105 callsubr
        </CharString>
        <CharString name="acute">
          -47 546 -21 235 -20 hstem
          346 659 -98 callgsubr
          endchar
        </CharString>
        <CharString name="acute.cap">
          -47 712 -21 184 -20 hstem
          340 762 -99 callsubr
        </CharString>
        <CharString name="adieresis">
          95 -37 callsubr
          89 167 hstem
          -107 callsubr
          207 418 -90 callgsubr
          endchar
        </CharString>
        <CharString name="ae">
          253 -12 138 -138 155 224 116 -11 -6 callgsubr
          22 callgsubr
          hintmask 10010000
          -45 callgsubr
          hintmask 01100000
          -485 -228 -30 callsubr
        </CharString>
        <CharString name="aeacute">
          253 -12 138 -138 155 224 116 -11 -20 308 34 callgsubr
          22 callgsubr
          hintmask 10011000
          -45 callgsubr
          -119 288 -98 callgsubr
          hintmask 01101000
          -364 -499 -30 callsubr
        </CharString>
        <CharString name="agrave">
          95 -37 callsubr
          290 -20 hstem
          -107 callsubr
          -42 501 -78 callgsubr
          endchar
        </CharString>
        <CharString name="amacron">
          95 -37 callsubr
          95 37 callgsubr
          -107 callsubr
          253 552 rmoveto
          hintmask 11100000
          -88 callsubr
          endchar
        </CharString>
        <CharString name="ampersand">
          143 -12 115 172 124 52 209 -126 126 hstem
          225 457 rmoveto
          47 30 30 45 29 17 -18 -29 -10 -5 -29 0 vhcurveto
          117 7 2 25 22 83 19 54 rlinecurve
          -10 16 rlineto
          16 -56 -66 11 -45 hhcurveto
          -130 -121 -97 -104 -59 27 -48 50 -33 hvcurveto
          -83 -31 -54 -63 -65 vvcurveto
          -111 81 -61 147 137 140 114 112 22 -8 22 -13 11 vhcurveto
          5 6 rlineto
          43 hlineto
          48 26 15 42 22 hvcurveto
          54 108 -26 23 -60 -46 -31 -14 -50 -4 rlinecurve
          -234 -21 rlineto
          -40 -29 33 46 hvcurveto
          152 -245 rmoveto
          -66 -45 -43 -68 -51 -32 30 50 40 20 33 37 19 vhcurveto
          103 hlineto
          22 14 -24 -39 hvcurveto
          endchar
        </CharString>
        <CharString name="aogonek">
          95 -241 87 142 155 224 105 12 -20 hstemhm
          hintmask 11100000
          441 -129 -44 callsubr
          44 44 60 155 158 vhcurveto
          -20 49 -23 4 rlineto
          -31 -34 -12 -10 -6 hhcurveto
          -4 3 rlineto
          -54 callgsubr
          rlineto
          hintmask 11010000
          -134 12 rlineto
          hintmask 11100000
          -19 -12 -5 -20 -72 20 rlineto
          -123 -131 -169 -158 -99 56 -58 95 hvcurveto
          42 29 37 47 54 94 rrcurveto
          10 hlineto
          -20 -82 -5 -26 -14 vvcurveto
          -30 14 -15 29 -2 vhcurveto
          -67 -74 -20 -36 -40 10 callgsubr
          -256 312 rmoveto
          -8 -6 28 38 73 22 85 19 21 26 -9 -17 27 hvcurveto
          -96 -27 -52 -102 -22 hhcurveto
          endchar
        </CharString>
        <CharString name="approxequal">
          58 52 -21 24 133 -99 133 33 133 -99 133 24 -20 hstemhm
          hintmask 11001100
          72 231 rmoveto
          0 64 58 30 vhcurveto
          hintmask 11010100
          4 callsubr
          hintmask 10101100
          18 callsubr
          -8 -200 rmoveto
          0 63 58 30 vhcurveto
          hintmask 11010100
          39 108 -34 44 hhcurveto
          23 4 119 115 2 16 -42 56 rlineto
          -16 hlineto
          0 -63 -58 -31 vhcurveto
          hintmask 10110100
          -38 -109 34 -44 hhcurveto
          -22 -4 -119 -115 -2 -16 42 -56 rlineto
          endchar
        </CharString>
        <CharString name="aring">
          95 -37 callsubr
          70 210 -72 72 hstemhm
          hintmask 11010000
          -107 callsubr
          97 469 -15 callgsubr
          hintmask 11100000
          -25 callsubr
        </CharString>
        <CharString name="aringacute">
          95 -37 callsubr
          24 189 -65 65 159 -20 hstemhm
          hintmask 11011000
          -107 callsubr
          113 416 15 callgsubr
          hintmask 11101000
          8 callsubr
          247 -6 callsubr
        </CharString>
        <CharString name="asciicircum">
          21 117 -21 388 -20 hstem
          326 484 rmoveto
          -153 -7 -96 -178 rlineto
          -41 -77 -45 -74 0 vvcurveto
          9 -18 101 -34 rlineto
          0 46 93 40 73 vhcurveto
          48 90 rlineto
          7 hlineto
          34 -102 rlineto
          22 -71 25 -74 0 vvcurveto
          20 -9 98 56 -46 138 rlineto
          -20 69 -35 117 3 callsubr
        </CharString>
        <CharString name="asciitilde">
          57 172 -21 24 133 -99 133 24 -20 hstemhm
          hintmask 10110000
          62 151 rmoveto
          0 64 58 30 vhcurveto
          hintmask 11010000
          4 callsubr
          hintmask 10110000
          18 callsubr
          endchar
        </CharString>
        <CharString name="asterisk">
          -85 409 -21 364 -20 hstem
          76 681 rmoveto
          -11 -3 rlineto
          -14 -39 0 -54 0 vvcurveto
          0 57 -14 55 -16 vhcurveto
          9 7 9 49 rlineto
          -61 46 -44 24 0 vvcurveto
          -6 -216 rmoveto
          -1 -12 rlineto
          33 -25 52 -16 0 vvcurveto
          0 30 50 32 48 vhcurveto
          -3 9 -45 24 rlineto
          -62 -44 -36 -34 0 vvcurveto
          203 -72 rmoveto
          11 -5 rlineto
          35 23 31 45 0 vvcurveto
          0 -39 45 -34 45 vhcurveto
          -11 hlineto
          -37 -35 rlineto
          23 -74 21 -44 0 vvcurveto
          132 171 rmoveto
          8 8 rlineto
          -11 40 -33 44 0 vvcurveto
          0 -55 -22 -53 -19 vhcurveto
          -4 -11 22 -46 rlineto
          77 -1 49 7 0 vvcurveto
          -121 178 rmoveto
          -7 10 rlineto
          -42 -52 -16 0 0 6 -59 2 -57 hvcurveto
          8 -5 50 5 rlineto
          24 73 11 49 3 callsubr
        </CharString>
        <CharString name="at">
          440 -240 91 137 116 263 105 96 105 hstem
          504 -12 rmoveto
          228 144 141 221 200 -144 123 -235 -260 -230 -236 -268 -255 180 -154 299 hvcurveto
          37 64 rlineto
          9 1 9 9 vvcurveto
          -264 -144 124 228 208 149 156 201 1 hvcurveto
          188 115 -98 -160 -119 -67 -87 -92 hvcurveto
          -7 8 rlineto
          21 128 48 209 0 vvcurveto
          -8 23 -134 12 -19 -12 -5 -20 -72 20 rlineto
          -122 -132 -170 -157 -99 56 -58 95 hvcurveto
          41 28 37 47 55 95 rrcurveto
          10 hlineto
          -21 -90 -3 -13 -13 vvcurveto
          -32 22 -22 32 vhcurveto
          -127 155 2 callgsubr
          37 74 22 86 19 36 38 -26 0 hvcurveto
          -95 -26 -53 -103 -22 hhcurveto
          endchar
        </CharString>
        <CharString name="atilde">
          95 -37 callsubr
          79 -60 callsubr
          hintmask 11010100
          -107 callsubr
          -30 384 -61 callgsubr
        </CharString>
        <CharString name="b">
          92 -12 122 362 -20 196 15 callsubr
          16 74 rmoveto
          14 -26 rlineto
          0 76 -60 132 31 callgsubr
          vhcurveto
          -41 -29 -35 -45 -54 -96 rrcurveto
          -10 hlineto
          32 181 49 239 -17 callsubr
          hintmask 11110000
          0 -136 -12 -91 vhcurveto
          -12 -82 rlineto
          28 hlineto
          23 10 -10 -23 -31 -85 -510 0 hvcurveto
          304 260 9 callgsubr
        </CharString>
        <CharString name="b.sups">
          -45 319 88 418 -20 hstem
          11 380 rmoveto
          10 -18 rlineto
          0 54 -43 96 104 90 99 114 71 -42 41 -73 vhcurveto
          -27 -18 -23 -27 -36 -60 -7 -1 rcurveline
          21 115 32 158 0 vvcurveto
          -12 14 rlineto
          0 -97 -9 -65 vhcurveto
          -9 -59 rlineto
          18 hlineto
          16 7 -6 -15 -20 -57 -336 0 hvcurveto
          214 167 rmoveto
          4 2 -18 -24 -57 -14 -41 -20 -18 -19 18 -1 3 hvcurveto
          52 11 36 71 15 hhcurveto
          endchar
        </CharString>
        <CharString name="backslash">
          -114 -89 -21 785 -20 hstem
          34 655 rmoveto
          0 41 -278 21 -162 vhcurveto
          21 -165 20 -160 0 vvcurveto
          126 hlineto
          13 15 rlineto
          0 -28 169 -19 152 vhcurveto
          -56 449 rlineto
          -119 hlineto
          endchar
        </CharString>
        <CharString name="bar">
          -153 -248 -21 1076 -20 hstem
          257 807 rmoveto
          -114 -11 -65 -520 rlineto
          -23 -179 -43 -350 0 vvcurveto
          13 -16 118 11 rlineto
          0 45 377 21 172 vhcurveto
          20 166 47 334 3 callsubr
        </CharString>
        <CharString name="braceleft">
          -107 -123 114 562 106 hstem
          39 235 rmoveto
          40 -12 21 -22 -31 -45 -75 -79 -63 vvcurveto
          -60 56 -46 77 71 39 23 0 vhcurveto
          24 83 -11 13 rlineto
          0 -15 -5 -15 -29 -18 19 30 vhcurveto
          41 46 78 47 vvcurveto
          37 -20 28 -41 14 vhcurveto
          1 5 rlineto
          52 13 30 36 46 32 -12 49 29 vvcurveto
          36 21 22 34 14 19 -5 0 vhcurveto
          28 83 -8 16 rlineto
          0 -47 12 -41 -108 -79 -52 -74 vhcurveto
          -48 33 -64 -39 vvcurveto
          -31 -27 -26 -46 -14 vhcurveto
          endchar
        </CharString>
        <CharString name="braceright">
          -107 -123 106 562 114 hstem
          296 311 rmoveto
          -39 7 -21 24 34 43 73 74 60 vvcurveto
          60 -56 46 -77 -71 -39 -23 0 vhcurveto
          -24 -83 11 -13 rlineto
          0 15 5 15 29 18 -19 -30 vhcurveto
          -39 -45 -72 -45 vvcurveto
          -37 20 -28 41 -14 vhcurveto
          -1 -5 rlineto
          -51 -14 -31 -35 -48 -34 11 -52 -30 vvcurveto
          -38 -21 -22 -34 -14 -19 5 0 vhcurveto
          -28 -83 8 -16 rlineto
          0 47 -12 41 109 79 56 80 vhcurveto
          48 -32 64 39 vvcurveto
          32 29 28 44 11 vhcurveto
          endchar
        </CharString>
        <CharString name="bracketleft">
          -116 -106 -21 777 -20 hstem
          263 -127 rmoveto
          18 83 -3 11 -90 17 69 555 90 17 18 84 -3 10 -251 -11 rlineto
          0 -24 -279 -12 -100 vhcurveto
          -12 -100 -45 -276 3 callsubr
        </CharString>
        <CharString name="bracketright">
          -116 -106 -21 777 -20 hstem
          60 650 rmoveto
          -18 -83 3 -11 90 -17 -68 -555 -90 -17 -19 -84 3 -10 251 11 rlineto
          0 24 279 12 100 vhcurveto
          13 100 44 276 3 callsubr
        </CharString>
        <CharString name="breve">
          -47 535 135 70 -20 hstem
          246 670 -95 callsubr
          endchar
        </CharString>
        <CharString name="breve.cap">
          -47 655 135 70 -20 hstem
          263 790 -62 callsubr
          endchar
        </CharString>
        <CharString name="brokenbar">
          -153 -248 -21 1076 -20 hstem
          219 374 rmoveto
          22 174 35 243 0 vvcurveto
          -19 16 -114 -11 -54 -427 12 -11 rlineto
          -39 -208 rmoveto
          -24 -184 -26 -219 0 vvcurveto
          12 -16 118 11 rlineto
          0 26 221 23 187 vhcurveto
          -16 17 rlineto
          endchar
        </CharString>
        <CharString name="bullet">
          -103 130 -21 265 -20 hstem
          144 109 rmoveto
          91 59 63 95 68 -38 39 -68 -93 -59 -62 -96 -69 38 -38 70 hvcurveto
          endchar
        </CharString>
        <CharString name="c">
          0 callgsubr
          -91 callsubr
          endchar
        </CharString>
        <CharString name="c.sups">
          -138 319 101 146 86 hstem
          179 566 rmoveto
          17 12 -11 -24 12 hvcurveto
          32 hlineto
          36 92 -3 13 rlineto
          10 -19 -30 6 -28 hhcurveto
          -109 -89 -93 -118 -74 46 -48 70 59 68 48 57 21 hvcurveto
          -39 42 -15 3 rlineto
          -32 -15 -17 -17 -17 hhcurveto
          -20 -11 16 32 59 15 39 24 hvcurveto
          endchar
        </CharString>
        <CharString name="cacute">
          0 callgsubr
          277 -20 -91 callsubr
          177 296 -98 callgsubr
          endchar
        </CharString>
        <CharString name="caron">
          -47 536 -21 225 -20 hstem
          69 671 -84 callgsubr
        </CharString>
        <CharString name="caron.alt">
          -47 522 -21 258 -20 hstem
          319 759 -57 callsubr
        </CharString>
        <CharString name="caron.cap">
          -47 709 -21 207 -20 hstem
          422 888 -93 callgsubr
        </CharString>
        <CharString name="ccaron">
          0 callgsubr
          32 -20 245 -20 -91 callsubr
          -140 308 -84 callgsubr
        </CharString>
        <CharString name="ccedilla">
          -40 24 callgsubr
          501 120 hstem
          130 -89 callsubr
          10 33 68 19 66 58 26 68 rlinecurve
          -63 callgsubr
          25 18 -16 -36 17 hvcurveto
          43 1 51 129 -4 18 rlineto
          15 -27 -42 9 -40 hhcurveto
          -154 -127 -142 -174 -103 55 -67 89 -8 hvcurveto
          endchar
        </CharString>
        <CharString name="ccircumflex">
          0 callgsubr
          276 -20 -91 callsubr
          -107 178 -105 callsubr
        </CharString>
        <CharString name="cdotaccent">
          0 callgsubr
          60 199 -91 callsubr
          17 180 -54 callsubr
          -53 -69 -46 -47 -72 -51 29 -29 54 hvcurveto
          endchar
        </CharString>
        <CharString name="cedilla">
          -42 24 callgsubr
          174 -20 hstem
          86 -89 callsubr
          23 73 rlineto
          -62 hlineto
          endchar
        </CharString>
        <CharString name="cent">
          -40 -143 -21 292 235 295 -20 hstem
          253 363 rmoveto
          25 18 -16 -36 17 hvcurveto
          43 1 51 129 -4 18 -15 8 -18 6 -21 4 rlinecurve
          43 172 -5 9 -119 -14 -42 -170 rlineto
          -122 -35 -91 -125 -147 vvcurveto
          -83 36 -60 61 -24 vhcurveto
          -39 -158 7 -6 117 13 36 149 65 22 63 56 25 65 rlinecurve
          -55 callsubr
          endchar
        </CharString>
        <CharString name="circumflex">
          -47 556 -21 225 -20 hstem
          99 542 -105 callsubr
        </CharString>
        <CharString name="circumflex.cap">
          -47 722 -21 hstem
          98 708 -90 callsubr
        </CharString>
        <CharString name="colon">
          -202 -9 199 66 199 hstem
          86 -9 rmoveto
          -80 callgsubr
          32 265 rmoveto
          -80 callgsubr
          endchar
        </CharString>
        <CharString name="comma">
          -202 -101 29 callgsubr
          1 -20 callgsubr
          endchar
        </CharString>
        <CharString name="commaaccent">
          -47 -324 29 callgsubr
          42 -92 -104 callgsubr
          endchar
        </CharString>
        <CharString name="copyright">
          245 -12 59 86 77 -77 133 61 136 -75 75 76 59 hstem
          48 261 rmoveto
          -153 110 -120 150 176 160 153 183 152 -111 122 -150 -176 -159 -153 -184 vhcurveto
          60 6 rmoveto
          148 127 124 141 120 88 -97 -123 -148 -128 -124 -141 -120 -87 97 123 vhcurveto
          224 -134 rmoveto
          67 54 18 0 hvcurveto
          8 9 rlineto
          5 49 12 60 0 vvcurveto
          -88 -6 rlineto
          -43 -8 -7 -10 -23 hhcurveto
          -22 -6 14 52 83 10 29 32 19 11 -10 -16 -8 -5 -29 0 hvcurveto
          89 5 rlineto
          12 62 16 46 0 vvcurveto
          -4 12 rlineto
          0 -75 13 -44 -127 -64 -65 -130 -88 49 -47 89 vhcurveto
          endchar
        </CharString>
        <CharString name="currency">
          -2 126 -21 65 98 149 98 66 -20 hstem
          71 322 rmoveto
          -14 1 -16 3 -12 vhcurveto
          -28 -22 -26 -22 -30 -22 65 -105 rcurveline
          23 -4 rlineto
          0 39 39 38 40 vhcurveto
          -9 19 22 -5 23 hhcurveto
          20 21 4 7 19 hvcurveto
          54 -74 114 77 7 23 rlineto
          0 -33 34 -34 33 vhcurveto
          15 28 8 27 31 vvcurveto
          16 -2 18 -3 14 vhcurveto
          80 64 -64 105 -23 4 rlineto
          0 -39 -40 -37 -39 vhcurveto
          8 -19 -20 5 -22 hhcurveto
          -22 -22 -5 -8 -20 hvcurveto
          -17 26 -18 25 -19 26 -115 -77 rcurveline
          -7 -23 rlineto
          0 35 -37 34 -35 vhcurveto
          -13 -28 -7 -28 -29 vvcurveto
          99 12 rmoveto
          45 38 38 42 36 27 -30 -37 -45 -39 -37 -42 -36 -26 29 37 vhcurveto
          endchar
        </CharString>
        <CharString name="d">
          96 -37 callsubr
          176 82 12 -14 callgsubr
          442 157 rmoveto
          33 182 72 383 -17 callsubr
          hintmask 11100000
          0 -136 -12 -91 vhcurveto
          -12 -82 rlineto
          28 hlineto
          27 9 -11 -32 -4 hvcurveto
          -22 -152 -77 callsubr
          endchar
        </CharString>
        <CharString name="d.sups">
          -42 340 -21 250 75 -75 247 9 -14 callgsubr
          318 441 rmoveto
          22 117 47 253 0 vvcurveto
          -11 14 rlineto
          hintmask 10100000
          0 -97 -9 -66 vhcurveto
          -8 -59 rlineto
          18 hlineto
          18 6 -7 -21 -3 hvcurveto
          -14 -98 rlineto
          hintmask 11010000
          -46 13 rlineto
          -86 -91 -112 -105 -68 42 -40 69 hvcurveto
          28 20 24 29 35 59 rrcurveto
          7 hlineto
          -15 -61 0 -4 -7 vvcurveto
          -25 11 -11 25 43 31 23 85 78 vhcurveto
          -14 35 -17 3 rlineto
          -29 -34 4 3 -3 hhcurveto
          -169 -9 rmoveto
          -5 -4 15 25 46 12 53 9 25 26 -18 1 -2 hvcurveto
          -58 -16 -31 -64 -14 hhcurveto
          endchar
        </CharString>
        <CharString name="dagger">
          75 -71 -21 397 124 164 45 callgsubr
          -19 -159 -147 40 callgsubr
          149 hlineto
          -49 -387 9 -9 122 7 47 390 41 callsubr
          -8 14 -150 -5 22 156 rlineto
          endchar
        </CharString>
        <CharString name="daggerdbl">
          74 -71 -21 160 124 119 124 158 45 callgsubr
          -18 -153 -147 40 callgsubr
          149 hlineto
          -16 -120 -146 40 callgsubr
          148 hlineto
          -19 -150 9 -9 122 7 18 153 41 callsubr
          -8 14 -152 -5 15 121 41 callsubr
          -9 14 -149 -5 21 150 rlineto
          endchar
        </CharString>
        <CharString name="dcaron">
          270 -37 callsubr
          176 82 12 -14 callgsubr
          442 157 rmoveto
          33 182 72 383 -17 callsubr
          hintmask 11100000
          0 -136 -12 -91 vhcurveto
          -12 -82 rlineto
          28 hlineto
          27 9 -11 -32 -4 hvcurveto
          -22 -152 -77 callsubr
          517 546 -57 callsubr
        </CharString>
        <CharString name="dcroat">
          96 -37 callsubr
          47 67 62 82 12 -20 hstemhm
          hintmask 11101000
          442 157 rmoveto
          17 94 27 148 23 121 74 1 rcurveline
          5 55 -15 15 -51 -2 rlineto
          14 77 11 56 -17 callsubr
          hintmask 11110000
          0 -136 -12 -91 vhcurveto
          -12 -82 rlineto
          28 hlineto
          27 9 -11 -32 -4 hvcurveto
          -3 -19 -116 33 callsubr
          103 hlineto
          -9 -66 -77 callsubr
          endchar
        </CharString>
        <CharString name="degree">
          -140 389 75 120 75 hstem
          49 510 rmoveto
          -68 49 -53 67 79 70 67 82 68 -48 53 -68 -78 -71 -67 -82 vhcurveto
          75 6 rmoveto
          39 27 29 38 31 19 -22 -31 -39 -28 -28 -37 -31 -19 21 31 vhcurveto
          endchar
        </CharString>
        <CharString name="dieresis">
          -47 559 167 hstem
          324 559 -90 callgsubr
          endchar
        </CharString>
        <CharString name="dieresis.cap">
          -47 685 167 hstem
          339 685 -92 callsubr
        </CharString>
        <CharString name="divide">
          58 -17 171 23 146 21 171 hstem
          480 329 rmoveto
          0 -138 -6 -78 -86 -135 1 0 vhcurveto
          -34 -135 7 -13 rlineto
          5 callsubr
          -278 -331 rmoveto
          59 38 40 62 43 -24 26 -45 -60 -38 -40 -62 -43 24 -26 46 hvcurveto
          44 361 rmoveto
          59 39 40 62 43 -25 26 -44 -61 -38 -40 -62 -43 24 -26 46 hvcurveto
          endchar
        </CharString>
        <CharString name="dollar">
          11 -143 -21 496 179 147 -20 hstem
          75 -164 rmoveto
          117 13 36 145 rlineto
          136 14 81 62 100 vvcurveto
          94 -91 29 -62 25 vhcurveto
          -32 14 -24 12 20 vvcurveto
          18 18 13 27 29 19 -15 -28 -1 -2 -15 0 vhcurveto
          10 -7 106 7 rlineto
          15 70 24 66 0 vvcurveto
          -9 19 rlineto
          0 -50 15 -68 5 vhcurveto
          34 138 -5 9 -119 -14 -34 -137 rlineto
          -122 -19 -75 -66 -95 vvcurveto
          -81 67 -33 58 -26 vhcurveto
          45 -18 39 -14 -25 vvcurveto
          -15 -18 -10 -28 -40 -20 32 38 4 vhcurveto
          -114 -8 rlineto
          -9 -47 -26 -80 0 vvcurveto
          9 -15 rlineto
          0 41 -20 63 -9 vhcurveto
          -37 -154 rlineto
          endchar
        </CharString>
        <CharString name="dotaccent">
          -47 543 199 hstem
          227 543 -54 callsubr
          -53 -69 -46 -47 -72 -51 29 -29 54 hvcurveto
          endchar
        </CharString>
        <CharString name="dotaccent.cap">
          -47 683 199 hstem
          243 683 -54 callsubr
          -53 -69 -46 -47 -72 -51 29 -29 54 hvcurveto
          endchar
        </CharString>
        <CharString name="dotbelowcomb">
          -210 -232 199 hstem
          50 -232 -54 callsubr
          -53 -69 -46 -47 -72 -51 29 -29 54 hvcurveto
          endchar
        </CharString>
        <CharString name="dotlessi">
          34 callsubr
          485 -20 hstem
          212 1 callsubr
          37 145 -17 callsubr
          0 -134 -12 -89 vhcurveto
          -12 -82 rlineto
          28 hlineto
          23 10 -10 -23 -29 -45 -262 0 hvcurveto
          -69 callgsubr
          endchar
        </CharString>
        <CharString name="dotlessj">
          -133 -227 -21 721 -20 hstem
          208 14 rmoveto
          44 292 37 147 -17 callsubr
          0 -134 -12 -89 vhcurveto
          -12 -82 rlineto
          28 hlineto
          23 10 -10 -23 -29 -49 -284 0 hvcurveto
          -15 -119 -23 -48 -72 -56 -4 -15 rcurveline
          42 -43 128 58 89 102 13 102 rlinecurve
          endchar
        </CharString>
        <CharString name="e">
          -38 callsubr
          hstem
          -104 callsubr
          endchar
        </CharString>
        <CharString name="e.sups">
          -111 319 100 147 86 hstem
          310 574 rmoveto
          48 -39 30 -61 -110 -89 -92 -115 -76 47 -50 71 67 72 45 57 23 vhcurveto
          -39 42 -16 2 rlineto
          -33 -20 -18 -13 -23 hhcurveto
          -21 -12 7 17 -4 hvcurveto
          124 36 48 32 63 vvcurveto
          -126 -8 rmoveto
          9 7 -5 -8 -18 -22 -19 -38 -15 hvcurveto
          44 6 14 21 24 hhcurveto
          endchar
        </CharString>
        <CharString name="eacute">
          -38 callsubr
          279 -20 hstem
          -104 callsubr
          149 298 -98 callgsubr
          endchar
        </CharString>
        <CharString name="ebreve">
          -38 callsubr
          42 135 70 -20 hstem
          -104 callsubr
          44 297 -95 callsubr
          endchar
        </CharString>
        <CharString name="ecaron">
          -38 callsubr
          32 -20 245 -20 hstem
          -104 callsubr
          -131 308 -84 callgsubr
        </CharString>
        <CharString name="ecircumflex">
          -38 callsubr
          276 -20 hstem
          -104 callsubr
          -98 178 -105 callsubr
        </CharString>
        <CharString name="edieresis">
          -38 callsubr
          76 167 hstem
          -104 callsubr
          120 196 -90 callgsubr
          endchar
        </CharString>
        <CharString name="edotaccent">
          -38 callsubr
          60 199 hstem
          -104 callsubr
          26 180 -54 callsubr
          -53 -69 -46 -47 -72 -51 29 -29 54 hvcurveto
          endchar
        </CharString>
        <CharString name="egrave">
          -38 callsubr
          277 -20 hstem
          -104 callsubr
          -125 279 -78 callgsubr
          endchar
        </CharString>
        <CharString name="eight">
          -24 callsubr
          -72 59 -98 -131 -111 -50 callgsubr
        </CharString>
        <CharString name="eight.dnom">
          -98 -8 33 callgsubr
          85 -92 callgsubr
        </CharString>
        <CharString name="eight.lf">
          -24 callsubr
          -75 59 -98 -131 -108 -50 callgsubr
        </CharString>
        <CharString name="eight.numr">
          -98 246 33 callgsubr
          339 -92 callgsubr
        </CharString>
        <CharString name="eight.sinf">
          -98 -128 33 callgsubr
          -35 -92 callgsubr
        </CharString>
        <CharString name="eight.sups">
          -98 319 33 callgsubr
          412 -92 callgsubr
        </CharString>
        <CharString name="eight.tf">
          27 -12 108 387 116 hstem
          3 124 rmoveto
          -79 74 -57 108 136 111 93 121 61 -31 38 -36 26 vhcurveto
          45 23 48 42 72 vvcurveto
          76 -75 59 -98 -131 -109 -85 -113 -61 29 -43 36 -31 vhcurveto
          -50 -21 -57 -42 -79 vvcurveto
          203 -28 rmoveto
          -31 -21 24 35 25 9 22 15 20 hvcurveto
          44 -26 39 -20 -29 vvcurveto
          -31 -20 -20 -35 vhcurveto
          9 340 rmoveto
          27 20 20 29 27 15 -18 -29 -26 -10 -21 -13 -19 vhcurveto
          -38 19 -30 17 30 vvcurveto
          endchar
        </CharString>
        <CharString name="eight.tosf">
          17 -12 108 387 116 hstem
          1 124 rmoveto
          -79 72 -57 108 134 109 93 121 61 -29 38 -35 26 vhcurveto
          44 23 47 42 72 vvcurveto
          76 -71 59 -97 -130 -110 -85 -113 -61 27 -43 36 -31 vhcurveto
          -50 -21 -55 -42 -79 vvcurveto
          200 -28 rmoveto
          -30 -19 24 35 25 7 22 14 20 hvcurveto
          43 -26 37 -20 -29 vvcurveto
          -31 -18 -20 -34 vhcurveto
          12 340 rmoveto
          27 18 20 28 26 15 -18 -29 -26 -9 -21 -13 -19 vhcurveto
          -37 19 -28 17 30 vvcurveto
          endchar
        </CharString>
        <CharString name="ellipsis">
          246 -9 199 hstem
          310 -9 rmoveto
          -80 callgsubr
          224 hmoveto
          -80 callgsubr
          -448 hmoveto
          -80 callgsubr
          endchar
        </CharString>
        <CharString name="emacron">
          -38 callsubr
          82 37 callgsubr
          -104 callsubr
          190 330 rmoveto
          hintmask 11100000
          -88 callsubr
          endchar
        </CharString>
        <CharString name="emdash">
          368 198 124 -102 -21 125 42 callgsubr
          814 324 rmoveto
          hintmask 10000000
          -3 -31 -255 1 -127 hhcurveto
          -392 hlineto
          -23 -105 8 -19 rlineto
          hintmask 01100000
          279 255 1 267 hhcurveto
          27 106 rlineto
          endchar
        </CharString>
        <CharString name="endash">
          1 198 124 -102 -21 125 42 callgsubr
          448 324 rmoveto
          hintmask 10000000
          -2 -66 -71 0 -66 hhcurveto
          -236 hlineto
          -23 -105 8 -19 rlineto
          hintmask 01100000
          149 142 1 144 hhcurveto
          26 106 rlineto
          endchar
        </CharString>
        <CharString name="eng">
          95 -227 -21 262 -21 492 -20 hstem
          277 32 rmoveto
          -26 -92 -21 -74 -72 -56 -4 -15 rcurveline
          42 -43 128 58 86 95 26 109 rlinecurve
          10 42 65 281 -98 callsubr
          -38 -42 -165 -16 -56 hvcurveto
          endchar
        </CharString>
        <CharString name="eogonek">
          -4 -241 87 142 138 237 120 hstem
          343 -129 -44 callsubr
          44 71 64 90 148 vhcurveto
          -17 callgsubr
          -49 -28 -29 -22 -34 hhcurveto
          -32 -18 17 32 -5 hvcurveto
          185 56 64 50 90 vvcurveto
          69 -53 43 -85 -154 -128 -140 -170 -112 65 -73 99 26 19 4 15 25 vhcurveto
          -86 -81 -26 -39 -48 10 callgsubr
          -105 532 rmoveto
          15 10 -9 -14 -30 -34 -30 -62 -23 hvcurveto
          69 10 25 37 36 hhcurveto
          endchar
        </CharString>
        <CharString name="equal">
          58 77 146 -126 -21 201 146 6 -6 callgsubr
          468 229 rmoveto
          0 -138 -6 -78 -86 -135 1 0 vhcurveto
          -35 -135 rlineto
          hintmask 01100000
          8 -13 rlineto
          hintmask 10010000
          5 callsubr
          19 215 rmoveto
          hintmask 10100000
          0 -138 -6 -77 -87 -135 1 0 vhcurveto
          40 callsubr
          132 1 87 vhcurveto
          221 1 29 136 rlineto
          endchar
        </CharString>
        <CharString name="estimated">
          364 9 -21 663 -20 hstem
          180 311 rmoveto
          597 8 hlineto
          184 -165 148 -203 -203 -166 -148 -184 -183 166 -148 203 118 107 51 78 67 vhcurveto
          -54 hlineto
          -67 -57 -85 -42 -95 hhcurveto
          -89 -81 37 60 -56 hvcurveto
          -5 6 -4 7 8 vvcurveto
          181 vlineto
          3 2 1 3 vhcurveto
          463 205 rmoveto
          -182 vlineto
          -3 -2 -2 -3 vhcurveto
          -458 hlineto
          -3 -2 2 3 hvcurveto
          178 vlineto
          9 4 8 6 6 vhcurveto
          59 57 79 37 89 hhcurveto
          87 79 -36 -57 57 hvcurveto
          6 -6 4 -7 -9 vvcurveto
          endchar
        </CharString>
        <CharString name="eth">
          60 -12 107 254 124 269 -20 hstem
          422 742 rmoveto
          -149 -74 -38 27 -42 25 -47 22 rlinecurve
          -17 -8 -61 -81 23 -19 21 -17 19 -17 rlinecurve
          -79 -41 20 -94 9 -2 129 64 19 -22 15 -22 11 -23 rlinecurve
          -5 -9 -12 7 -12 8 -10 7 rlinecurve
          -115 -95 -132 -161 -122 71 -70 130 173 107 121 187 109 -45 108 -84 86 hvcurveto
          92 46 -20 93 rlineto
          -140 -454 rmoveto
          -80 -28 -109 -27 -28 -12 19 55 105 25 75 39 14 8 -4 -6 8 vhcurveto
          1 -12 0 -27 -16 vvcurveto
          endchar
        </CharString>
        <CharString name="exclam">
          -158 -9 199 527 -20 hstem
          99 -9 rmoveto
          68 46 47 71 51 -30 30 -52 -69 -46 -47 -72 -51 29 -29 54 hvcurveto
          -21 274 rmoveto
          18 -20 106 16 125 430 -22 26 -191 -26 -21 -24 rlineto
          endchar
        </CharString>
        <CharString name="exclamdown">
          -158 -221 -21 527 199 hstem
          177 484 14 callsubr
          21 -274 rmoveto
          -18 20 -106 -16 -125 -430 22 -26 191 26 21 24 rlineto
          endchar
        </CharString>
        <CharString name="f">
          23 callgsubr
          82 164 117 hstem
          9 379 rmoveto
          -93 callsubr
          41 381 8 5 122 -1 12 75 -7 7 rlineto
          -125 43 callsubr
          24 23 -11 -32 41 hvcurveto
          20 3 59 -56 callgsubr
          rlineto
          endchar
        </CharString>
        <CharString name="f.f">
          23 callgsubr
          81 145 117 hstem
          9 379 rmoveto
          -93 callsubr
          41 380 8 5 rlineto
          222 hlineto
          12 74 -7 7 rlineto
          -225 hlineto
          7 66 rlineto
          62 7 30 17 47 hhcurveto
          37 37 -8 -33 47 hvcurveto
          20 3 83 106 -4 11 rlineto
          19 -42 -48 19 -82 hhcurveto
          -133 -157 -103 -123 -13 hvcurveto
          -3 -33 -88 -13 -8 -66 rlineto
          endchar
        </CharString>
        <CharString name="f.l">
          23 callgsubr
          82 164 117 hstem
          9 379 rmoveto
          -93 callsubr
          41 381 8 5 99 -1 12 75 -7 7 rlineto
          -102 43 callsubr
          30 27 -11 -32 51 hvcurveto
          20 3 39 -56 callgsubr
          rlineto
          endchar
        </CharString>
        <CharString name="f.sups">
          -182 165 83 330 59 103 84 hstem
          6 579 rmoveto
          52 hlineto
          8 -7 -16 -244 -1 -4 1 -13 1 -8 rlinecurve
          -37 1 -19 -18 -26 hhcurveto
          -34 -12 13 40 -4 hvcurveto
          -15 hlineto
          -16 -20 -26 -46 -9 -27 rrcurveto
          -24 10 41 -19 46 hhcurveto
          72 94 88 76 8 hvcurveto
          26 247 5 3 83 -1 9 54 -5 5 rlineto
          -85 hlineto
          6 50 rlineto
          40 5 11 13 29 hhcurveto
          16 15 -7 -22 29 hvcurveto
          14 2 43 94 -3 7 rlineto
          6 -19 -31 4 -28 hhcurveto
          -91 -109 -80 -76 -8 hvcurveto
          -3 -30 -61 -9 -6 -47 rlineto
          endchar
        </CharString>
        <CharString name="f.t">
          23 callgsubr
          81 165 117 hstem
          9 379 rmoveto
          -93 callsubr
          41 380 8 5 rlineto
          232 hlineto
          12 74 -7 7 rlineto
          -235 hlineto
          9 81 rlineto
          62 8 18 22 43 hhcurveto
          24 23 -11 -32 41 hvcurveto
          20 3 59 -56 callgsubr
          rlineto
          endchar
        </CharString>
        <CharString name="fi">
          197 -242 115 136 -21 392 81 164 117 hstem
          538 1 callsubr
          37 145 -17 callsubr
          -4 -20 -135 -8 -48 hhcurveto
          -108 hlineto
          9 80 rlineto
          59 6 21 25 50 hhcurveto
          31 30 -13 -40 59 hvcurveto
          20 3 59 29 callsubr
          15 -37 -61 10 -53 hhcurveto
          -130 -150 -119 -112 -11 callsubr
          3 -5 rlineto
          74 hlineto
          11 -10 -25 -361 rlineto
          -1 -11 1 -24 -19 vvcurveto
          -54 -27 -27 -38 -48 -19 21 58 -5 vhcurveto
          -20 hlineto
          -23 -28 -35 -65 -12 -39 rrcurveto
          -35 13 57 -27 64 hhcurveto
          101 129 124 112 12 hvcurveto
          41 381 8 5 rlineto
          106 hlineto
          23 10 -11 -23 -29 -45 -262 0 hvcurveto
          -30 9 -20 20 -10 vhcurveto
          -5 10 12 -2 15 hhcurveto
          -53 callgsubr
          hvcurveto
          -71 callgsubr
          -38 -43 -3 -3 -6 hhcurveto
          endchar
        </CharString>
        <CharString name="five">
          -23 -95 10 callsubr
          383 150 rmoveto
          80 -60 42 -148 24 vhcurveto
          14 52 rlineto
          96 74 28 callgsubr
          -79 -5 -15 -30 -15 -9 -36 -1 rlinecurve
          -194 -6 -8 45 callsubr
          8 -11 rlineto
          110 -12 41 -17 -35 vvcurveto
          -35 -47 -26 -65 -36 -29 6 12 -22 vhcurveto
          -25 -23 rlineto
          -99 -7 22 -35 66 hhcurveto
          173 170 121 124 hvcurveto
          endchar
        </CharString>
        <CharString name="five.dnom">
          -119 -8 7 callgsubr
          146 -88 callgsubr
        </CharString>
        <CharString name="five.lf">
          -9 -12 10 callsubr
          398 219 rmoveto
          86 -58 47 -145 27 vhcurveto
          10 52 rlineto
          97 84 28 callgsubr
          -80 -5 -13 -30 -16 -9 -37 -1 rlinecurve
          -203 21 callgsubr
          106 -12 43 -17 -33 vvcurveto
          -36 -39 -25 -61 -36 -29 6 12 -22 vhcurveto
          -26 -23 rlineto
          -99 -5 21 -35 66 hhcurveto
          162 166 109 122 hvcurveto
          endchar
        </CharString>
        <CharString name="five.numr">
          -119 246 7 callgsubr
          400 -88 callgsubr
        </CharString>
        <CharString name="five.sinf">
          -119 -128 7 callgsubr
          26 -88 callgsubr
        </CharString>
        <CharString name="five.sups">
          -119 319 7 callgsubr
          473 -88 callgsubr
        </CharString>
        <CharString name="five.tf">
          27 -12 10 callsubr
          421 218 rmoveto
          87 -62 47 -154 27 vhcurveto
          12 52 rlineto
          103 90 28 callgsubr
          -80 -5 -14 -30 -16 -9 -39 -1 rlinecurve
          -213 21 callgsubr
          114 -12 47 -17 -33 vvcurveto
          -36 -44 -25 -68 -37 -30 6 12 -23 vhcurveto
          -26 -23 rlineto
          -99 -5 22 -35 68 hhcurveto
          167 173 109 121 hvcurveto
          endchar
        </CharString>
        <CharString name="five.tosf">
          17 -95 10 callsubr
          408 149 rmoveto
          81 -66 42 -155 24 vhcurveto
          15 52 rlineto
          103 80 -8 0 hvcurveto
          22 19 51 179 -80 -5 -15 -30 -16 -9 -38 -1 rlinecurve
          -204 -6 -9 45 callsubr
          9 -11 rlineto
          119 -12 44 -17 -35 vvcurveto
          -35 -53 -26 -72 -38 -30 6 12 -24 vhcurveto
          -24 -23 rlineto
          -99 -7 24 -35 67 hhcurveto
          178 179 121 123 hvcurveto
          endchar
        </CharString>
        <CharString name="fj">
          193 -242 115 -100 -21 627 82 164 117 hstemhm
          hintmask 10110000
          534 14 rmoveto
          44 292 37 147 -17 callsubr
          0 -115 -11 -88 -1 vhcurveto
          -127 hlineto
          9 80 rlineto
          62 7 19 22 43 hhcurveto
          24 23 -11 -32 41 hvcurveto
          20 3 59 -56 callgsubr
          3 -5 rlineto
          -93 callsubr
          41 380 8 5 rlineto
          125 hlineto
          23 10 -10 -23 -29 -49 -284 0 hvcurveto
          -15 -119 -23 -48 -72 -56 -4 -15 rcurveline
          hintmask 01110000
          42 -43 128 58 89 102 13 102 rlinecurve
          endchar
        </CharString>
        <CharString name="fl">
          184 -242 115 136 -21 391 82 164 117 hstem
          525 -38 callgsubr
          0 -53 -5 -62 -4 vhcurveto
          5 -30 -37 4 -33 -12 callgsubr
          3 -5 rlineto
          -93 callsubr
          41 381 8 5 97 -1 12 75 -7 7 rlineto
          -100 43 callsubr
          25 24 -8 -22 38 hvcurveto
          -13 -102 -73 -438 0 2 callsubr
        </CharString>
        <CharString name="florin">
          10 -164 106 350 77 121 108 hstem
          140 5 callgsubr
          135 84 135 128 7 vhcurveto
          9 193 rlineto
          114 hlineto
          10 69 -5 8 rlineto
          -114 hlineto
          4 43 rlineto
          56 4 15 22 39 11 callsubr
          -132 -137 -115 -99 vhcurveto
          -14 vlineto
          -83 -13 -8 -59 3 -6 rlineto
          65 18 -9 -32 2 hvcurveto
          endchar
        </CharString>
        <CharString name="foundryicon">
          350 -59 152 52 157 42 180 -87 87 hstemhm
          hintmask 11100000
          328 344 rmoveto
          45 33 -31 -42 hvcurveto
          -178 -74 136 vlineto
          38 -14 18 -29 -18 -6 -3 -9 vhcurveto
          -180 -74 vlineto
          hintmask 11010000
          344 74 -116 vlineto
          -6 2 -3 4 3 3 2 2 3 vhcurveto
          hintmask 11100000
          155 4 rmoveto
          89 56 rlineto
          21 -28 hlineto
          -6 4 -4 6 vhcurveto
          58 -36 -58 hlineto
          -7 -3 -4 -6 hvcurveto
          -90 vlineto
          -40 12 -17 29 8 9 1 3 9 vhcurveto
          -25 vlineto
          -63 -37 rlineto
          -45 -33 31 42 hvcurveto
          132 vlineto
          7 -3 3 -7 vhcurveto
          -26 hlineto
          -255 -361 rmoveto
          423 hlineto
          52 28 28 52 hvcurveto
          423 vlineto
          52 -28 28 -52 vhcurveto
          -423 hlineto
          -52 -28 -28 -52 hvcurveto
          -423 vlineto
          -52 28 -28 52 vhcurveto
          endchar
        </CharString>
        <CharString name="four">
          45 -74 -21 147 121 340 -20 22 -14 callgsubr
          -22 55 rmoveto
          63 83 -1 -2 77 30 callsubr
          12 11 rlineto
          0 3 56 6 63 vhcurveto
          39 -1 26 -1 0 vvcurveto
          24 113 -9 15 rlineto
          -66 hlineto
          41 330 -140 12 rlineto
          hintmask 11100000
          -2 -5 -2 -2 hhcurveto
          -289 -358 rlineto
          231 145 rmoveto
          11 hlineto
          -16 -127 rlineto
          -90 hlineto
          endchar
        </CharString>
        <CharString name="four.dnom">
          -76 -4 -3 callsubr
          85 -74 callgsubr
          rlineto
          hintmask 10010000
          -73 callsubr
          endchar
        </CharString>
        <CharString name="four.lf">
          49 44 callgsubr
          -15 133 rmoveto
          219 7 callsubr
          64 -2 25 113 -9 15 rlineto
          -66 hlineto
          41 335 -140 12 -9 -2 -285 -363 rlineto
          227 150 rmoveto
          11 hlineto
          -16 -132 rlineto
          -88 hlineto
          endchar
        </CharString>
        <CharString name="four.numr">
          -76 250 173 -156 -21 92 85 81 -20 171 -20 hstemhm
          hintmask 01111000
          -8 339 -74 callgsubr
          rlineto
          hintmask 10011000
          -73 callsubr
          endchar
        </CharString>
        <CharString name="four.sinf">
          -76 -124 -3 callsubr
          -35 -74 callgsubr
          rlineto
          hintmask 10010000
          -73 callsubr
          endchar
        </CharString>
        <CharString name="four.sups">
          -76 323 -3 callsubr
          412 -74 callgsubr
          rlineto
          hintmask 10010000
          -73 callsubr
          endchar
        </CharString>
        <CharString name="four.tf">
          27 44 callgsubr
          -19 133 rmoveto
          211 7 callsubr
          60 -2 25 113 -8 15 rlineto
          -63 hlineto
          41 335 -141 12 -9 -2 -276 -363 rlineto
          219 150 rmoveto
          11 hlineto
          -16 -132 rlineto
          -81 hlineto
          endchar
        </CharString>
        <CharString name="four.tosf">
          17 -74 -21 147 121 340 -20 22 -14 callgsubr
          -27 55 rmoveto
          60 79 -1 -2 74 30 callsubr
          11 11 rlineto
          0 4 56 5 63 vhcurveto
          37 -1 24 -1 0 vvcurveto
          24 113 -9 15 rlineto
          -61 hlineto
          41 330 -142 12 rlineto
          hintmask 11100000
          -2 -5 -2 -2 hhcurveto
          -276 -358 -4 -33 -6 -34 -4 -33 rlinecurve
          234 245 rmoveto
          10 hlineto
          -15 -127 rlineto
          -81 hlineto
          endchar
        </CharString>
        <CharString name="fraction">
          -246 -70 -21 770 -20 hstem
          320 647 -25 callgsubr
        </CharString>
        <CharString name="franc">
          52 -1 190 -175 -21 28 -21 125 64 27 98 33 157 -103 103 9 -20 hstemhm
          hintmask 01011010
          250 125 rmoveto
          107 hlineto
          11 60 -5 6 rlineto
          2 -53 -2 -52 hhcurveto
          4 25 59 4 rlineto
          35 60 -2 0 hvcurveto
          19 90 -9 12 rlineto
          0 -61 -4 -24 vhcurveto
          -21 -21 1 -21 hhcurveto
          11 67 rlineto
          15 3 6 4 18 hhcurveto
          35 -1 14 -7 -18 vvcurveto
          -9 -6 -22 0 vhcurveto
          126 7 rlineto
          11 67 21 82 0 vvcurveto
          hintmask 10001001
          -11 13 rlineto
          hintmask 10001100
          -5 -48 -104 -4 -80 hhcurveto
          -56 hlineto
          -70 1 -73 1 6 callgsubr
          -66 10 -12 rlineto
          0 11 1 9 16 3 -8 -34 -4 vhcurveto
          -25 -198 rlineto
          -56 hlineto
          -15 -59 rlineto
          hintmask 01011100
          5 -5 rlineto
          57 hlineto
          -9 -38 -12 -13 -35 -4 -17 -77 rcurveline
          hintmask 10001100
          0 43 4 61 2 vhcurveto
          hintmask 00111100
          1 20 22 0 23 hhcurveto
          37 109 -2 0 hvcurveto
          21 82 -13 16 rlineto
          0 -17 -7 -25 -26 -7 7 29 3 vhcurveto
          endchar
        </CharString>
        <CharString name="g">
          17 callsubr
          11 -4 callgsubr
          -94 callgsubr
          -15 28 rcurveline
          hintmask 10100000
          -133 11 rlineto
          hintmask 11000000
          -84 callsubr
          endchar
        </CharString>
        <CharString name="g.sups">
          -62 165 90 314 76 8 -4 callgsubr
          153 428 rmoveto
          -6 -4 15 26 47 13 53 10 25 27 -18 2 -4 hvcurveto
          -56 -13 -34 -69 -14 hhcurveto
          -32 -108 rmoveto
          20 13 17 21 60 90 7 -2 rcurveline
          -13 -114 rlineto
          -48 -6 -28 -25 -46 hhcurveto
          -35 -26 11 16 3 28 23 22 12 hvcurveto
          203 34 rmoveto
          6 45 5 103 3 17 3 30 12 53 9 23 -11 21 rcurveline
          hintmask 10100000
          -100 7 -15 -9 -3 -13 rlineto
          hintmask 11000000
          -47 14 rlineto
          -86 -92 -115 -106 -48 20 -35 34 -14 hvcurveto
          -5 vlineto
          -33 -13 -51 -23 -22 -11 -3 -10 rcurveline
          -7 -60 57 -41 88 1 84 1 141 114 8 74 rrcurveto
          endchar
        </CharString>
        <CharString name="gbreve">
          17 callsubr
          52 135 70 -20 hstem
          -94 callgsubr
          -15 28 rcurveline
          -133 11 -84 callsubr
          -107 625 -95 callsubr
          endchar
        </CharString>
        <CharString name="gcircumflex">
          17 callsubr
          286 -20 hstem
          -94 callgsubr
          -15 28 rcurveline
          -133 11 -84 callsubr
          -249 506 -105 callsubr
        </CharString>
        <CharString name="gcommaaccent">
          68 -242 125 260 224 0 106 0 54 311 -20 hstemhm
          hintmask 11011000
          -94 callgsubr
          rrcurveto
          hintmask 10101000
          -15 28 -133 11 -84 callsubr
          -42 550 -51 callsubr
          hintmask 11011000
          -1 callsubr
          endchar
        </CharString>
        <CharString name="gdotaccent">
          17 callsubr
          70 199 hstem
          -94 callgsubr
          -15 28 rcurveline
          -133 11 -84 callsubr
          -125 508 -54 callsubr
          -53 -69 -46 -47 -72 -51 29 -29 54 hvcurveto
          endchar
        </CharString>
        <CharString name="germandbls">
          243 -242 115 115 118 519 117 hstem
          419 74 vstem
          9 379 rmoveto
          -93 callsubr
          60 547 rlineto
          62 9 30 22 46 hhcurveto
          43 13 -35 -35 hvcurveto
          -78 -107 -30 -105 -130 169 3 -67 vvcurveto
          -25 -16 -17 -27 -35 -26 35 47 1 vhcurveto
          -27 2 -26 -31 -31 -66 -8 -40 rlinecurve
          -37 12 61 -28 69 hhcurveto
          137 105 82 113 hvcurveto
          144 -177 -2 70 64 106 35 104 vvcurveto
          90 -83 54 -119 -133 -145 -116 -115 -12 vhcurveto
          -5 -48 -88 -13 -8 -66 rlineto
          endchar
        </CharString>
        <CharString name="grave">
          -47 546 -21 235 -20 hstem
          31 642 -78 callgsubr
          endchar
        </CharString>
        <CharString name="grave.cap">
          -47 712 -21 184 -20 hstem
          6 746 rmoveto
          0 130 -24 124 -31 vhcurveto
          19 13 21 71 rlineto
          -123 46 -126 54 6 callgsubr
          -5 -36 -108 rlineto
          endchar
        </CharString>
        <CharString name="greater">
          -19 63 -21 457 -20 hstem
          397 357 rmoveto
          0 -103 50 -60 29 vhcurveto
          -65 34 -58 29 0 vvcurveto
          -67 -92 6 -21 rlineto
          0 67 -32 64 -32 vhcurveto
          90 -49 -1 -8 -89 -39 rlineto
          -74 -32 -94 -36 0 vvcurveto
          22 -105 16 -11 rlineto
          0 75 37 78 33 vhcurveto
          181 77 18 153 rlineto
          endchar
        </CharString>
        <CharString name="greaterequal">
          21 -124 124 -123 -20 642 -6 callgsubr
          417 357 rmoveto
          -49 22 -41 22 -44 22 -27 13 rcurveline
          -66 34 -60 29 0 vvcurveto
          -67 -92 7 -21 rlineto
          0 66 -32 65 -32 vhcurveto
          89 -49 -1 -8 -88 -39 rlineto
          -75 -32 -93 -36 0 vvcurveto
          21 -105 17 -11 rlineto
          0 74 37 78 33 vhcurveto
          181 77 19 153 rlineto
          -199 -342 9 callsubr
          -8 18 rlineto
          hintmask 10100000
          -1 -5 -51 0 -97 hhcurveto
          153 2 rmoveto
          -1 vlineto
          endchar
        </CharString>
        <CharString name="guillemotleft">
          31 32 callsubr
          407 422 -52 callsubr
          -260 35 -52 callsubr
          endchar
        </CharString>
        <CharString name="guillemotright">
          31 32 callsubr
          305 42 -52 callgsubr
          -144 -35 -52 callgsubr
          endchar
        </CharString>
        <CharString name="guilsinglleft">
          -171 32 callsubr
          182 422 -52 callsubr
          endchar
        </CharString>
        <CharString name="guilsinglright">
          -171 32 callsubr
          79 42 -52 callgsubr
          endchar
        </CharString>
        <CharString name="h">
          91 12 -21 23 -21 655 82 12 -20 hstemhm
          hintmask 01010000
          -39 callgsubr
          30 182 51 237 0 vvcurveto
          -15 21 rlineto
          hintmask 01100000
          -13 callsubr
          -13 -81 -81 -508 -47 callgsubr
          hintmask 10100000
          -75 callsubr
          endchar
        </CharString>
        <CharString name="h.sups">
          -48 342 -21 22 -21 332 -20 191 -20 hstemhm
          hintmask 01110000
          314 -1 callgsubr
          -22 -15 -25 -38 -26 -62 4 callgsubr
          18 6 -7 -22 -3 hvcurveto
          -10 -58 -53 -331 0 vvcurveto
          15 -17 rlineto
          57 49 17 21 3 hvcurveto
          4 37 rlineto
          81 28 30 58 14 hhcurveto
          7 4 -5 -13 hvcurveto
          -22 -41 -106 -26 vvcurveto
          hintmask 10110000
          -30 15 -13 34 42 34 25 84 75 26 callsubr
        </CharString>
        <CharString name="hbar">
          91 12 -21 23 -21 515 -20 21 66 73 82 12 -20 hstemhm
          hintmask 01110100
          -39 callgsubr
          11 66 13 74 13 67 rrcurveto
          103 hlineto
          5 55 -15 15 -79 -3 rlineto
          17 84 13 61 42 callsubr
          hintmask 01111000
          -13 callsubr
          -5 -30 -91 33 callsubr
          77 hlineto
          -27 -172 -51 -320 -47 callgsubr
          hintmask 10111000
          -75 callsubr
          endchar
        </CharString>
        <CharString name="hcircumflex">
          91 12 -21 23 -21 655 82 267 -20 hstemhm
          hintmask 01110000
          -39 callgsubr
          30 182 51 237 0 vvcurveto
          -15 21 rlineto
          -13 callsubr
          -13 -81 -81 -508 -47 callgsubr
          hintmask 10110000
          -75 callsubr
          -377 622 -105 callsubr
        </CharString>
        <CharString name="hungarumlaut">
          -47 549 -21 226 -20 hstem
          198 691 -65 callsubr
          160 14 -65 callsubr
          endchar
        </CharString>
        <CharString name="hungarumlaut.cap">
          -47 695 -21 206 -20 hstem
          220 799 -64 callgsubr
          198 15 -64 callgsubr
          endchar
        </CharString>
        <CharString name="hyphen">
          -119 197 -21 152 -20 hstem
          282 328 rmoveto
          0 -19 -4 -64 -7 vhcurveto
          -149 -17 -23 -106 10 -18 228 26 26 108 rlineto
          endchar
        </CharString>
        <CharString name="i">
          34 callsubr
          559 195 hstem
          182 547 -49 callsubr
          30 -390 rmoveto
          21 151 37 145 -17 callsubr
          0 -134 -12 -89 vhcurveto
          -12 -82 rlineto
          28 hlineto
          23 10 -10 -23 -29 -45 -262 0 hvcurveto
          -69 callgsubr
          endchar
        </CharString>
        <CharString name="i.sups">
          -200 340 -21 370 139 hstem
          156 441 rmoveto
          14 98 24 93 0 vvcurveto
          -12 14 rlineto
          0 -95 -9 -64 vhcurveto
          -9 -59 rlineto
          19 hlineto
          15 7 -6 -15 hvcurveto
          -34 vlineto
          -188 -14 -16 33 40 34 22 86 76 vhcurveto
          -14 35 -17 3 rlineto
          -25 -29 -1 -1 -4 hhcurveto
          -31 250 rmoveto
          50 33 32 53 31 callsubr
          hvcurveto
          endchar
        </CharString>
        <CharString name="iacute">
          34 callsubr
          772 -20 hstem
          309 659 -98 callgsubr
          -95 -485 rmoveto
          21 151 37 145 -17 callsubr
          0 -134 -12 -89 vhcurveto
          -12 -82 rlineto
          28 hlineto
          23 10 -10 -23 -29 -45 -262 0 hvcurveto
          -69 callgsubr
          endchar
        </CharString>
        <CharString name="ibreve">
          34 callsubr
          537 135 70 -20 hstem
          197 660 -95 callsubr
          15 -503 rmoveto
          21 151 37 145 -17 callsubr
          0 -134 -12 -89 vhcurveto
          -12 -82 rlineto
          28 hlineto
          23 10 -10 -23 -29 -45 -262 0 hvcurveto
          -69 callgsubr
          endchar
        </CharString>
        <CharString name="icircumflex">
          34 callsubr
          771 -20 hstem
          212 1 callsubr
          37 145 -17 callsubr
          0 -134 -12 -89 vhcurveto
          -12 -82 rlineto
          28 hlineto
          23 10 -10 -23 -29 -45 -262 0 hvcurveto
          -69 callgsubr
          -161 387 -105 callsubr
        </CharString>
        <CharString name="idieresis">
          34 callsubr
          571 167 hstem
          277 559 -90 callgsubr
          124 -402 rmoveto
          21 151 37 145 -17 callsubr
          0 -134 -12 -89 vhcurveto
          -12 -82 rlineto
          28 hlineto
          23 10 -10 -23 -29 -45 -262 0 hvcurveto
          -69 callgsubr
          endchar
        </CharString>
        <CharString name="idotaccent">
          34 callsubr
          559 195 hstem
          182 547 -49 callsubr
          30 -390 rmoveto
          21 151 37 145 -17 callsubr
          0 -134 -12 -89 vhcurveto
          -12 -82 rlineto
          28 hlineto
          23 10 -10 -23 -29 -45 -262 0 hvcurveto
          -69 callgsubr
          endchar
        </CharString>
        <CharString name="igrave">
          34 callsubr
          772 -20 hstem
          38 642 -78 callgsubr
          176 -502 rmoveto
          21 151 37 145 -17 callsubr
          0 -134 -12 -89 vhcurveto
          -12 -82 rlineto
          28 hlineto
          23 10 -10 -23 -29 -45 -262 0 hvcurveto
          -69 callgsubr
          endchar
        </CharString>
        <CharString name="ij">
          171 -227 -21 257 -21 391 82 86 195 hstem
          182 547 -49 callsubr
          30 -390 rmoveto
          21 151 37 145 -17 callsubr
          0 -134 -12 -89 vhcurveto
          -12 -82 rlineto
          28 hlineto
          23 10 -10 -23 -29 -45 -262 0 hvcurveto
          -69 callgsubr
          296 -140 rmoveto
          44 292 37 147 -17 callsubr
          0 -134 -12 -89 vhcurveto
          -12 -82 rlineto
          28 hlineto
          23 10 -10 -23 -29 -49 -284 0 hvcurveto
          -15 -119 -23 -48 -72 -56 -4 -15 rcurveline
          42 -43 128 58 89 102 13 102 rlinecurve
          -7 533 -49 callsubr
          endchar
        </CharString>
        <CharString name="imacron">
          34 callsubr
          577 122 6 -6 callgsubr
          343 693 rmoveto
          hintmask 11000000
          -88 callsubr
          hintmask 10100000
          -140 -518 rmoveto
          21 151 37 145 -17 callsubr
          0 -134 -12 -89 vhcurveto
          -12 -82 rlineto
          28 hlineto
          23 10 -10 -23 -29 -45 -262 0 hvcurveto
          -69 callgsubr
          endchar
        </CharString>
        <CharString name="infinity">
          76 76 126 -111 -21 212 147 -125 125 hstemhm
          hintmask 10100000
          173 423 rmoveto
          -90 -79 -94 -115 -77 42 -61 60 54 32 33 34 22 hvcurveto
          hintmask 01100000
          -40 19 30 -33 61 hhcurveto
          100 85 94 122 83 -41 60 -62 -60 -34 -41 -36 -21 hvcurveto
          39 -24 -34 32 -60 hhcurveto
          hintmask 10100000
          -31 -221 rmoveto
          -24 -13 13 22 28 12 17 23 24 11 -29 -36 11 hvcurveto
          -8 -14 -14 -7 -16 hhcurveto
          hintmask 10010000
          226 102 rmoveto
          29 17 -17 -28 -31 -12 -18 -29 -24 -11 35 42 -16 hvcurveto
          9 13 16 8 17 hhcurveto
          endchar
        </CharString>
        <CharString name="integral">
          9 -164 106 548 108 hstem
          115 5 callgsubr
          118 101 117 146 7 vhcurveto
          17 313 rlineto
          56 4 16 22 38 11 callsubr
          -128 -141 -112 -102 vhcurveto
          endchar
        </CharString>
        <CharString name="iogonek">
          -128 -233 87 155 -21 22 -21 558 195 hstemhm
          hintmask 11010000
          237 -121 -44 callsubr
          43 52 61 121 151 -61 callsubr
          -38 -43 -3 -3 -6 hhcurveto
          -4 3 rlineto
          21 151 37 145 -17 callsubr
          0 -134 -12 -89 vhcurveto
          -12 -82 rlineto
          28 hlineto
          23 10 -10 -23 -29 -45 -262 0 hvcurveto
          -45 22 -22 44 vhcurveto
          hintmask 10110000
          4 5 1 4 hhcurveto
          -69 -68 -15 -34 -40 -41 callsubr
          -76 708 -49 callsubr
          endchar
        </CharString>
        <CharString name="itilde">
          34 callsubr
          561 -60 callsubr
          hintmask 10101000
          60 525 -7 callsubr
          hintmask 11001000
          -75 callgsubr
          hintmask 10011000
          -60 callgsubr
          168 -368 rmoveto
          21 151 37 145 -17 callsubr
          0 -134 -12 -89 vhcurveto
          -12 -82 rlineto
          28 hlineto
          23 10 -10 -23 -29 -45 -262 0 hvcurveto
          -69 callgsubr
          endchar
        </CharString>
        <CharString name="j">
          -133 -227 -21 709 86 0 195 hstemhm
          hintmask 11000000
          208 14 rmoveto
          44 292 37 147 -17 callsubr
          0 -134 -12 -89 vhcurveto
          -12 -82 rlineto
          28 hlineto
          23 10 -10 -23 -29 -49 -284 0 hvcurveto
          -15 -119 -23 -48 -72 -56 -4 -15 rcurveline
          42 -43 128 58 89 102 13 102 rlinecurve
          -7 533 rmoveto
          68 46 46 74 hvcurveto
          hintmask 10100000
          49 -27 26 -49 -70 -46 -44 -73 -49 27 -29 51 vhcurveto
          endchar
        </CharString>
        <CharString name="j.sups">
          -201 181 -21 477 52 0 139 hstemhm
          hintmask 11000000
          154 336 rmoveto
          32 208 23 88 0 vvcurveto
          -12 14 rlineto
          0 -96 -9 -63 vhcurveto
          -9 -59 rlineto
          18 hlineto
          16 6 -6 -15 -19 -33 -189 0 hvcurveto
          -9 -78 -15 -32 -49 -37 -3 -11 rcurveline
          31 -31 91 40 64 71 8 65 rlinecurve
          -11 353 rmoveto
          50 33 33 52 hvcurveto
          hintmask 10100000
          31 callsubr
          vhcurveto
          endchar
        </CharString>
        <CharString name="jcircumflex">
          -132 -227 -21 1008 -20 hstem
          208 14 rmoveto
          44 292 37 147 -17 callsubr
          0 -134 -12 -89 vhcurveto
          -12 -82 rlineto
          28 hlineto
          23 10 -10 -23 -29 -49 -284 0 hvcurveto
          -15 -119 -23 -48 -72 -56 -4 -15 rcurveline
          42 -43 128 58 89 102 13 102 rlinecurve
          -156 528 -105 callsubr
        </CharString>
        <CharString name="k">
          58 8 -21 27 -21 655 -20 102 -20 32 34 callgsubr
          -36 callsubr
          hintmask 01110000
          -41 callgsubr
          endchar
        </CharString>
        <CharString name="k.sups">
          -69 340 -21 335 -20 191 -20 hstem
          206 324 rmoveto
          9 -5 121 14 3 15 rlineto
          0 -36 72 -17 40 vhcurveto
          47 36 26 40 41 vvcurveto
          49 -43 28 -74 vhcurveto
          -23 -15 -25 -40 -25 -60 4 callgsubr
          15 7 -6 -15 -23 -64 -374 0 hvcurveto
          15 -17 rlineto
          57 49 17 21 3 hvcurveto
          4 37 rlineto
          81 31 32 58 16 hhcurveto
          9 3 -3 -10 -33 -46 -18 -3 1 hvcurveto
          -6 -12 rlineto
          7 13 rmoveto
          -1 -1 rlineto
          endchar
        </CharString>
        <CharString name="kcommaaccent">
          58 -324 -21 359 -21 655 15 callsubr
          -36 callsubr
          hintmask 11110000
          -41 callgsubr
          -118 -289 -104 callgsubr
          endchar
        </CharString>
        <CharString name="kgreenlandic">
          117 5 -21 37 -21 380 82 10 -20 32 -20 hstemhm
          hintmask 01010000
          -17 -5 rmoveto
          0 78 5 57 41 84 -6 0 vhcurveto
          23 82 -2 7 rlineto
          0 -11 -1 -4 -13 -5 6 16 69 44 273 15 26 vhcurveto
          hintmask 10101000
          -9 12 rlineto
          0 -128 -15 -113 -7 vhcurveto
          -17 -75 4 -7 56 -1 7 -12 -6 -50 rlinecurve
          -22 -184 -5 -36 -21 -12 -31 -4 rlinecurve
          300 -16 rmoveto
          19 -58 21 -19 49 -4 rrcurveto
          8 22 2 2 24 hvcurveto
          35 3 35 4 0 vvcurveto
          18 74 -5 11 -33 7 -23 21 -11 38 rlinecurve
          -43 124 44 41 46 47 53 27 rlinecurve
          21 85 -3 5 rlineto
          hintmask 01010000
          0 -64 -3 -55 -65 -76 2 0 vhcurveto
          -18 -73 2 -5 rlineto
          33 12 -5 -13 -10 -3 -7 -17 -17 hvcurveto
          -74 -79 -7 -32 rlineto
          endchar
        </CharString>
        <CharString name="l">
          -142 9 -21 660 -20 102 -20 32 -14 callgsubr
          -45 callsubr
          hintmask 11100000
          -82 callsubr
          endchar
        </CharString>
        <CharString name="l.sups">
          -209 340 -21 506 -20 hstem
          147 441 rmoveto
          13 91 57 279 0 vvcurveto
          -12 14 rlineto
          0 -97 -9 -65 vhcurveto
          -9 -59 rlineto
          19 hlineto
          15 7 -6 -15 hvcurveto
          -17 -59 -326 -26 vvcurveto
          -32 16 -16 33 40 34 22 86 76 vhcurveto
          -14 35 -17 3 rlineto
          -25 -29 -1 -1 -4 hhcurveto
          endchar
        </CharString>
        <CharString name="lacute">
          -142 9 -21 660 -20 102 -20 298 -20 hstem
          -45 callsubr
          -82 callsubr
          143 753 -98 callgsubr
          endchar
        </CharString>
        <CharString name="lcaron">
          -10 9 -21 660 -20 102 -20 32 -14 callgsubr
          -45 callsubr
          hintmask 11100000
          -82 callsubr
          263 527 -57 callsubr
        </CharString>
        <CharString name="lcommaaccent">
          -142 -324 -21 354 -21 660 15 callsubr
          -45 callsubr
          hintmask 11110000
          -82 callsubr
          -209 -246 -104 callgsubr
          endchar
        </CharString>
        <CharString name="ldot">
          11 9 -21 217 199 244 15 callsubr
          -45 callsubr
          hintmask 11110000
          -82 callsubr
          147 51 rmoveto
          -80 callgsubr
          endchar
        </CharString>
        <CharString name="less">
          -19 63 -21 457 -20 hstem
          25 184 rmoveto
          0 103 -50 60 -29 vhcurveto
          65 -34 59 -29 0 vvcurveto
          67 92 -7 21 rlineto
          0 -66 32 -65 32 vhcurveto
          -89 49 1 8 88 39 rlineto
          75 32 93 36 0 vvcurveto
          -21 105 -17 11 rlineto
          0 -74 -37 -78 -33 vhcurveto
          -181 -77 -19 -153 rlineto
          endchar
        </CharString>
        <CharString name="lessequal">
          21 -124 124 -123 -20 642 -6 callgsubr
          45 184 rmoveto
          48 -22 41 -22 45 -22 26 -13 rcurveline
          66 -34 60 -29 0 vvcurveto
          67 92 -6 21 rlineto
          0 -67 32 -64 32 vhcurveto
          -90 49 1 8 89 39 rlineto
          74 32 94 36 0 vvcurveto
          -22 105 -16 11 rlineto
          0 -75 -37 -78 -33 vhcurveto
          -181 -77 -18 -153 rlineto
          188 -199 9 callsubr
          -7 18 rlineto
          hintmask 10100000
          -1 -6 -51 0 -97 hhcurveto
          154 2 rmoveto
          -1 vlineto
          endchar
        </CharString>
        <CharString name="logicalnot">
          58 32 -21 196 146 6 -6 callgsubr
          455 359 rmoveto
          hintmask 11000000
          0 -121 -6 -66 -86 -135 1 0 vhcurveto
          39 callsubr
          131 1 88 vhcurveto
          45 hlineto
          -13 -96 -11 -91 0 vvcurveto
          11 -9 138 18 rlineto
          0 7 65 9 70 vhcurveto
          13 102 22 78 3 callsubr
        </CharString>
        <CharString name="lozenge">
          95 -72 -21 744 -20 hstem
          40 252 rmoveto
          55 -168 50 -170 14 -7 153 7 103 188 86 153 8 51 -55 160 -53 178 -12 7 -153 -7 -98 -180 -92 -163 rlineto
          187 102 rmoveto
          63 116 rlineto
          8 hlineto
          42 -124 34 -115 -70 -129 -60 -112 rlineto
          -8 hlineto
          -41 123 -34 110 rlineto
          endchar
        </CharString>
        <CharString name="lslash">
          -142 9 -21 660 -20 102 -20 32 -14 callgsubr
          199 157 rmoveto
          6 41 10 62 12 67 104 52 rcurveline
          -31 93 -9 4 -40 -20 rlineto
          27 139 26 127 -17 callsubr
          hintmask 11100000
          0 -136 -12 -91 vhcurveto
          -12 -82 rlineto
          28 hlineto
          23 10 -10 -23 -12 -17 -101 -19 -113 hvcurveto
          -102 -51 31 -94 10 -2 40 20 rlineto
          -17 -103 -14 -90 -14 2 callsubr
        </CharString>
        <CharString name="m">
          362 12 -21 23 -21 326 166 -106 82 -9 callgsubr
          709 160 rmoveto
          8 42 51 135 -27 callsubr
          -37 -24 -40 -63 -41 -95 -7 -1 rcurveline
          hintmask 01010000
          0 14 52 25 vvcurveto
          hintmask 01100000
          66 -55 40 -91 vhcurveto
          -37 -24 -40 -63 -41 -95 -7 -1 rcurveline
          11 73 22 77 0 vvcurveto
          -14 21 rlineto
          hintmask 01010000
          0 -134 -12 -89 vhcurveto
          -12 -82 rlineto
          28 hlineto
          27 9 -11 -32 -4 hvcurveto
          -9 -58 -43 -262 0 vvcurveto
          -65 callgsubr
          hintmask 01100000
          125 44 47 90 22 hhcurveto
          14 5 -6 -17 -38 -64 -242 0 hvcurveto
          20 -23 rlineto
          76 69 24 28 3 hvcurveto
          5 48 rlineto
          130 50 55 96 24 -5 callsubr
          hvcurveto
          -38 -61 -161 -42 vvcurveto
          hintmask 10100000
          -41 20 -18 46 55 49 36 119 106 vhcurveto
          -19 48 -24 4 rlineto
          -35 -40 -7 -6 -5 hhcurveto
          endchar
        </CharString>
        <CharString name="m.sups">
          141 342 -21 22 -21 214 118 -9 callgsubr
          503 -1 callgsubr
          -23 -15 -24 -39 -26 -61 -5 -1 rcurveline
          0 7 28 15 vvcurveto
          46 -40 27 -67 vhcurveto
          -24 -15 -24 -40 -26 -60 -40 callgsubr
          14 hhcurveto
          9 3 -3 -11 -26 -43 -157 0 hvcurveto
          14 -17 rlineto
          58 50 17 21 2 hvcurveto
          3 31 rlineto
          83 32 35 62 15 hhcurveto
          8 3 -5 -13 hvcurveto
          -22 -39 -106 -26 vvcurveto
          hintmask 10100000
          -30 14 -13 34 41 34 25 84 76 vhcurveto
          -14 34 -18 3 rlineto
          -22 -25 -5 -4 -3 hhcurveto
          endchar
        </CharString>
        <CharString name="macron">
          -47 565 122 -102 -21 129 42 callgsubr
          393 693 -22 callsubr
        </CharString>
        <CharString name="macron.cap">
          -47 695 122 -102 -21 129 42 callgsubr
          409 823 -22 callsubr
        </CharString>
        <CharString name="minus">
          58 177 146 -126 -21 153 42 callgsubr
          480 329 rmoveto
          hintmask 10000000
          0 -138 -6 -78 -86 -135 1 0 vhcurveto
          -34 -135 rlineto
          hintmask 01100000
          7 -13 rlineto
          hintmask 10000000
          5 callsubr
          endchar
        </CharString>
        <CharString name="mu">
          98 -221 -21 230 140 -117 -21 494 -20 hstemhm
          hintmask 10110000
          69 455 rmoveto
          -13 -28 rlineto
          0 6 -45 -7 -57 vhcurveto
          -40 -252 rlineto
          -25 -161 -31 -140 0 vvcurveto
          13 -14 159 25 9 12 rlineto
          0 1 48 6 52 vhcurveto
          11 99 5 3 rlineto
          -4 6 10 -3 10 hhcurveto
          13 38 40 36 30 hvcurveto
          10 -5 rlineto
          hintmask 11010000
          -49 3 35 -24 68 hhcurveto
          66 24 70 98 0 vvcurveto
          -14 26 rlineto
          0 -17 -8 -14 -15 -9 12 18 34 47 235 22 31 vhcurveto
          -11 22 -197 -28 -14 -27 rlineto
          0 8 -40 -7 -62 vhcurveto
          -21 -173 rlineto
          -7 -13 -18 -9 -13 hhcurveto
          -22 -11 15 32 24 32 211 29 46 hvcurveto
          -10 22 rlineto
          endchar
        </CharString>
        <CharString name="multiply">
          58 47 -21 429 -20 hstem
          379 455 rmoveto
          0 -64 -65 -58 -54 vhcurveto
          -44 53 -44 55 0 vvcurveto
          -118 -83 -5 -16 rlineto
          0 48 -58 47 -55 vhcurveto
          -55 -50 -52 -49 0 vvcurveto
          66 -104 15 -3 rlineto
          0 56 53 58 53 vhcurveto
          90 -106 115 87 8 16 rlineto
          0 -51 55 -45 52 vhcurveto
          118 111 -71 102 rlineto
          endchar
        </CharString>
        <CharString name="n">
          16 callgsubr
          24 -20 hstemhm
          hintmask 01110000
          452 160 rmoveto
          8 42 51 135 -98 callsubr
          hvcurveto
          -38 -61 -161 -42 vvcurveto
          hintmask 10110000
          -75 callsubr
          endchar
        </CharString>
        <CharString name="n.sups">
          -39 342 -21 22 -21 332 42 callgsubr
          324 -1 callgsubr
          -22 -15 -25 -38 -26 -62 -40 callgsubr
          13 hhcurveto
          8 3 -5 -13 hvcurveto
          -22 -40 -106 -26 vvcurveto
          hintmask 10100000
          -30 15 -13 34 41 34 25 84 76 26 callsubr
        </CharString>
        <CharString name="nacute">
          16 callgsubr
          299 -20 hstemhm
          hintmask 01110000
          452 160 rmoveto
          8 42 51 135 -98 callsubr
          hvcurveto
          -38 -61 -161 -42 vvcurveto
          hintmask 10110000
          -75 callsubr
          13 502 -98 callgsubr
          endchar
        </CharString>
        <CharString name="nbspace">
          -296 endchar
        </CharString>
        <CharString name="ncaron">
          16 callgsubr
          54 -20 245 -20 hstemhm
          hintmask 01111000
          452 160 rmoveto
          8 42 51 135 -98 callsubr
          hvcurveto
          -38 -61 -161 -42 vvcurveto
          hintmask 10111000
          -75 callsubr
          -294 514 -84 callgsubr
        </CharString>
        <CharString name="ncommaaccent">
          105 -324 -21 357 -21 23 -21 386 82 24 -20 hstemhm
          hintmask 10111000
          452 160 rmoveto
          8 42 51 135 -98 callsubr
          hvcurveto
          -38 -61 -161 -42 vvcurveto
          hintmask 11011000
          -75 callsubr
          -319 -249 -104 callgsubr
          endchar
        </CharString>
        <CharString name="nine">
          27 -75 -21 494 117 hstem
          20 -8 rmoveto
          20 -81 12 -7 rlineto
          0 404 91 329 vvcurveto
          116 -68 75 -113 -157 -102 -95 -146 -92 53 -58 86 vhcurveto
          56 21 4 -11 rlineto
          -82 -102 -113 -40 0 vvcurveto
          206 252 rmoveto
          -26 -13 20 40 60 13 34 48 28 14 -25 -46 -22 -3 -21 -7 -24 hvcurveto
          -7 -12 -20 -9 -22 hhcurveto
          endchar
        </CharString>
        <CharString name="nine.dnom">
          -94 12 -21 325 85 hstem
          23 55 -86 callgsubr
        </CharString>
        <CharString name="nine.lf">
          -58 callgsubr
        </CharString>
        <CharString name="nine.numr">
          -94 266 -21 230 -20 115 85 hstem
          23 309 -86 callgsubr
        </CharString>
        <CharString name="nine.sinf">
          -94 -108 -21 325 85 hstem
          23 -65 -86 callgsubr
        </CharString>
        <CharString name="nine.sups">
          -94 339 -21 325 85 hstem
          23 382 -86 callgsubr
        </CharString>
        <CharString name="nine.tf">
          -58 callgsubr
        </CharString>
        <CharString name="nine.tosf">
          17 -75 -21 494 117 hstem
          18 -8 rmoveto
          19 -81 12 -7 rlineto
          0 400 91 329 vvcurveto
          116 -67 75 -112 -155 -101 -95 -146 -92 52 -58 84 vhcurveto
          19 7 15 7 20 7 4 -11 rcurveline
          -81 -102 -109 -40 0 vvcurveto
          203 252 rmoveto
          -24 -13 20 40 60 12 34 47 27 14 -25 -46 -22 -3 -21 -7 -24 hvcurveto
          -7 -12 -19 -9 -22 hhcurveto
          endchar
        </CharString>
        <CharString name="notequal">
          58 -21 -21 119 146 54 146 134 -20 hstem
          489 429 rmoveto
          0 -71 -4 -69 -1 vhcurveto
          33 125 -5 8 -118 -10 -33 -124 rlineto
          -81 -93 1 0 hvcurveto
          40 callsubr
          84 1 79 vhcurveto
          -14 -54 rlineto
          -74 -72 1 0 hvcurveto
          39 callsubr
          64 0 70 1 vhcurveto
          -28 -110 2 -9 119 11 28 108 rlineto
          31 hlineto
          51 52 1 50 hhcurveto
          30 136 -5 15 rlineto
          1 -94 -7 -75 vhcurveto
          14 54 rlineto
          51 52 1 52 hhcurveto
          29 136 rlineto
          endchar
        </CharString>
        <CharString name="ntilde">
          16 callgsubr
          88 -60 callsubr
          hintmask 01110010
          452 160 rmoveto
          8 42 51 135 -98 callsubr
          hvcurveto
          -38 -61 -161 -42 vvcurveto
          hintmask 10101010
          -75 callsubr
          -256 368 -7 callsubr
          hintmask 01110010
          -75 callgsubr
          hintmask 01100110
          -60 callgsubr
          endchar
        </CharString>
        <CharString name="numbersign">
          110 52 -21 114 116 79 120 122 -20 hstem
          58 339 rmoveto
          75 hlineto
          -8 -33 -12 -45 -90 1 -26 -105 7 -13 rlineto
          75 hlineto
          -29 -104 12 -9 108 14 25 100 rlineto
          78 hlineto
          -30 -105 12 -9 108 14 26 100 98 1 21 106 -5 15 -83 -3 17 60 4 16 100 1 21 106 -5 15 -82 -3 35 116 -13 7 -109 -9 -30 -117 rlineto
          -77 hlineto
          36 119 -13 7 -110 -9 -30 -117 -87 1 -26 -105 rlineto
          193 -28 rmoveto
          3 16 rlineto
          80 hlineto
          -9 -34 -12 -45 rlineto
          -79 hlineto
          endchar
        </CharString>
        <CharString name="o">
          -26 callgsubr
          hstem
          -100 callgsubr
          endchar
        </CharString>
        <CharString name="o.sups">
          -43 callgsubr
        </CharString>
        <CharString name="oacute">
          -26 callgsubr
          276 -20 hstem
          -100 callgsubr
          235 671 -98 callgsubr
          endchar
        </CharString>
        <CharString name="obreve">
          -26 callgsubr
          41 135 70 -20 hstem
          -100 callgsubr
          93 672 -95 callsubr
          endchar
        </CharString>
        <CharString name="ocircumflex">
          -26 callgsubr
          275 -20 hstem
          -100 callgsubr
          -49 553 -105 callsubr
        </CharString>
        <CharString name="odieresis">
          -26 callgsubr
          75 167 hstem
          -100 callgsubr
          173 571 -90 callgsubr
          endchar
        </CharString>
        <CharString name="oe">
          316 -12 107 -107 138 238 119 1 -6 callgsubr
          754 39 callgsubr
          -74 -65 -34 -54 -47 vhcurveto
          hintmask 10010000
          58 -23 -46 31 -72 hhcurveto
          -163 -107 -119 -181 -125 65 -71 114 76 61 28 48 42 hvcurveto
          -48 24 41 -28 56 hhcurveto
          93 100 65 83 34 hvcurveto
          -17 callgsubr
          hintmask 01100000
          -49 -28 -29 -22 -34 hhcurveto
          -32 -18 17 32 -5 hvcurveto
          179 54 70 49 93 vvcurveto
          hintmask 10100000
          -518 -276 rmoveto
          -27 -12 31 69 104 20 65 32 28 10 -25 -72 -121 -15 -51 -36 hvcurveto
          344 268 -18 callgsubr
        </CharString>
        <CharString name="ogonek">
          -45 -242 87 197 -20 hstem
          232 -130 -44 callsubr
          28 15 25 95 110 vhcurveto
          -68 hlineto
          -126 -113 -24 -41 -50 3 callgsubr
        </CharString>
        <CharString name="ograve">
          -26 callgsubr
          276 -20 hstem
          -100 callgsubr
          -86 654 -78 callgsubr
          endchar
        </CharString>
        <CharString name="ohungarumlaut">
          -26 callgsubr
          270 -20 hstem
          -100 callgsubr
          126 703 -65 callsubr
          160 14 -65 callsubr
          endchar
        </CharString>
        <CharString name="omacron">
          -26 callgsubr
          81 37 callgsubr
          -100 callgsubr
          239 705 rmoveto
          hintmask 11100000
          -88 callsubr
          endchar
        </CharString>
        <CharString name="one">
          -66 0 88 hstem
          311 400 rmoveto
          13 36 13 20 22 16 -11 43 rcurveline
          -1 1 -80 -13 -94 -3 callgsubr
          -43 -5 -47 43 callgsubr
          17 37 7 -11 -46 -5 vhcurveto
          -25 -201 -5 -42 -28 -20 -61 -6 rlinecurve
          -18 -81 rlineto
          -1 -1 113 11 73 hhcurveto
          52 99 -6 0 hvcurveto
          27 callgsubr
          135 30 81 17 49 vhcurveto
          endchar
        </CharString>
        <CharString name="one.dnom">
          -157 0 -5 callgsubr
          322 -89 callgsubr
          hintmask 10100000
          -74 callsubr
          endchar
        </CharString>
        <CharString name="one.lf">
          -65 0 88 -77 -21 490 42 callgsubr
          319 483 rmoveto
          12 35 14 20 22 17 -11 43 rcurveline
          -1 1 -81 -13 -92 -10 -40 -5 -44 -5 -46 43 callgsubr
          18 37 6 -11 -46 -5 vhcurveto
          -35 -284 -5 -42 -28 -20 -61 -6 rlinecurve
          -19 -81 rlineto
          hintmask 10100000
          0 112 10 74 52 99 -6 0 vhcurveto
          27 callgsubr
          45 41 262 14 41 vhcurveto
          endchar
        </CharString>
        <CharString name="one.numr">
          -157 254 -5 callgsubr
          576 -89 callgsubr
          hintmask 10100000
          -74 callsubr
          endchar
        </CharString>
        <CharString name="one.sinf">
          -157 -120 -5 callgsubr
          202 -89 callgsubr
          hintmask 10100000
          -74 callsubr
          endchar
        </CharString>
        <CharString name="one.sups">
          -157 327 -5 callgsubr
          649 -89 callgsubr
          hintmask 10100000
          -74 callsubr
          endchar
        </CharString>
        <CharString name="one.tf">
          27 0 88 -77 -21 490 42 callgsubr
          363 483 rmoveto
          12 35 15 20 26 17 -11 43 rcurveline
          -2 1 -74 -13 -107 -10 -144 -14 rcurveline
          -16 -75 8 -10 rlineto
          0 33 3 21 41 10 -11 -46 -5 vhcurveto
          -37 -284 -5 -42 -33 -20 -69 -6 rlinecurve
          -19 -81 rlineto
          hintmask 10100000
          0 120 10 79 59 110 -6 0 vhcurveto
          24 90 -3 6 rlineto
          0 -25 -2 -26 -27 -12 16 32 48 40 258 17 41 vhcurveto
          endchar
        </CharString>
        <CharString name="one.tosf">
          17 0 88 hstem
          350 400 rmoveto
          13 36 13 20 26 16 -11 43 rcurveline
          -2 1 -73 -13 -108 -10 -143 -14 rcurveline
          -17 -75 8 -10 rlineto
          0 33 3 20 41 11 -11 -46 -6 vhcurveto
          -25 -201 -6 -42 -30 -20 -72 -6 rlinecurve
          -17 -81 rlineto
          -1 -1 120 11 78 hhcurveto
          58 109 -6 0 hvcurveto
          24 90 -3 6 rlineto
          0 -24 -2 -27 -26 -12 16 42 128 30 79 19 47 vhcurveto
          endchar
        </CharString>
        <CharString name="onedotenleader">
          -202 -9 199 hstem
          81 -9 rmoveto
          -80 callgsubr
          endchar
        </CharString>
        <CharString name="onehalf">
          444 -70 -21 112 -21 254 63 -34 118 278 -20 hstemhm
          hintmask 11101000
          643 647 -83 callsubr
          -425 -47 -89 callgsubr
          -74 callsubr
          270 -580 rmoveto
          69 4 rlineto
          72 158 -8 0 hvcurveto
          14 13 rlineto
          10 61 26 93 0 vvcurveto
          -87 -6 rlineto
          -45 -10 -15 -16 -31 hhcurveto
          -26 hlineto
          -3 6 rlineto
          108 97 35 52 62 vvcurveto
          hintmask 11011000
          55 -48 37 -73 -51 -60 -29 -47 -47 vhcurveto
          8 -86 rlineto
          14 hlineto
          30 29 28 14 23 hhcurveto
          19 9 -7 -18 -18 -22 -32 -43 -42 hvcurveto
          -104 -97 rlineto
          endchar
        </CharString>
        <CharString name="onequarter">
          412 -70 -21 87 173 -85 85 85 63 362 -20 hstem
          643 647 -83 callsubr
          -425 -47 -89 callgsubr
          -74 callsubr
          244 -491 -74 callgsubr
          -73 callsubr
          endchar
        </CharString>
        <CharString name="ordfeminine">
          -62 callgsubr
        </CharString>
        <CharString name="ordmasculine">
          -43 callgsubr
        </CharString>
        <CharString name="oslash">
          53 -117 -21 126 107 269 120 123 -48 callsubr
          180 45 rmoveto
          -27 -12 31 69 104 20 65 32 28 10 -25 -72 -121 -15 -51 -36 hvcurveto
          endchar
        </CharString>
        <CharString name="oslashacute">
          53 -117 -21 126 107 269 120 276 -48 callsubr
          377 609 -98 callgsubr
          -195 -547 rmoveto
          -27 -12 31 69 104 20 65 32 28 10 -25 -72 -121 -15 -51 -36 hvcurveto
          endchar
        </CharString>
        <CharString name="otilde">
          -26 callgsubr
          65 -60 callsubr
          hintmask 11010100
          -100 callgsubr
          -34 537 -61 callgsubr
        </CharString>
        <CharString name="p">
          106 -230 85 -71 -21 237 123 361 -20 hstemhm
          hintmask 01110000
          -68 -237 rmoveto
          hintmask 10110000
          0 172 7 132 vhcurveto
          16 79 -1 6 rlineto
          -46 hlineto
          -38 -9 10 39 5 hvcurveto
          16 116 97 -20 rlineto
          117 137 163 163 99 -59 59 -102 hvcurveto
          -40 -31 -42 -51 -46 -88 rrcurveto
          -9 hlineto
          9 47 11 47 14 46 -16 19 rcurveline
          0 -134 -12 -89 vhcurveto
          -12 -82 rlineto
          28 hlineto
          23 10 -10 -23 -45 -46 -291 -22 -99 hvcurveto
          -11 -48 -12 -13 -37 -5 rrcurveto
          hintmask 01110000
          388 502 rmoveto
          7 6 -26 -38 -65 -19 -95 -22 -36 -38 26 0 hvcurveto
          116 33 52 82 17 hhcurveto
          endchar
        </CharString>
        <CharString name="p.sups">
          -35 173 61 -45 -21 160 88 237 -20 hstemhm
          hintmask 01110000
          -47 168 rmoveto
          hintmask 10110000
          0 126 5 93 vhcurveto
          11 57 rlineto
          4 -33 vlineto
          -26 -6 6 27 3 hvcurveto
          11 75 67 -14 rlineto
          82 96 109 110 67 -42 39 -75 hvcurveto
          -26 -19 -28 -33 -30 -53 -6 -1 rcurveline
          5 28 7 30 8 27 -11 14 rcurveline
          0 -96 -9 -63 vhcurveto
          -9 -59 rlineto
          18 hlineto
          15 7 -6 -15 -32 -29 -183 -16 -71 hvcurveto
          -7 -32 -9 -8 -26 -4 rrcurveto
          hintmask 01110000
          272 329 rmoveto
          4 2 -14 -24 -40 -9 -62 -13 -25 -25 19 -1 3 hvcurveto
          71 19 34 51 10 hhcurveto
          endchar
        </CharString>
        <CharString name="paragraph">
          124 -94 106 548 92 -5 -6 callgsubr
          292 106 rmoveto
          -68 -8 -25 -26 -53 hhcurveto
          -50 -31 47 76 hvcurveto
          -17 hlineto
          -32 -38 -30 -63 -35 vvcurveto
          -49 59 -44 72 143 155 136 148 18 vhcurveto
          11 91 31 192 10 43 7 31 4 5 36 10 3 4 rcurveline
          16 84 rlineto
          0 -132 -3 -29 vhcurveto
          hintmask 11000000
          -46 -62 5 -50 hhcurveto
          -150 -118 -109 -145 -122 96 -79 159 hvcurveto
          4 35 rlineto
          -26 45 -12 45 54 vvcurveto
          103 28 81 48 22 5 -3 -12 -2 vhcurveto
          endchar
        </CharString>
        <CharString name="parenleft">
          -133 -125 -21 795 -20 hstem
          42 163 rmoveto
          -30 -242 152 -67 0 vvcurveto
          12 hlineto
          70 60 1 11 rlineto
          0 -70 60 24 193 vhcurveto
          21 173 rlineto
          21 176 81 49 0 vvcurveto
          2 9 -44 64 rlineto
          -18 hlineto
          0 -171 -68 -30 -245 vhcurveto
          endchar
        </CharString>
        <CharString name="parenright">
          -129 -125 -21 795 -20 hstem
          262 340 rmoveto
          29 242 -151 67 0 vvcurveto
          -13 hlineto
          -69 -60 -1 -11 rlineto
          0 70 -60 -24 -193 vhcurveto
          -21 -173 rlineto
          -22 -176 -81 -49 0 vvcurveto
          -2 -9 45 -64 rlineto
          17 hlineto
          0 171 68 30 245 vhcurveto
          endchar
        </CharString>
        <CharString name="partialdiff">
          63 -14 107 254 124 269 -20 hstem
          251 449 rmoveto
          0 -23 14 -11 8 vhcurveto
          -115 -96 -132 -161 -122 72 -70 130 173 107 121 188 179 -124 170 -217 96 hvcurveto
          -17 -8 -61 -81 95 -71 59 -58 33 -64 rlinecurve
          35 -177 rmoveto
          -80 -28 -108 -27 -28 -12 19 55 105 24 75 40 13 9 -4 -6 8 vhcurveto
          1 -12 0 -27 -17 vvcurveto
          endchar
        </CharString>
        <CharString name="percent">
          307 -68 callsubr
          73 -28 callsubr
        </CharString>
        <CharString name="period">
          -202 -9 199 hstem
          81 -9 rmoveto
          -80 callgsubr
          endchar
        </CharString>
        <CharString name="periodcentered">
          -202 154 199 hstem
          101 154 rmoveto
          -80 callgsubr
          endchar
        </CharString>
        <CharString name="perthousand">
          635 -68 callsubr
          355 138 rmoveto
          -49 -23 13 28 34 20 14 55 49 23 -12 -29 -33 -18 -15 -57 hvcurveto
          -27 -138 rmoveto
          108 78 79 147 96 -47 47 -78 -108 -80 -79 -146 -97 49 -47 78 hvcurveto
          -255 -28 callsubr
        </CharString>
        <CharString name="pi">
          193 -73 -21 103 -21 391 116 -100 100 10 -14 callgsubr
          501 182 rmoveto
          33 19 102 6 23 vhcurveto
          47 13 12 8 63 hhcurveto
          8 7 27 96 rlineto
          hintmask 11001000
          -5 7 rlineto
          hintmask 11100000
          0 -121 -10 -83 vhcurveto
          hintmask 11001000
          -57 -165 10 -110 hhcurveto
          -16 -7 -98 -75 -3 -9 27 -69 10 1 rlineto
          hintmask 11100000
          0 48 33 25 11 5 -6 -21 -42 -57 -371 -7 -16 vhcurveto
          8 -17 169 28 13 15 rlineto
          0 4 47 6 48 vhcurveto
          40 311 rlineto
          33 6 4 4 24 hhcurveto
          23 5 -9 -35 -4 hvcurveto
          -29 -229 rlineto
          -90 -11 36 -41 93 hhcurveto
          23 112 100 23 2 hvcurveto
          -12 24 rlineto
          -49 -15 8 39 hvcurveto
          endchar
        </CharString>
        <CharString name="plus">
          58 39 -21 159 146 170 -20 hstem
          336 493 rmoveto
          -133 -13 -20 -157 rlineto
          -71 -69 1 0 hvcurveto
          40 callsubr
          74 0 75 1 vhcurveto
          -10 -76 -9 -74 0 vvcurveto
          11 36 callsubr
          149 1 30 136 -5 15 rlineto
          0 -82 -4 -74 -2 vhcurveto
          11 75 15 88 3 callsubr
        </CharString>
        <CharString name="plusminus">
          58 -124 124 -123 -20 342 146 170 -20 hstemhm
          hintmask 10110000
          339 515 rmoveto
          -133 -13 -6 -52 -8 -53 -6 -52 rlinecurve
          -71 -69 1 0 hvcurveto
          39 callsubr
          74 0 75 1 vhcurveto
          -10 -76 -10 -74 0 vvcurveto
          12 36 callsubr
          50 49 1 50 hhcurveto
          30 136 -5 15 rlineto
          0 -82 -4 -74 -2 vhcurveto
          11 75 15 88 0 vvcurveto
          67 -506 rmoveto
          0 -22 -2 -63 vhcurveto
          -323 hlineto
          -23 -105 8 -19 rlineto
          hintmask 01110000
          140 130 1 134 hhcurveto
          27 106 rlineto
          endchar
        </CharString>
        <CharString name="product">
          264 16 -21 26 -21 559 88 5 -20 hstemhm
          hintmask 10010000
          661 510 rmoveto
          7 37 9 7 45 8 18 90 rcurveline
          hintmask 10100000
          0 -127 -5 -42 vhcurveto
          -339 hlineto
          hintmask 10010000
          -38 -118 5 0 hvcurveto
          -20 -80 8 -14 rlineto
          hintmask 10100000
          0 14 1 10 22 8 -7 -26 -32 -30 -217 -15 -115 vhcurveto
          -6 -56 -14 -15 -52 -11 -18 -85 rcurveline
          hintmask 01100000
          -1 102 5 61 hhcurveto
          39 117 -4 0 hvcurveto
          19 84 -7 10 rlineto
          0 -1 -1 -3 -1 vhcurveto
          -1 -5 -6 0 -8 hhcurveto
          -16 -7 8 29 33 34 218 21 122 hvcurveto
          40 7 11 12 32 hhcurveto
          57 24 5 -43 -111 -28 -127 -14 -111 hvcurveto
          -7 -56 -11 -15 -45 -11 rrcurveto
          hintmask 10100000
          -18 -85 rlineto
          hintmask 01100000
          0 97 5 58 40 27 callsubr
          -20 -18 -7 8 30 37 38 249 18 99 vhcurveto
          endchar
        </CharString>
        <CharString name="q">
          73 -230 70 -61 -21 96 -20 175 -21 379 105 40 -20 hstemhm
          hintmask 10011100
          252 -97 rmoveto
          -9 -51 -13 -9 -64 -3 rrcurveto
          hintmask 01111100
          -16 -82 rlineto
          hintmask 10011100
          0 97 12 192 vhcurveto
          17 81 -3 4 rlineto
          hintmask 01111100
          -26 -1 rlineto
          -17 -5 7 21 111 102 482 0 hvcurveto
          -7 23 -132 14 -20 -12 -13 -48 -72 20 -29 callgsubr
          -24 -111 rlineto
          -73 96 rmoveto
          -8 -6 26 39 74 22 85 19 36 38 -26 0 hvcurveto
          -97 -28 -51 -101 -22 hhcurveto
          endchar
        </CharString>
        <CharString name="q.sups">
          -58 173 50 -37 -21 404 75 27 -20 hstemhm
          hintmask 10110000
          178 264 rmoveto
          -6 -33 -9 -6 -45 -2 rrcurveto
          hintmask 01110000
          -12 -58 rlineto
          hintmask 10110000
          0 67 8 140 vhcurveto
          12 58 -2 3 -16 -1 rlineto
          -12 -3 4 14 75 70 325 -3 -6 hvcurveto
          -5 17 -99 9 -15 -9 -9 -31 -47 13 rlineto
          -86 -91 -113 -106 -67 41 -39 69 hvcurveto
          28 19 25 30 35 59 rrcurveto
          7 hlineto
          -16 -69 rlineto
          -45 72 rmoveto
          -5 -3 15 24 46 12 54 9 25 27 -18 1 -3 hvcurveto
          -56 -14 -34 -66 -14 hhcurveto
          endchar
        </CharString>
        <CharString name="question">
          -62 -9 199 381 145 hstem
          90 240 rmoveto
          14 -8 120 20 10 14 2 69 3 6 rlineto
          142 87 41 48 70 vvcurveto
          94 -111 72 -158 4 vhcurveto
          -18 -9 -55 -118 12 -18 rlineto
          96 -5 51 -26 -43 vvcurveto
          -23 -18 -21 -35 -18 vhcurveto
          -98 -47 -5 -15 rlineto
          44 -382 -54 callsubr
          -53 -69 -46 -47 -72 -51 29 -29 54 hvcurveto
          endchar
        </CharString>
        <CharString name="questiondown">
          -62 -241 145 381 199 hstem
          281 235 rmoveto
          -14 8 -120 -20 -10 -14 -2 -69 -3 -6 rlineto
          -143 -88 -40 -48 -69 vvcurveto
          -94 111 -72 158 -4 vhcurveto
          18 9 55 118 -12 18 rlineto
          -95 4 -52 26 43 vvcurveto
          24 18 21 35 18 vhcurveto
          98 47 5 15 rlineto
          -44 382 14 callsubr
          endchar
        </CharString>
        <CharString name="quotedbl">
          -95 422 -21 258 -20 hstem
          208 659 rmoveto
          -135 -10 callgsubr
          -4 -118 -17 -120 vhcurveto
          18 -6 77 25 rlineto
          39 112 29 109 0 vvcurveto
          160 12 rmoveto
          -135 -10 callgsubr
          -4 -118 -16 -120 vhcurveto
          18 -6 76 25 rlineto
          39 112 29 109 3 callsubr
        </CharString>
        <CharString name="quotedblbase">
          3 -101 29 callgsubr
          -1 -20 callgsubr
          206 -14 -104 callgsubr
          endchar
        </CharString>
        <CharString name="quotedblleft">
          38 369 29 callgsubr
          518 406 -51 callsubr
          -1 callsubr
          -209 14 -51 callsubr
          -1 callsubr
          endchar
        </CharString>
        <CharString name="quotedblright">
          38 369 29 callgsubr
          350 601 -50 callsubr
          -215 -14 -50 callsubr
          endchar
        </CharString>
        <CharString name="quoteleft">
          -173 369 29 callgsubr
          249 406 -51 callsubr
          -1 callsubr
          endchar
        </CharString>
        <CharString name="quoteright">
          -173 369 29 callgsubr
          76 601 -50 callsubr
          endchar
        </CharString>
        <CharString name="quotesinglbase">
          -202 -101 29 callgsubr
          5 -20 callgsubr
          endchar
        </CharString>
        <CharString name="quotesingle">
          -262 422 -21 258 -20 hstem
          208 659 rmoveto
          -135 -10 callgsubr
          -4 -118 -17 -120 vhcurveto
          18 -6 77 25 rlineto
          39 112 29 109 3 callsubr
        </CharString>
        <CharString name="r">
          -17 14 -21 491 -20 hstem
          29 16 rmoveto
          20 -23 rlineto
          76 68 24 28 4 hvcurveto
          8 69 rlineto
          122 43 45 58 50 hhcurveto
          33 20 -20 0 hvcurveto
          19 9 rlineto
          12 32 5 22 19 vvcurveto
          58 -20 42 -41 28 vhcurveto
          -33 -59 -77 -84 -30 hvcurveto
          -7 -1 rlineto
          9 63 19 67 0 vvcurveto
          -14 21 rlineto
          0 -134 -12 -89 vhcurveto
          -12 -82 rlineto
          28 hlineto
          23 10 -10 -23 -35 -53 -295 0 hvcurveto
          endchar
        </CharString>
        <CharString name="r.sups">
          -120 343 -21 331 -20 hstem
          20 339 rmoveto
          15 -17 rlineto
          58 49 17 21 3 hvcurveto
          5 42 rlineto
          80 28 29 36 33 hhcurveto
          25 14 -15 0 hvcurveto
          14 7 rlineto
          9 23 4 16 13 vvcurveto
          42 -15 30 -30 19 vhcurveto
          -22 -39 -49 -52 -18 hvcurveto
          -5 -1 rlineto
          5 39 12 41 0 vvcurveto
          -11 15 rlineto
          0 -95 -9 -64 vhcurveto
          -8 -59 rlineto
          18 hlineto
          15 7 -6 -15 -23 -36 -195 0 hvcurveto
          endchar
        </CharString>
        <CharString name="racute">
          -17 14 -21 491 -20 296 -20 hstem
          29 16 rmoveto
          20 -23 rlineto
          76 68 24 28 4 hvcurveto
          8 69 rlineto
          122 43 45 58 50 hhcurveto
          33 20 -20 0 hvcurveto
          19 9 rlineto
          12 32 5 22 19 vvcurveto
          58 -20 42 -41 28 vhcurveto
          -33 -59 -77 -84 -30 hvcurveto
          -7 -1 rlineto
          9 63 19 67 0 vvcurveto
          -14 21 rlineto
          0 -134 -12 -89 vhcurveto
          -12 -82 rlineto
          28 hlineto
          23 10 -10 -23 -35 -53 -295 0 hvcurveto
          323 643 -98 callgsubr
          endchar
        </CharString>
        <CharString name="radical">
          56 9 -21 754 -20 hstem
          72 320 rmoveto
          7 -71 26 -261 0 vvcurveto
          219 12 300 742 rlineto
          -117 hlineto
          -30 -20 -216 -577 rlineto
          -17 hlineto
          0 -11 281 2 49 vhcurveto
          -5 7 -94 -12 rlineto
          -49 -6 -63 -5 0 vvcurveto
          -21 -86 2 -4 47 1 14 -11 6 -39 rlinecurve
          endchar
        </CharString>
        <CharString name="rcaron">
          -17 14 -21 491 -20 51 -20 245 -20 hstem
          29 16 rmoveto
          20 -23 rlineto
          76 68 24 28 4 hvcurveto
          8 69 rlineto
          122 43 45 58 50 hhcurveto
          33 20 -20 0 hvcurveto
          19 9 rlineto
          12 32 5 22 19 vvcurveto
          58 -20 42 -41 28 vhcurveto
          -33 -59 -77 -84 -30 hvcurveto
          -7 -1 rlineto
          9 63 19 67 0 vvcurveto
          -14 21 rlineto
          0 -134 -12 -89 vhcurveto
          -12 -82 rlineto
          28 hlineto
          23 10 -10 -23 -35 -53 -295 0 hvcurveto
          6 655 -84 callgsubr
        </CharString>
        <CharString name="rcommaaccent">
          -17 -324 -21 359 -21 491 -20 hstem
          29 16 rmoveto
          20 -23 rlineto
          76 68 24 28 4 hvcurveto
          8 69 rlineto
          122 43 45 58 50 hhcurveto
          33 20 -20 0 hvcurveto
          19 9 rlineto
          12 32 5 22 19 vvcurveto
          58 -20 42 -41 28 vhcurveto
          -33 -59 -77 -84 -30 hvcurveto
          -7 -1 rlineto
          9 63 19 67 0 vvcurveto
          -14 21 rlineto
          0 -134 -12 -89 vhcurveto
          -12 -82 rlineto
          28 hlineto
          23 10 -10 -23 -35 -53 -295 0 hvcurveto
          -25 -108 -104 callgsubr
          endchar
        </CharString>
        <CharString name="registered">
          21 303 42 72 200 -38 132 -122 -20 100 42 hstemhm
          hintmask 11001000
          61 486 rmoveto
          -102 73 -81 101 118 107 102 123 102 -74 81 -101 -118 -106 -102 -123 vhcurveto
          41 4 rmoveto
          97 85 82 93 80 58 -65 -80 -97 -85 -82 -93 -79 -59 65 80 vhcurveto
          50 -76 rmoveto
          0 26 2 18 1 vhcurveto
          11 hlineto
          13 33 -2 0 hvcurveto
          6 26 rlineto
          1 1 -1 0 1 vvcurveto
          -16 1 -5 1 12 vvcurveto
          3 3 19 1 7 vhcurveto
          16 hlineto
          12 -47 rlineto
          -26 7 8 -1 27 hhcurveto
          51 3 -13 5 4 18 -2 3 rcurveline
          -8 1 -12 13 -5 14 -15 32 rcurveline
          30 17 13 21 28 vvcurveto
          35 -28 15 -54 vhcurveto
          -1 -10 -22 -1 -9 hhcurveto
          -52 hlineto
          -6 -25 3 -2 rlineto
          hintmask 10011000
          0 5 1 6 5 2 -4 -14 -2 vhcurveto
          -13 -103 -2 -17 -7 -7 -13 -3 rlinecurve
          98 130 rmoveto
          hintmask 10100000
          7 1 1 1 4 hhcurveto
          20 9 -8 -14 -18 -7 -12 -14 -4 hvcurveto
          -7 -12 1 -4 hhcurveto
          2 15 4 15 3 17 rrcurveto
          endchar
        </CharString>
        <CharString name="ring">
          -47 542 210 -72 72 hstemhm
          hintmask 01000000
          241 612 -15 callgsubr
          hintmask 10000000
          -25 callsubr
        </CharString>
        <CharString name="ring.cap">
          -47 682 210 -72 72 hstemhm
          hintmask 01000000
          260 752 14 callgsubr
          hintmask 10000000
          -16 -70 -16 callsubr
          endchar
        </CharString>
        <CharString name="s">
          28 callsubr
          -97 callsubr
          endchar
        </CharString>
        <CharString name="s.sups">
          -130 319 86 159 89 hstem
          40 451 rmoveto
          -19 -21 -20 -41 -4 -26 rrcurveto
          -25 10 48 -19 57 hhcurveto
          98 72 51 72 59 -56 14 -32 14 hvcurveto
          -13 5 -8 5 9 vvcurveto
          9 9 7 12 15 15 -11 -19 9 vhcurveto
          19 hlineto
          14 23 15 29 16 39 rrcurveto
          17 -24 -42 11 -41 hhcurveto
          -93 -67 -52 -74 -49 35 -18 31 -12 hvcurveto
          23 -10 22 -7 -13 vvcurveto
          -9 -8 -4 -17 -27 -26 21 24 -3 vhcurveto
          endchar
        </CharString>
        <CharString name="sacute">
          28 callsubr
          276 -20 -97 callsubr
          340 481 -98 callgsubr
          endchar
        </CharString>
        <CharString name="scaron">
          28 callsubr
          31 -20 245 -20 -97 callsubr
          13 493 -84 callgsubr
        </CharString>
        <CharString name="scedilla">
          -31 24 callgsubr
          499 123 hstem
          96 -89 callsubr
          8 27 rlineto
          119 11 84 72 95 vvcurveto
          86 -81 23 -46 24 vhcurveto
          -18 9 -12 9 14 vvcurveto
          16 15 12 19 23 23 -18 -29 14 vhcurveto
          25 hlineto
          20 32 21 42 22 54 rrcurveto
          26 -34 -58 16 -58 hhcurveto
          -129 -95 -77 -106 -71 51 -28 44 -21 hvcurveto
          34 -16 31 -12 -22 vvcurveto
          -16 -14 -9 -26 -42 -36 32 40 -4 vhcurveto
          -27 2 -26 -30 -28 -60 -6 -37 rlinecurve
          11 -34 53 -24 67 -6 rrcurveto
          endchar
        </CharString>
        <CharString name="scircumflex">
          28 callsubr
          276 -20 -97 callsubr
          39 364 -105 callsubr
        </CharString>
        <CharString name="scommaaccent">
          -31 -324 -21 333 23 callsubr
          -97 callsubr
          -18 -270 -104 callgsubr
          endchar
        </CharString>
        <CharString name="section">
          37 -95 118 456 -20 77 123 hstem
          388 67 rmoveto
          5 41 -17 29 -25 23 rrcurveto
          63 35 48 48 61 120 -170 30 54 vvcurveto
          16 16 12 17 24 23 -24 -33 7 vhcurveto
          25 hlineto
          21 16 37 84 31 vvcurveto
          26 -65 23 -74 -124 -99 -74 -97 -38 17 -27 24 -23 vhcurveto
          -55 -28 -64 -47 -77 -126 177 -10 -62 vvcurveto
          -17 -11 -10 -20 -42 -35 37 45 -1 vhcurveto
          -27 2 rlineto
          -37 -42 -19 -51 -35 vvcurveto
          -38 69 -36 76 122 102 70 92 12 vhcurveto
          -203 240 rmoveto
          20 8 14 12 13 vhcurveto
          46 -29 43 -27 -45 vvcurveto
          -18 -6 -14 -10 -12 vhcurveto
          -48 28 -45 25 45 vvcurveto
          endchar
        </CharString>
        <CharString name="semicolon">
          -202 -101 -21 311 67 0 199 hstemhm
          hintmask 11000000
          5 -20 callgsubr
          110 111 rmoveto
          68 46 47 71 hvcurveto
          hintmask 10100000
          51 -29 30 -52 -69 -46 -47 -72 -51 28 -29 54 vhcurveto
          endchar
        </CharString>
        <CharString name="seven">
          -10 -74 -21 598 -20 24 -4 callgsubr
          191 -95 rmoveto
          55 143 78 152 31 63 95 35 callgsubr
          -61 -57 21 callsubr
          19 65 13 11 57 6 rlinecurve
          86 9 -234 -389 9 -28 118 -38 rlineto
          endchar
        </CharString>
        <CharString name="seven.dnom">
          -121 14 41 callgsubr
          -7 -63 callsubr
        </CharString>
        <CharString name="seven.lf">
          -12 10 -21 598 -20 24 -4 callgsubr
          201 -11 rmoveto
          55 143 78 152 32 63 94 35 callgsubr
          -60 -58 4 0 hvcurveto
          -6 -5 rlineto
          -18 -106 -31 -133 0 vvcurveto
          83 6 19 65 13 11 57 6 rlinecurve
          87 9 -234 -389 8 -28 119 -38 rlineto
          endchar
        </CharString>
        <CharString name="seven.numr">
          -121 268 -21 400 -20 23 -4 callgsubr
          148 247 rmoveto
          39 101 56 107 17 33 61 109 rlinecurve
          -36 50 rlineto
          -151 hlineto
          hintmask 10100000
          -41 -40 3 0 hvcurveto
          hintmask 11000000
          -4 -3 rlineto
          -13 -74 -21 -92 0 vvcurveto
          61 4 12 43 9 6 39 5 rlinecurve
          53 6 -155 -252 6 -19 88 -27 rlineto
          endchar
        </CharString>
        <CharString name="seven.sinf">
          -121 -106 41 callgsubr
          -127 -63 callsubr
        </CharString>
        <CharString name="seven.sups">
          -121 341 41 callgsubr
          320 -63 callsubr
        </CharString>
        <CharString name="seven.tf">
          27 10 -21 598 -20 24 -4 callgsubr
          215 -11 rmoveto
          55 143 79 152 38 63 103 170 rlinecurve
          -49 70 rlineto
          -228 hlineto
          hintmask 10100000
          -64 -61 4 0 hvcurveto
          -7 -5 rlineto
          -18 -106 -31 -133 0 vvcurveto
          84 6 20 65 13 11 61 6 rlinecurve
          100 9 -251 -389 8 -28 121 -38 rlineto
          endchar
        </CharString>
        <CharString name="seven.tosf">
          17 -74 -21 598 -20 24 -4 callgsubr
          200 -95 rmoveto
          56 143 78 152 36 63 101 170 rlinecurve
          -49 70 rlineto
          -225 hlineto
          hintmask 10100000
          -63 -60 21 callsubr
          20 65 13 11 60 6 rlinecurve
          95 9 -246 -389 9 -28 120 -38 rlineto
          endchar
        </CharString>
        <CharString name="six">
          -81 callsubr
        </CharString>
        <CharString name="six.dnom">
          -94 -8 38 callgsubr
          338 -86 callsubr
        </CharString>
        <CharString name="six.lf">
          -81 callsubr
        </CharString>
        <CharString name="six.numr">
          -94 246 85 180 -20 164 -20 hstem
          311 592 -86 callsubr
        </CharString>
        <CharString name="six.sinf">
          -94 -128 38 callgsubr
          218 -86 callsubr
        </CharString>
        <CharString name="six.sups">
          -94 319 38 callgsubr
          665 -86 callsubr
        </CharString>
        <CharString name="six.tf">
          -81 callsubr
        </CharString>
        <CharString name="six.tosf">
          17 -12 117 494 -20 hstem
          437 511 rmoveto
          -20 81 -12 7 rlineto
          0 -399 -91 -329 vvcurveto
          -116 66 -75 111 156 101 95 146 92 -51 58 -85 vhcurveto
          -18 -7 -16 -7 -20 -7 -4 11 rcurveline
          81 101 110 41 0 vvcurveto
          -205 -252 rmoveto
          26 11 -20 -40 -60 -12 -34 -46 -26 -15 25 46 26 5 17 4 23 hvcurveto
          8 13 18 9 22 hhcurveto
          endchar
        </CharString>
        <CharString name="slash">
          -114 -89 -21 785 -20 hstem
          373 675 rmoveto
          -119 hlineto
          -167 -449 rlineto
          -56 -152 -69 -169 0 vvcurveto
          9 -15 rlineto
          126 hlineto
          0 59 160 61 165 vhcurveto
          62 162 109 278 3 callsubr
        </CharString>
        <CharString name="space">
          -296 endchar
        </CharString>
        <CharString name="square1">
          26 21 -21 472 -20 hstem
          -28 hmoveto
          459 hlineto
          58 472 rlineto
          -459 hlineto
          endchar
        </CharString>
        <CharString name="square2">
          195 21 -21 647 -20 hstem
          -28 hmoveto
          628 hlineto
          79 647 rlineto
          -628 hlineto
          endchar
        </CharString>
        <CharString name="sterling">
          62 -12 153 133 86 121 117 hstem
          431 216 rmoveto
          -45 -5 -25 -30 -30 -27 -50 17 -20 hhcurveto
          -60 -14 17 16 17 42 4 34 rlinecurve
          6 38 rlineto
          76 54 -3 0 hvcurveto
          21 85 -4 7 rlineto
          0 -58 -3 -76 vhcurveto
          9 57 rlineto
          48 6 13 16 33 hhcurveto
          29 27 -11 -32 50 hvcurveto
          19 3 59 29 callsubr
          9 -24 -49 6 -45 hhcurveto
          -126 -147 -108 -103 -13 hvcurveto
          -3 -27 -62 -9 -17 -70 3 -6 50 -3 12 -6 -1 -31 rlinecurve
          -5 -34 -5 -43 -29 -34 -55 -28 rlinecurve
          14 -91 14 -6 rlineto
          30 54 43 13 44 60 61 -54 61 hhcurveto
          75 59 56 81 34 -7 40 -12 17 hvcurveto
          endchar
        </CharString>
        <CharString name="summation">
          156 14 -21 655 -20 21 -20 30 -4 callgsubr
          517 19 rmoveto
          12 93 36 146 0 vvcurveto
          -128 -9 -19 -83 -28 -35 -58 -7 rlinecurve
          -150 -22 185 201 5 43 -92 199 87 -14 62 -11 18 -32 -7 -78 rlinecurve
          122 17 rlineto
          0 10 136 9 85 vhcurveto
          hintmask 10010000
          -10 11 rlineto
          hintmask 11000000
          -177 -11 rlineto
          hintmask 10100000
          -91 -90 1 -91 hhcurveto
          -47 hlineto
          -23 -44 142 -297 -226 -247 27 -68 83 10 416 -6 rlineto
          endchar
        </CharString>
        <CharString name="t">
          -102 -12 162 229 8 callgsubr
          35 192 -67 callgsubr
          -44 -248 -29 callsubr
          endchar
        </CharString>
        <CharString name="t.sups">
          -181 340 -21 259 59 97 -20 hstem
          208 464 rmoveto
          -22 -19 -9 -6 -8 hhcurveto
          -10 -4 5 14 2 hvcurveto
          21 119 9 5 63 -1 8 54 -5 5 rlineto
          -63 hlineto
          9 45 11 44 0 vvcurveto
          -10 8 -123 -24 rlineto
          0 -4 -40 -5 -33 vhcurveto
          -49 -8 -5 -47 2 -3 rlineto
          36 hlineto
          6 -6 -29 -157 rlineto
          -61 -7 36 -36 69 hhcurveto
          21 43 42 64 45 hvcurveto
          -15 36 rlineto
          endchar
        </CharString>
        <CharString name="tbar">
          -102 -12 162 80 68 81 8 callgsubr
          9 50 rlineto
          109 hlineto
          5 55 -15 15 -87 -3 14 75 -67 callgsubr
          -13 -75 -82 33 callsubr
          67 hlineto
          -19 -106 -29 callsubr
          endchar
        </CharString>
        <CharString name="tcaron">
          57 -12 162 229 8 callgsubr
          35 192 13 8 71 -1 12 75 -7 7 rlineto
          -72 hlineto
          14 68 17 66 0 vvcurveto
          -14 12 -168 -35 rlineto
          0 -7 -60 -7 -51 vhcurveto
          -72 -11 25 callgsubr
          54 hlineto
          9 -8 -44 -248 -29 callsubr
          207 370 -57 callsubr
        </CharString>
        <CharString name="tcedilla">
          -102 24 callgsubr
          517 82 146 -20 hstem
          97 -89 callsubr
          9 29 33 13 55 56 56 80 rlinecurve
          -21 50 -22 4 rlineto
          -27 callgsubr
          35 192 -67 callgsubr
          -44 -248 -8 -69 30 -45 60 -15 rlinecurve
          endchar
        </CharString>
</ttFont>
